<svg xmlns:dc="http://purl.org/dc/elements/1.1/" xmlns:cc="http://creativecommons.org/ns#" xmlns:rdf="http://www.w3.org/1999/02/22-rdf-syntax-ns#" xmlns:svg="http://www.w3.org/2000/svg" xmlns="http://www.w3.org/2000/svg" viewBox="0 0 64 64" fill="none"><metadata><rdf:RDF><cc:Work><dc:format>image/svg+xml</dc:format><dc:type rdf:resource="http://purl.org/dc/dcmitype/StillImage"/><dc:title>Personas by Draftbit</dc:title><dc:creator><cc:Agent><dc:title>Draftbit - draftbit.com</dc:title></cc:Agent></dc:creator><dc:source>https://personas.draftbit.com/</dc:source><cc:license rdf:resource="https://creativecommons.org/licenses/by/4.0/"/></cc:Work><cc:License rdf:about="https://creativecommons.org/licenses/by/4.0/"><cc:permits rdf:resource="https://creativecommons.org/ns#Reproduction"/><cc:permits rdf:resource="https://creativecommons.org/ns#Distribution"/><cc:permits rdf:resource="https://creativecommons.org/ns#DerivativeWorks"/><cc:requires rdf:resource="https://creativecommons.org/ns#Notice"/><cc:requires rdf:resource="https://creativecommons.org/ns#Attribution"/></cc:License></rdf:RDF></metadata><mask id="avatarsRadiusMask"><rect width="64" height="64" rx="0" ry="0" x="0" y="0" fill="#fff"/></mask><g mask="url(#avatarsRadiusMask)"><path d="M37 46.08V52a5 5 0 0 1-10 0v-5.92A14.035 14.035 0 0 1 18.58 37h-.08a4.5 4.5 0 0 1-.5-8.973V27c0-7.732 6.268-14 14-14s14 6.268 14 14v1.027A4.5 4.5 0 0 1 45.42 37 14.035 14.035 0 0 1 37 46.081Z" fill="rgba(201, 230, 220, 1)"/><mask id="personas-a" style="mask-type:alpha" maskUnits="userSpaceOnUse" x="14" y="13" width="36" height="44"><path d="M37 46.08V52a5 5 0 0 1-10 0v-5.92A14.035 14.035 0 0 1 18.58 37h-.08a4.5 4.5 0 0 1-.5-8.973V27c0-7.732 6.268-14 14-14s14 6.268 14 14v1.027A4.5 4.5 0 0 1 45.42 37 14.035 14.035 0 0 1 37 46.081Z" fill="#fff"/></mask><g mask="url(#personas-a)"><path d="M32 13c7.732 0 14 6.268 14 14v6c0 7.732-6.268 14-14 14s-14-6.268-14-14v-6c0-7.732 6.268-14 14-14Z" fill="#fff" style="mix-blend-mode:overlay" opacity=".364"/></g><g transform="translate(20 24)"><g fill="#1B0640"><path d="M4 4.5a1.5 1.5 0 1 0 3 0 1.5 1.5 0 0 0-3 0ZM21.244 3.907a.75.75 0 0 0-.837-.651l-4 .5a.75.75 0 0 0 .186 1.488l4-.5a.75.75 0 0 0 .651-.837Z"/></g></g><g transform="translate(2 2)"><path fill-rule="evenodd" clip-rule="evenodd" d="M44 26c-1.807-2.008-3.13-4.5-3.97-7.474-1.87 2.283-4.547 3.607-8.03 3.974-5.832.614-10.817-.327-14.953-2.822A13.958 13.958 0 0 0 16 25v1.027a4.474 4.474 0 0 0-2 .73V25.5C14 16.387 21.163 9 30 9s16 7.387 16 16.5v1.258a4.474 4.474 0 0 0-2-.73V26Zm2 8.242v22.283H35V44.08a14.035 14.035 0 0 0 8.42-9.082l.08.001c.925 0 1.785-.28 2.5-.758ZM14 56.568h11.13s-.079-4.667-.13-7.023v-5.464a14.035 14.035 0 0 1-8.42-9.082L16.5 35c-.925 0-1.785-.28-2.5-.758v22.326Z" fill="rgba(242, 125, 101, 1)"/><mask id="hairExtraLong-a" style="mask-type:alpha" maskUnits="userSpaceOnUse" x="14" y="9" width="32" height="48"><path fill-rule="evenodd" clip-rule="evenodd" d="M44 26c-1.807-2.008-3.13-4.5-3.97-7.474-1.87 2.283-4.547 3.607-8.03 3.974-5.832.614-10.817-.327-14.953-2.822A13.958 13.958 0 0 0 16 25v1.027a4.474 4.474 0 0 0-2 .73V25.5C14 16.387 21.163 9 30 9s16 7.387 16 16.5v1.258a4.474 4.474 0 0 0-2-.73V26Zm2 8.242v22.283H35V44.08a14.035 14.035 0 0 0 8.42-9.082l.08.001c.925 0 1.785-.28 2.5-.758ZM14 56.568h11.13s-.079-4.667-.13-7.023v-5.464a14.035 14.035 0 0 1-8.42-9.082L16.5 35c-.925 0-1.785-.28-2.5-.758v22.326Z" fill="#362C47"/></mask><g mask="url(#hairExtraLong-a)"><path fill="#fff" d="M14 9h32v18H14z" style="mix-blend-mode:overlay" opacity=".258"/></g></g><g transform="translate(11 44)"><path d="M16 5v3a5 5 0 0 0 10 0V5l6.647 2.045A9 9 0 0 1 39 15.647V20H3v-4.353a9 9 0 0 1 6.353-8.602L16 5Z" fill="rgba(117, 85, 202, 1)"/><mask id="bodyCheckered-a" style="mask-type:alpha" maskUnits="userSpaceOnUse" x="3" y="5" width="36" height="15"><path d="M16 5v3a5 5 0 0 0 10 0V5l6.647 2.045A9 9 0 0 1 39 15.647V20H3v-4.353a9 9 0 0 1 6.353-8.602L16 5Z" fill="#fff"/></mask><g mask="url(#bodyCheckered-a)"><path fill-rule="evenodd" clip-rule="evenodd" d="M7 20h4V6.538l-1.647.507A8.99 8.99 0 0 0 7 8.163V20ZM32.647 7.045 31 6.538V20h4V8.163a8.99 8.99 0 0 0-2.353-1.118ZM23 20h4v-8.392a7.017 7.017 0 0 1-4 3.102V20Zm-4 0h-4v-8.392a7.017 7.017 0 0 0 4 3.102V20Z" fill="#000" style="mix-blend-mode:overlay" opacity=".404"/></g><g style="mix-blend-mode:lighten" opacity=".18" fill="#fff"><path d="M3.397 13a9.014 9.014 0 0 1 2.535-4h8.139a6.982 6.982 0 0 0 2.03 4H3.397ZM39 17v3H3v-3h36ZM36.068 9a9.014 9.014 0 0 1 2.535 4H25.899a6.982 6.982 0 0 0 2.03-4h8.14Z"/></g><mask id="bodyCheckered-b" style="mask-type:alpha" maskUnits="userSpaceOnUse" x="3" y="9" width="36" height="11"><g style="mix-blend-mode:lighten" fill="#fff"><path d="M3.397 13a9.014 9.014 0 0 1 2.535-4h8.139a6.982 6.982 0 0 0 2.03 4H3.397ZM39 17v3H3v-3h36ZM36.068 9a9.014 9.014 0 0 1 2.535 4H25.899a6.982 6.982 0 0 0 2.03-4h8.14Z"/></g></mask></g><g transform="translate(23 36)"><path fill-rule="evenodd" clip-rule="evenodd" d="M9 2a6.611 6.611 0 0 1-2.27-.412A2.035 2.035 0 0 0 4 3.5a3.5 3.5 0 0 0 2.004 3.165 3 3 0 0 0 5.992 0A3.5 3.5 0 0 0 14 3.5a2.035 2.035 0 0 0-2.73-1.912A6.61 6.61 0 0 1 9 2ZM7.585 7h2.83a1.5 1.5 0 0 1-2.83 0Z" fill="#456DFF"/><path fill-rule="evenodd" clip-rule="evenodd" d="M12 6.5c0 .055-.002.11-.005.165A3.5 3.5 0 0 0 14 3.5a2.035 2.035 0 0 0-2.73-1.912A6.61 6.61 0 0 1 9 2a6.611 6.611 0 0 1-2.27-.412A2.035 2.035 0 0 0 4 3.5a3.5 3.5 0 0 0 2.004 3.165A3 3 0 1 1 12 6.5ZM7.585 7h2.83a1.5 1.5 0 1 0-2.83 0Z" fill="#fff" fill-opacity=".26" style="mix-blend-mode:lighten"/><circle cx="9" cy="4.5" r="1.5" fill="#fff"/></g><g><g transform="translate(24 28)"><path opacity=".119" fill-rule="evenodd" clip-rule="evenodd" d="M11.721 5.294c.21.736.273 1.39.195 1.955.349.543.643 1.041.883 1.493.447.843.86 1.817 1.238 2.92a.5.5 0 1 0 .946-.324 21.232 21.232 0 0 0-1.3-3.065c-.473-.89-1.137-1.934-1.996-3.135a.499.499 0 0 0-.099-.104c.06.075.105.162.133.26Zm-7.442 0a.748.748 0 0 1 .115-.237.502.502 0 0 0-.071.08C3.464 6.34 2.799 7.384 2.328 8.274a21.224 21.224 0 0 0-1.301 3.065.5.5 0 0 0 .946.324 20.24 20.24 0 0 1 1.238-2.92c.238-.448.53-.942.875-1.48-.08-.568-.019-1.227.193-1.968Z" fill="#000"/><path d="M5.206 4.779a.75.75 0 0 0-.927.515c-.212.741-.274 1.4-.193 1.968C4.314 8.866 5.68 9.75 8 9.75c2.328 0 3.693-.888 3.916-2.501.078-.565.015-1.22-.195-1.955a.749.749 0 0 0-.927-.515.75.75 0 0 0-.515.927C10.802 7.536 10.19 8.25 8 8.25s-2.802-.713-2.279-2.544a.75.75 0 0 0-.515-.927Z" fill="#000" style="mix-blend-mode:overlay" opacity=".36"/></g></g><g><g transform="translate(14 26)"><path fill-rule="evenodd" clip-rule="evenodd" d="M13.613 10.673C12.015 11.096 11 12.59 11 14.242v4.663c0 .997.494 1.934 1.377 2.398 1.39.73 3.634 1.697 5.78 1.697 2.14 0 4.26-.963 5.56-1.694.832-.467 1.283-1.369 1.283-2.322v-4.742c0-1.653-1.015-3.146-2.613-3.569C21.073 10.326 19.455 10 18 10c-1.455 0-3.073.326-4.387.673Zm.293 1.41c-.802.222-1.316.967-1.316 1.798v2.67c0 1.065.561 2.057 1.54 2.477 1.084.465 2.585.972 3.974.972 1.385 0 2.847-.504 3.899-.968.956-.422 1.497-1.4 1.497-2.445v-2.69c0-.84-.524-1.59-1.333-1.808-1.073-.29-2.646-.628-4.167-.628-1.512 0-3.048.334-4.094.623Z" fill="rgba(242, 125, 101, 1)"/></g></g></g></svg>