<svg xmlns:dc="http://purl.org/dc/elements/1.1/" xmlns:cc="http://creativecommons.org/ns#" xmlns:rdf="http://www.w3.org/1999/02/22-rdf-syntax-ns#" xmlns:svg="http://www.w3.org/2000/svg" xmlns="http://www.w3.org/2000/svg" viewBox="0 0 64 64" fill="none"><metadata><rdf:RDF><cc:Work><dc:format>image/svg+xml</dc:format><dc:type rdf:resource="http://purl.org/dc/dcmitype/StillImage"/><dc:title>Personas by Draftbit</dc:title><dc:creator><cc:Agent><dc:title>Draftbit - draftbit.com</dc:title></cc:Agent></dc:creator><dc:source>https://personas.draftbit.com/</dc:source><cc:license rdf:resource="https://creativecommons.org/licenses/by/4.0/"/></cc:Work><cc:License rdf:about="https://creativecommons.org/licenses/by/4.0/"><cc:permits rdf:resource="https://creativecommons.org/ns#Reproduction"/><cc:permits rdf:resource="https://creativecommons.org/ns#Distribution"/><cc:permits rdf:resource="https://creativecommons.org/ns#DerivativeWorks"/><cc:requires rdf:resource="https://creativecommons.org/ns#Notice"/><cc:requires rdf:resource="https://creativecommons.org/ns#Attribution"/></cc:License></rdf:RDF></metadata><mask id="avatarsRadiusMask"><rect width="64" height="64" rx="0" ry="0" x="0" y="0" fill="#fff"/></mask><g mask="url(#avatarsRadiusMask)"><path d="M37 46.08V52a5 5 0 0 1-10 0v-5.92A14.035 14.035 0 0 1 18.58 37h-.08a4.5 4.5 0 0 1-.5-8.973V27c0-7.732 6.268-14 14-14s14 6.268 14 14v1.027A4.5 4.5 0 0 1 45.42 37 14.035 14.035 0 0 1 37 46.081Z" fill="rgba(177, 106, 91, 1)"/><mask id="personas-a" style="mask-type:alpha" maskUnits="userSpaceOnUse" x="14" y="13" width="36" height="44"><path d="M37 46.08V52a5 5 0 0 1-10 0v-5.92A14.035 14.035 0 0 1 18.58 37h-.08a4.5 4.5 0 0 1-.5-8.973V27c0-7.732 6.268-14 14-14s14 6.268 14 14v1.027A4.5 4.5 0 0 1 45.42 37 14.035 14.035 0 0 1 37 46.081Z" fill="#fff"/></mask><g mask="url(#personas-a)"><path d="M32 13c7.732 0 14 6.268 14 14v6c0 7.732-6.268 14-14 14s-14-6.268-14-14v-6c0-7.732 6.268-14 14-14Z" fill="#fff" style="mix-blend-mode:overlay" opacity=".364"/></g><g transform="translate(20 24)"><path fill-rule="evenodd" clip-rule="evenodd" d="M4 4.5a1.5 1.5 0 1 0 3 0 1.5 1.5 0 0 0-3 0Zm13 0a1.5 1.5 0 1 0 3 0 1.5 1.5 0 0 0-3 0Z" fill="#1B0640"/></g><g transform="translate(2 2)"><path d="M31.792 7a2 2 0 0 1 3.816 0h.558a2 2 0 0 1 3.83.668c.075.03.15.063.224.095a2 2 0 0 1 3.13 2.298l.152.178a2 2 0 0 1 1.775 3.41 8.9 8.9 0 0 1 .114.474 2 2 0 0 1 .018 3.748l-.047.324a2 2 0 0 1-.022 3.62 1.994 1.994 0 0 1 .159.852 1.8 1.8 0 0 1-1.22 2.924L44 27.5c-.44-.659-.842-1.48-1.209-2.465a1.796 1.796 0 0 1-.437-.796 1.997 1.997 0 0 1-.563-2.679l-.022-.098a2 2 0 0 1-.956-2.937 1.994 1.994 0 0 1-2.44-.323 2 2 0 0 1-3.724.057 39.11 39.11 0 0 1-.312.032 2 2 0 0 1-3.573.203l-.23.003a2 2 0 0 1-3.521-.099l-.41-.031a2 2 0 0 1-3.676-.165c-.363.369-.868.598-1.427.598-.663 0-1.25-.322-1.614-.818l-.022.155a2 2 0 0 1-.701 3.35 2 2 0 0 1-1.397 3.095A24.9 24.9 0 0 1 16 27.5l-.188-1.923a1.8 1.8 0 0 1-.338-3.465l-.012-.126a2 2 0 0 1-.38-3.889l-.013-.144a2 2 0 0 1 .067-3.92c.013-.06.027-.118.042-.178a2 2 0 0 1 1.46-3.627 2 2 0 0 1 3.066-2.326 2 2 0 0 1 3.835-.894l.05-.002A2 2 0 0 1 27.41 7h.183a2 2 0 0 1 3.816 0h.384Z" fill="rgba(54, 44, 71, 1)"/><mask id="hairCurlyHighTop-a" style="mask-type:alpha" maskUnits="userSpaceOnUse" x="13" y="5" width="34" height="23"><path d="M31.792 7a2 2 0 0 1 3.816 0h.558a2 2 0 0 1 3.83.668c.075.03.15.063.224.095a2 2 0 0 1 3.13 2.298l.152.178a2 2 0 0 1 1.775 3.41 8.9 8.9 0 0 1 .114.474 2 2 0 0 1 .018 3.748l-.047.324a2 2 0 0 1-.022 3.62 1.994 1.994 0 0 1 .159.852 1.8 1.8 0 0 1-1.22 2.924L44 27.5c-.44-.659-.842-1.48-1.209-2.465a1.796 1.796 0 0 1-.437-.796 1.997 1.997 0 0 1-.563-2.679l-.022-.098a2 2 0 0 1-.956-2.937 1.994 1.994 0 0 1-2.44-.323 2 2 0 0 1-3.724.057 39.11 39.11 0 0 1-.312.032 2 2 0 0 1-3.573.203l-.23.003a2 2 0 0 1-3.521-.099l-.41-.031a2 2 0 0 1-3.676-.165c-.363.369-.868.598-1.427.598-.663 0-1.25-.322-1.614-.818l-.022.155a2 2 0 0 1-.701 3.35 2 2 0 0 1-1.397 3.095A24.9 24.9 0 0 1 16 27.5l-.188-1.923a1.8 1.8 0 0 1-.338-3.465l-.012-.126a2 2 0 0 1-.38-3.889l-.013-.144a2 2 0 0 1 .067-3.92c.013-.06.027-.118.042-.178a2 2 0 0 1 1.46-3.627 2 2 0 0 1 3.066-2.326 2 2 0 0 1 3.835-.894l.05-.002A2 2 0 0 1 27.41 7h.183a2 2 0 0 1 3.816 0h.384Z" fill="#fff"/></mask><g mask="url(#hairCurlyHighTop-a)"><path fill="#fff" d="M13 5h34v23H13z" style="mix-blend-mode:overlay" opacity=".259"/></g></g><g transform="translate(11 44)"><path d="M16 5v3a5 5 0 0 0 10 0V5l6.647 2.045A9 9 0 0 1 39 15.647V20H3v-4.353a9 9 0 0 1 6.353-8.602L16 5Z" fill="rgba(84, 215, 199, 1)"/><mask id="bodyCheckered-a" style="mask-type:alpha" maskUnits="userSpaceOnUse" x="3" y="5" width="36" height="15"><path d="M16 5v3a5 5 0 0 0 10 0V5l6.647 2.045A9 9 0 0 1 39 15.647V20H3v-4.353a9 9 0 0 1 6.353-8.602L16 5Z" fill="#fff"/></mask><g mask="url(#bodyCheckered-a)"><path fill-rule="evenodd" clip-rule="evenodd" d="M7 20h4V6.538l-1.647.507A8.99 8.99 0 0 0 7 8.163V20ZM32.647 7.045 31 6.538V20h4V8.163a8.99 8.99 0 0 0-2.353-1.118ZM23 20h4v-8.392a7.017 7.017 0 0 1-4 3.102V20Zm-4 0h-4v-8.392a7.017 7.017 0 0 0 4 3.102V20Z" fill="#000" style="mix-blend-mode:overlay" opacity=".404"/></g><g style="mix-blend-mode:lighten" opacity=".18" fill="#fff"><path d="M3.397 13a9.014 9.014 0 0 1 2.535-4h8.139a6.982 6.982 0 0 0 2.03 4H3.397ZM39 17v3H3v-3h36ZM36.068 9a9.014 9.014 0 0 1 2.535 4H25.899a6.982 6.982 0 0 0 2.03-4h8.14Z"/></g><mask id="bodyCheckered-b" style="mask-type:alpha" maskUnits="userSpaceOnUse" x="3" y="9" width="36" height="11"><g style="mix-blend-mode:lighten" fill="#fff"><path d="M3.397 13a9.014 9.014 0 0 1 2.535-4h8.139a6.982 6.982 0 0 0 2.03 4H3.397ZM39 17v3H3v-3h36ZM36.068 9a9.014 9.014 0 0 1 2.535 4H25.899a6.982 6.982 0 0 0 2.03-4h8.14Z"/></g></mask></g><g transform="translate(23 36)"><path d="M5.004 4.132a1 1 0 1 0 .992 1.736C7.016 5.285 8.014 5 9 5c.986 0 1.983.285 3.004.868a1 1 0 1 0 .992-1.736C11.684 3.382 10.348 3 9 3c-1.348 0-2.684.382-3.996 1.132Z" fill="#1B0640"/></g><g><g transform="translate(24 28)"><path d="M4.25 5a.75.75 0 0 1 1.5 0c0 .836.914 1.75 2.25 1.75 1.336 0 2.25-.914 2.25-1.75a.75.75 0 0 1 1.5 0c0 1.664-1.586 3.25-3.75 3.25-2.164 0-3.75-1.586-3.75-3.25Z" fill="#000" style="mix-blend-mode:overlay" opacity=".36"/></g></g><g><g transform="translate(14 26)"><path opacity=".2" d="M32 3v4c0 7.732-6.268 14-14 14S4 14.732 4 7V3c0-.1.001-.2.003-.298C6.048 5.642 8.535 9.669 12 11c2-1.002 4-1.504 6-1.504s4 .502 6 1.504c3.465-1.33 5.952-5.359 7.997-8.298C31.999 2.8 32 2.9 32 3Z" fill="rgba(54, 44, 71, 1)"/></g></g></g></svg>