<svg xmlns:dc="http://purl.org/dc/elements/1.1/" xmlns:cc="http://creativecommons.org/ns#" xmlns:rdf="http://www.w3.org/1999/02/22-rdf-syntax-ns#" xmlns:svg="http://www.w3.org/2000/svg" xmlns="http://www.w3.org/2000/svg" viewBox="0 0 64 64" fill="none"><metadata><rdf:RDF><cc:Work><dc:format>image/svg+xml</dc:format><dc:type rdf:resource="http://purl.org/dc/dcmitype/StillImage"/><dc:title>Personas by Draftbit</dc:title><dc:creator><cc:Agent><dc:title>Draftbit - draftbit.com</dc:title></cc:Agent></dc:creator><dc:source>https://personas.draftbit.com/</dc:source><cc:license rdf:resource="https://creativecommons.org/licenses/by/4.0/"/></cc:Work><cc:License rdf:about="https://creativecommons.org/licenses/by/4.0/"><cc:permits rdf:resource="https://creativecommons.org/ns#Reproduction"/><cc:permits rdf:resource="https://creativecommons.org/ns#Distribution"/><cc:permits rdf:resource="https://creativecommons.org/ns#DerivativeWorks"/><cc:requires rdf:resource="https://creativecommons.org/ns#Notice"/><cc:requires rdf:resource="https://creativecommons.org/ns#Attribution"/></cc:License></rdf:RDF></metadata><mask id="avatarsRadiusMask"><rect width="64" height="64" rx="0" ry="0" x="0" y="0" fill="#fff"/></mask><g mask="url(#avatarsRadiusMask)"><path d="M37 46.08V52a5 5 0 0 1-10 0v-5.92A14.035 14.035 0 0 1 18.58 37h-.08a4.5 4.5 0 0 1-.5-8.973V27c0-7.732 6.268-14 14-14s14 6.268 14 14v1.027A4.5 4.5 0 0 1 45.42 37 14.035 14.035 0 0 1 37 46.081Z" fill="rgba(98, 61, 54, 1)"/><mask id="personas-a" style="mask-type:alpha" maskUnits="userSpaceOnUse" x="14" y="13" width="36" height="44"><path d="M37 46.08V52a5 5 0 0 1-10 0v-5.92A14.035 14.035 0 0 1 18.58 37h-.08a4.5 4.5 0 0 1-.5-8.973V27c0-7.732 6.268-14 14-14s14 6.268 14 14v1.027A4.5 4.5 0 0 1 45.42 37 14.035 14.035 0 0 1 37 46.081Z" fill="#fff"/></mask><g mask="url(#personas-a)"><path d="M32 13c7.732 0 14 6.268 14 14v6c0 7.732-6.268 14-14 14s-14-6.268-14-14v-6c0-7.732 6.268-14 14-14Z" fill="#fff" style="mix-blend-mode:overlay" opacity=".364"/></g><g transform="translate(20 24)"><g fill="#1B0640"><path d="M3.763 6.212a.75.75 0 0 0 .949-.475c.233-.699.617-.987 1.288-.987s1.056.288 1.289.987a.75.75 0 1 0 1.423-.474C8.278 3.962 7.329 3.25 6 3.25c-1.329 0-2.278.712-2.711 2.013a.75.75 0 0 0 .474.949ZM15.763 6.212a.75.75 0 0 0 .949-.475c.233-.699.617-.987 1.288-.987s1.055.288 1.288.987a.75.75 0 1 0 1.424-.474C20.277 3.962 19.329 3.25 18 3.25c-1.329 0-2.278.712-2.711 2.013a.75.75 0 0 0 .474.949Z"/></g></g><g transform="translate(2 2)"><path fill-rule="evenodd" clip-rule="evenodd" d="M16.969 25.546 19.668 17H18a3 3 0 0 0-2.983 3.314l.65 6.186c.596 0 1.123-.386 1.302-.954ZM41.335 17h-1.667l2.699 8.546c.179.568.705.954 1.3.954l.652-6.186A3 3 0 0 0 41.335 17Z" fill="rgba(225, 99, 129, 1)"/><g style="mix-blend-mode:overlay" opacity=".198" fill="#fff"><path d="M26.75 15a.75.75 0 1 0 0-1.5.75.75 0 0 0 0 1.5ZM19.38 21.774a.75.75 0 0 0 1.006-.336c.573-1.15 1.24-2.17 2.002-3.063a10.357 10.357 0 0 1 2.623-2.205.75.75 0 0 0-.765-1.29 11.86 11.86 0 0 0-3 2.522 16.553 16.553 0 0 0-2.202 3.366.75.75 0 0 0 .336 1.006Z"/></g></g><g transform="translate(11 44)"><path d="M32 20H10v-8a11 11 0 0 1 6-9.8V4a5 5 0 0 0 10 0V2.2a11 11 0 0 1 6 9.8v8Z" fill="rgba(117, 85, 202, 1)"/><mask id="bodySmall-a" style="mask-type:alpha" maskUnits="userSpaceOnUse" x="10" y="2" width="22" height="18"><path d="M32 20H10v-8a11 11 0 0 1 6-9.8V4a5 5 0 0 0 10 0V2.2a11 11 0 0 1 6 9.8v8Z" fill="#fff"/></mask><g mask="url(#bodySmall-a)"><path opacity=".136" d="M20.617 8.25 22 8l1.207.5L10 15l10.617-6.75Z" fill="#000"/><path d="M21 1h11v47H10V15l13.345-6.578L21 1Z" fill="#fff" style="mix-blend-mode:overlay" opacity=".261"/></g></g><g transform="translate(23 36)"><path d="M6 3h6v1a3 3 0 0 1-6 0V3Z" fill="#fff"/></g><g><g transform="translate(24 28)"><path d="M5.289 6.237a.75.75 0 1 1 1.423-.474c.233.699.617.987 1.288.987s1.056-.288 1.289-.987a.75.75 0 1 1 1.422.474C10.278 7.538 9.33 8.25 8 8.25s-2.278-.712-2.711-2.013Z" fill="#000" style="mix-blend-mode:overlay" opacity=".36"/></g></g><g><g transform="translate(14 26)"><path d="M10 14a5 5 0 0 1 5-5h6a5 5 0 0 1 5 5H10Z" fill="rgba(225, 99, 129, 1)"/></g></g></g></svg>