<svg xmlns:dc="http://purl.org/dc/elements/1.1/" xmlns:cc="http://creativecommons.org/ns#" xmlns:rdf="http://www.w3.org/1999/02/22-rdf-syntax-ns#" xmlns:svg="http://www.w3.org/2000/svg" xmlns="http://www.w3.org/2000/svg" viewBox="0 0 64 64" fill="none"><metadata><rdf:RDF><cc:Work><dc:format>image/svg+xml</dc:format><dc:type rdf:resource="http://purl.org/dc/dcmitype/StillImage"/><dc:title>Personas by Draftbit</dc:title><dc:creator><cc:Agent><dc:title>Draftbit - draftbit.com</dc:title></cc:Agent></dc:creator><dc:source>https://personas.draftbit.com/</dc:source><cc:license rdf:resource="https://creativecommons.org/licenses/by/4.0/"/></cc:Work><cc:License rdf:about="https://creativecommons.org/licenses/by/4.0/"><cc:permits rdf:resource="https://creativecommons.org/ns#Reproduction"/><cc:permits rdf:resource="https://creativecommons.org/ns#Distribution"/><cc:permits rdf:resource="https://creativecommons.org/ns#DerivativeWorks"/><cc:requires rdf:resource="https://creativecommons.org/ns#Notice"/><cc:requires rdf:resource="https://creativecommons.org/ns#Attribution"/></cc:License></rdf:RDF></metadata><mask id="avatarsRadiusMask"><rect width="64" height="64" rx="0" ry="0" x="0" y="0" fill="#fff"/></mask><g mask="url(#avatarsRadiusMask)"><path d="M37 46.08V52a5 5 0 0 1-10 0v-5.92A14.035 14.035 0 0 1 18.58 37h-.08a4.5 4.5 0 0 1-.5-8.973V27c0-7.732 6.268-14 14-14s14 6.268 14 14v1.027A4.5 4.5 0 0 1 45.42 37 14.035 14.035 0 0 1 37 46.081Z" fill="rgba(238, 180, 164, 1)"/><mask id="personas-a" style="mask-type:alpha" maskUnits="userSpaceOnUse" x="14" y="13" width="36" height="44"><path d="M37 46.08V52a5 5 0 0 1-10 0v-5.92A14.035 14.035 0 0 1 18.58 37h-.08a4.5 4.5 0 0 1-.5-8.973V27c0-7.732 6.268-14 14-14s14 6.268 14 14v1.027A4.5 4.5 0 0 1 45.42 37 14.035 14.035 0 0 1 37 46.081Z" fill="#fff"/></mask><g mask="url(#personas-a)"><path d="M32 13c7.732 0 14 6.268 14 14v6c0 7.732-6.268 14-14 14s-14-6.268-14-14v-6c0-7.732 6.268-14 14-14Z" fill="#fff" style="mix-blend-mode:overlay" opacity=".364"/></g><g transform="translate(20 24)"><g fill="#1B0640"><path d="M3.763 6.212a.75.75 0 0 0 .949-.475c.233-.699.617-.987 1.288-.987s1.056.288 1.289.987a.75.75 0 1 0 1.423-.474C8.278 3.962 7.329 3.25 6 3.25c-1.329 0-2.278.712-2.711 2.013a.75.75 0 0 0 .474.949ZM15.763 6.212a.75.75 0 0 0 .949-.475c.233-.699.617-.987 1.288-.987s1.055.288 1.288.987a.75.75 0 1 0 1.424-.474C20.277 3.962 19.329 3.25 18 3.25c-1.329 0-2.278.712-2.711 2.013a.75.75 0 0 0 .474.949Z"/></g></g><g transform="translate(2 2)"><path d="M16.996 19.804C19.059 14.644 24.104 11 30 11s10.94 3.645 13.004 8.804l.236.192a1 1 0 0 1 .337.54l.627 2.64a.5.5 0 0 1-.774.523C38.989 20.566 34.512 19 30 19c-4.513 0-8.985 1.567-13.416 4.702a.5.5 0 0 1-.776-.522l.616-2.64a1 1 0 0 1 .338-.546l.234-.19Z" fill="#E15C66"/><path d="M30 15c6.45 0 12.012 4.045 13.245 5.008a.933.933 0 0 1 .331.525l.619 2.602c.109.458-.43.824-.823.566C41.055 22.175 35.563 19 30 19c-5.566 0-11.05 3.179-13.359 4.703-.392.259-.93-.105-.824-.562l.608-2.605a.934.934 0 0 1 .331-.53C17.994 19.04 23.554 15 30 15Z" fill="#000" style="mix-blend-mode:overlay" opacity=".255"/></g><g transform="translate(11 44)"><path d="M16 5v3a5 5 0 0 0 10 0V5l6.647 2.045A9 9 0 0 1 39 15.647V20H3v-4.353a9 9 0 0 1 6.353-8.602L16 5Z" fill="rgba(109, 187, 88, 1)"/><mask id="bodyCheckered-a" style="mask-type:alpha" maskUnits="userSpaceOnUse" x="3" y="5" width="36" height="15"><path d="M16 5v3a5 5 0 0 0 10 0V5l6.647 2.045A9 9 0 0 1 39 15.647V20H3v-4.353a9 9 0 0 1 6.353-8.602L16 5Z" fill="#fff"/></mask><g mask="url(#bodyCheckered-a)"><path fill-rule="evenodd" clip-rule="evenodd" d="M7 20h4V6.538l-1.647.507A8.99 8.99 0 0 0 7 8.163V20ZM32.647 7.045 31 6.538V20h4V8.163a8.99 8.99 0 0 0-2.353-1.118ZM23 20h4v-8.392a7.017 7.017 0 0 1-4 3.102V20Zm-4 0h-4v-8.392a7.017 7.017 0 0 0 4 3.102V20Z" fill="#000" style="mix-blend-mode:overlay" opacity=".404"/></g><g style="mix-blend-mode:lighten" opacity=".18" fill="#fff"><path d="M3.397 13a9.014 9.014 0 0 1 2.535-4h8.139a6.982 6.982 0 0 0 2.03 4H3.397ZM39 17v3H3v-3h36ZM36.068 9a9.014 9.014 0 0 1 2.535 4H25.899a6.982 6.982 0 0 0 2.03-4h8.14Z"/></g><mask id="bodyCheckered-b" style="mask-type:alpha" maskUnits="userSpaceOnUse" x="3" y="9" width="36" height="11"><g style="mix-blend-mode:lighten" fill="#fff"><path d="M3.397 13a9.014 9.014 0 0 1 2.535-4h8.139a6.982 6.982 0 0 0 2.03 4H3.397ZM39 17v3H3v-3h36ZM36.068 9a9.014 9.014 0 0 1 2.535 4H25.899a6.982 6.982 0 0 0 2.03-4h8.14Z"/></g></mask></g><g transform="translate(23 36)"><path d="M5 5h8s-1 2.5-4 2.5S5 5 5 5Z" fill="#DC5C7A"/><path d="M5.388 4.225C6.106 2.788 8.108 2.663 9 4c.891-1.337 2.894-1.212 3.613.225L13 5H5l.388-.775Z" fill="#F57B98"/></g><g><g transform="translate(24 28)"><path opacity=".119" fill-rule="evenodd" clip-rule="evenodd" d="M11.721 5.294c.21.736.273 1.39.195 1.955.349.543.643 1.041.883 1.493.447.843.86 1.817 1.238 2.92a.5.5 0 1 0 .946-.324 21.232 21.232 0 0 0-1.3-3.065c-.473-.89-1.137-1.934-1.996-3.135a.499.499 0 0 0-.099-.104c.06.075.105.162.133.26Zm-7.442 0a.748.748 0 0 1 .115-.237.502.502 0 0 0-.071.08C3.464 6.34 2.799 7.384 2.328 8.274a21.224 21.224 0 0 0-1.301 3.065.5.5 0 0 0 .946.324 20.24 20.24 0 0 1 1.238-2.92c.238-.448.53-.942.875-1.48-.08-.568-.019-1.227.193-1.968Z" fill="#000"/><path d="M5.206 4.779a.75.75 0 0 0-.927.515c-.212.741-.274 1.4-.193 1.968C4.314 8.866 5.68 9.75 8 9.75c2.328 0 3.693-.888 3.916-2.501.078-.565.015-1.22-.195-1.955a.749.749 0 0 0-.927-.515.75.75 0 0 0-.515.927C10.802 7.536 10.19 8.25 8 8.25s-2.802-.713-2.279-2.544a.75.75 0 0 0-.515-.927Z" fill="#000" style="mix-blend-mode:overlay" opacity=".36"/></g></g><g><g transform="translate(14 26)"><path d="m12.473 9.458 2.423-.827A2.504 2.504 0 0 1 18 10.001a2.504 2.504 0 0 1 3.104-1.37l2.423.827c3.466-1.33 6.425-3.817 8.47-6.756C31.999 2.8 32 2.9 32 3v6c0 7.732-6.268 14-14 14S4 16.732 4 9V3c0-.1.001-.2.003-.298 2.045 2.94 5.004 5.425 8.47 6.756Z" fill="rgba(242, 125, 101, 1)"/><mask id="facialHairBeardMustache-a" style="mask-type:alpha" maskUnits="userSpaceOnUse" x="4" y="2" width="28" height="21"><path d="m12.473 9.458 2.423-.827A2.504 2.504 0 0 1 18 10.001a2.504 2.504 0 0 1 3.104-1.37l2.423.827c3.466-1.33 6.425-3.817 8.47-6.756C31.999 2.8 32 2.9 32 3v6c0 7.732-6.268 14-14 14S4 16.732 4 9V3c0-.1.001-.2.003-.298 2.045 2.94 5.004 5.425 8.47 6.756Z" fill="#fff"/></mask><g mask="url(#facialHairBeardMustache-a)"><path d="M32 9V3c0-.1-.001-.2-.003-.298-2.045 2.94-5.004 5.425-8.47 6.756l2.812.96a1 1 0 0 1-.075 1.915l-5.081 1.3A2.715 2.715 0 0 1 18 12.046a2.718 2.718 0 0 1-3.183 1.587l-5.081-1.3a1 1 0 0 1-.075-1.916l2.812-.96c-3.466-1.33-6.425-3.816-8.47-6.755C4.001 2.8 4 2.9 4 3v6c0 7.732 6.268 14 14 14s14-6.268 14-14Z" fill="#fff" style="mix-blend-mode:overlay" opacity=".26"/><path d="M22 13.424v.076a3 3 0 0 1-3 3h-2a3 3 0 0 1-3-3.076l.817.209A2.715 2.715 0 0 0 18 12.046a2.718 2.718 0 0 0 3.183 1.587l.816-.209Z" fill="#FFFEFD"/></g></g></g></g></svg>