<svg xmlns:dc="http://purl.org/dc/elements/1.1/" xmlns:cc="http://creativecommons.org/ns#" xmlns:rdf="http://www.w3.org/1999/02/22-rdf-syntax-ns#" xmlns:svg="http://www.w3.org/2000/svg" xmlns="http://www.w3.org/2000/svg" viewBox="0 0 64 64" fill="none"><metadata><rdf:RDF><cc:Work><dc:format>image/svg+xml</dc:format><dc:type rdf:resource="http://purl.org/dc/dcmitype/StillImage"/><dc:title>Personas by Draftbit</dc:title><dc:creator><cc:Agent><dc:title>Draftbit - draftbit.com</dc:title></cc:Agent></dc:creator><dc:source>https://personas.draftbit.com/</dc:source><cc:license rdf:resource="https://creativecommons.org/licenses/by/4.0/"/></cc:Work><cc:License rdf:about="https://creativecommons.org/licenses/by/4.0/"><cc:permits rdf:resource="https://creativecommons.org/ns#Reproduction"/><cc:permits rdf:resource="https://creativecommons.org/ns#Distribution"/><cc:permits rdf:resource="https://creativecommons.org/ns#DerivativeWorks"/><cc:requires rdf:resource="https://creativecommons.org/ns#Notice"/><cc:requires rdf:resource="https://creativecommons.org/ns#Attribution"/></cc:License></rdf:RDF></metadata><mask id="avatarsRadiusMask"><rect width="64" height="64" rx="0" ry="0" x="0" y="0" fill="#fff"/></mask><g mask="url(#avatarsRadiusMask)"><path d="M37 46.08V52a5 5 0 0 1-10 0v-5.92A14.035 14.035 0 0 1 18.58 37h-.08a4.5 4.5 0 0 1-.5-8.973V27c0-7.732 6.268-14 14-14s14 6.268 14 14v1.027A4.5 4.5 0 0 1 45.42 37 14.035 14.035 0 0 1 37 46.081Z" fill="rgba(146, 89, 75, 1)"/><mask id="personas-a" style="mask-type:alpha" maskUnits="userSpaceOnUse" x="14" y="13" width="36" height="44"><path d="M37 46.08V52a5 5 0 0 1-10 0v-5.92A14.035 14.035 0 0 1 18.58 37h-.08a4.5 4.5 0 0 1-.5-8.973V27c0-7.732 6.268-14 14-14s14 6.268 14 14v1.027A4.5 4.5 0 0 1 45.42 37 14.035 14.035 0 0 1 37 46.081Z" fill="#fff"/></mask><g mask="url(#personas-a)"><path d="M32 13c7.732 0 14 6.268 14 14v6c0 7.732-6.268 14-14 14s-14-6.268-14-14v-6c0-7.732 6.268-14 14-14Z" fill="#fff" style="mix-blend-mode:overlay" opacity=".364"/></g><g transform="translate(20 24)"><g fill="#1B0640"><path d="M4 4.5a1.5 1.5 0 1 0 3 0 1.5 1.5 0 0 0-3 0ZM21.244 3.907a.75.75 0 0 0-.837-.651l-4 .5a.75.75 0 0 0 .186 1.488l4-.5a.75.75 0 0 0 .651-.837Z"/></g></g><g transform="translate(2 2)"><path d="m44 26-.021-.023a2 2 0 0 1-2.104-2.855 2 2 0 0 1-2.729-2.095 2 2 0 0 1-3.303.553l-.012.005v.042a2 2 0 0 1-3.753.965 2 2 0 0 1-3.921.333 2 2 0 0 1-3.865-.598l-.131-.022a1.999 1.999 0 0 1-3.676-.982 20.23 20.23 0 0 1-.83-.325 2 2 0 0 1-2.725 2.123 2 2 0 0 1-.93 2.68v.226A4.5 4.5 0 0 0 16.58 35 14.035 14.035 0 0 0 25 44.081v3.062a3.484 3.484 0 0 1-.651-.68 20.64 20.64 0 0 1-1.431-.46 3.46 3.46 0 0 1-2.719-.138 3.46 3.46 0 0 1-1.816-2.166 20.899 20.899 0 0 1-.987-.707 3.462 3.462 0 0 1-2.742-.912 3.464 3.464 0 0 1-1.087-2.877 20.74 20.74 0 0 1-.495-.661 3.465 3.465 0 0 1-2.604-1.712 3.467 3.467 0 0 1-.062-3.358 20.8 20.8 0 0 1-.136-.39 3.47 3.47 0 0 1-1.077-5.965v-.009a3.47 3.47 0 0 1 .471-6.196 3.47 3.47 0 0 1 2.272-5.788 3.47 3.47 0 0 1 3.876-4.862A3.47 3.47 0 0 1 20.95 6.76a3.47 3.47 0 0 1 5.941-1.833 3.47 3.47 0 0 1 6.218 0A3.47 3.47 0 0 1 39.05 6.76a3.47 3.47 0 0 1 5.138 3.502 3.47 3.47 0 0 1 3.876 4.862 3.47 3.47 0 0 1 2.272 5.788 3.47 3.47 0 0 1 .471 6.196v.01a3.47 3.47 0 0 1-1.077 5.965c-.044.13-.09.26-.136.389a3.467 3.467 0 0 1-.062 3.358 3.465 3.465 0 0 1-2.604 1.712c-.16.224-.326.444-.495.661a3.464 3.464 0 0 1-1.087 2.877 3.462 3.462 0 0 1-2.742.912c-.322.245-.651.48-.987.707a3.46 3.46 0 0 1-1.816 2.166 3.46 3.46 0 0 1-2.719.138c-.469.17-.946.324-1.43.46a3.484 3.484 0 0 1-.652.68v-3.062a14.035 14.035 0 0 0 8.42-9.082l.08.001a4.5 4.5 0 0 0 .5-8.973V26Z" fill="rgba(222, 225, 245, 1)"/><mask id="hairCurly-a" style="mask-type:alpha" maskUnits="userSpaceOnUse" x="7" y="3" width="46" height="45"><path d="m44 26-.021-.023a2 2 0 0 1-2.104-2.855 2 2 0 0 1-2.729-2.095 2 2 0 0 1-3.303.553l-.012.005v.042a2 2 0 0 1-3.753.965 2 2 0 0 1-3.921.333 2 2 0 0 1-3.865-.598l-.131-.022a1.999 1.999 0 0 1-3.676-.982 20.23 20.23 0 0 1-.83-.325 2 2 0 0 1-2.725 2.123 2 2 0 0 1-.93 2.68v.226A4.5 4.5 0 0 0 16.58 35 14.035 14.035 0 0 0 25 44.081v3.062a3.484 3.484 0 0 1-.651-.68 20.64 20.64 0 0 1-1.431-.46 3.46 3.46 0 0 1-2.719-.138 3.46 3.46 0 0 1-1.816-2.166 20.899 20.899 0 0 1-.987-.707 3.462 3.462 0 0 1-2.742-.912 3.464 3.464 0 0 1-1.087-2.877 20.74 20.74 0 0 1-.495-.661 3.465 3.465 0 0 1-2.604-1.712 3.467 3.467 0 0 1-.062-3.358 20.8 20.8 0 0 1-.136-.39 3.47 3.47 0 0 1-1.077-5.965v-.009a3.47 3.47 0 0 1 .471-6.196 3.47 3.47 0 0 1 2.272-5.788 3.47 3.47 0 0 1 3.876-4.862A3.47 3.47 0 0 1 20.95 6.76a3.47 3.47 0 0 1 5.941-1.833 3.47 3.47 0 0 1 6.218 0A3.47 3.47 0 0 1 39.05 6.76a3.47 3.47 0 0 1 5.138 3.502 3.47 3.47 0 0 1 3.876 4.862 3.47 3.47 0 0 1 2.272 5.788 3.47 3.47 0 0 1 .471 6.196v.01a3.47 3.47 0 0 1-1.077 5.965c-.044.13-.09.26-.136.389a3.467 3.467 0 0 1-.062 3.358 3.465 3.465 0 0 1-2.604 1.712c-.16.224-.326.444-.495.661a3.464 3.464 0 0 1-1.087 2.877 3.462 3.462 0 0 1-2.742.912c-.322.245-.651.48-.987.707a3.46 3.46 0 0 1-1.816 2.166 3.46 3.46 0 0 1-2.719.138c-.469.17-.946.324-1.43.46a3.484 3.484 0 0 1-.652.68v-3.062a14.035 14.035 0 0 0 8.42-9.082l.08.001a4.5 4.5 0 0 0 .5-8.973V26Z" fill="#fff"/></mask><g mask="url(#hairCurly-a)"><path fill="#fff" d="M7 3h46v44H7z" style="mix-blend-mode:overlay" opacity=".259"/></g></g><g transform="translate(11 44)"><path d="M16 5v3a5 5 0 0 0 10 0V5l6.647 2.045A9 9 0 0 1 39 15.647V20H3v-4.353a9 9 0 0 1 6.353-8.602L16 5Z" fill="rgba(69, 109, 255, 1)"/></g><g transform="translate(23 36)"><path d="M5.004 4.132a1 1 0 1 0 .992 1.736C7.016 5.285 8.014 5 9 5c.986 0 1.983.285 3.004.868a1 1 0 1 0 .992-1.736C11.684 3.382 10.348 3 9 3c-1.348 0-2.684.382-3.996 1.132Z" fill="#1B0640"/></g><g><g transform="translate(24 28)"><path opacity=".119" fill-rule="evenodd" clip-rule="evenodd" d="M11.721 5.294c.21.736.273 1.39.195 1.955.349.543.643 1.041.883 1.493.447.843.86 1.817 1.238 2.92a.5.5 0 1 0 .946-.324 21.232 21.232 0 0 0-1.3-3.065c-.473-.89-1.137-1.934-1.996-3.135a.499.499 0 0 0-.099-.104c.06.075.105.162.133.26Zm-7.442 0a.748.748 0 0 1 .115-.237.502.502 0 0 0-.071.08C3.464 6.34 2.799 7.384 2.328 8.274a21.224 21.224 0 0 0-1.301 3.065.5.5 0 0 0 .946.324 20.24 20.24 0 0 1 1.238-2.92c.238-.448.53-.942.875-1.48-.08-.568-.019-1.227.193-1.968Z" fill="#000"/><path d="M5.206 4.779a.75.75 0 0 0-.927.515c-.212.741-.274 1.4-.193 1.968C4.314 8.866 5.68 9.75 8 9.75c2.328 0 3.693-.888 3.916-2.501.078-.565.015-1.22-.195-1.955a.749.749 0 0 0-.927-.515.75.75 0 0 0-.515.927C10.802 7.536 10.19 8.25 8 8.25s-2.802-.713-2.279-2.544a.75.75 0 0 0-.515-.927Z" fill="#000" style="mix-blend-mode:overlay" opacity=".36"/></g></g><g><g transform="translate(14 26)"><path d="M16 17.5h4l-.684 2.051a1.387 1.387 0 0 1-2.632 0L16 17.5Z" fill="rgba(222, 225, 245, 1)"/></g></g></g></svg>