<svg xmlns:dc="http://purl.org/dc/elements/1.1/" xmlns:cc="http://creativecommons.org/ns#" xmlns:rdf="http://www.w3.org/1999/02/22-rdf-syntax-ns#" xmlns:svg="http://www.w3.org/2000/svg" xmlns="http://www.w3.org/2000/svg" viewBox="0 0 64 64" fill="none"><metadata><rdf:RDF><cc:Work><dc:format>image/svg+xml</dc:format><dc:type rdf:resource="http://purl.org/dc/dcmitype/StillImage"/><dc:title>Personas by Draftbit</dc:title><dc:creator><cc:Agent><dc:title>Draftbit - draftbit.com</dc:title></cc:Agent></dc:creator><dc:source>https://personas.draftbit.com/</dc:source><cc:license rdf:resource="https://creativecommons.org/licenses/by/4.0/"/></cc:Work><cc:License rdf:about="https://creativecommons.org/licenses/by/4.0/"><cc:permits rdf:resource="https://creativecommons.org/ns#Reproduction"/><cc:permits rdf:resource="https://creativecommons.org/ns#Distribution"/><cc:permits rdf:resource="https://creativecommons.org/ns#DerivativeWorks"/><cc:requires rdf:resource="https://creativecommons.org/ns#Notice"/><cc:requires rdf:resource="https://creativecommons.org/ns#Attribution"/></cc:License></rdf:RDF></metadata><mask id="avatarsRadiusMask"><rect width="64" height="64" rx="0" ry="0" x="0" y="0" fill="#fff"/></mask><g mask="url(#avatarsRadiusMask)"><path d="M37 46.08V52a5 5 0 0 1-10 0v-5.92A14.035 14.035 0 0 1 18.58 37h-.08a4.5 4.5 0 0 1-.5-8.973V27c0-7.732 6.268-14 14-14s14 6.268 14 14v1.027A4.5 4.5 0 0 1 45.42 37 14.035 14.035 0 0 1 37 46.081Z" fill="rgba(201, 230, 220, 1)"/><mask id="personas-a" style="mask-type:alpha" maskUnits="userSpaceOnUse" x="14" y="13" width="36" height="44"><path d="M37 46.08V52a5 5 0 0 1-10 0v-5.92A14.035 14.035 0 0 1 18.58 37h-.08a4.5 4.5 0 0 1-.5-8.973V27c0-7.732 6.268-14 14-14s14 6.268 14 14v1.027A4.5 4.5 0 0 1 45.42 37 14.035 14.035 0 0 1 37 46.081Z" fill="#fff"/></mask><g mask="url(#personas-a)"><path d="M32 13c7.732 0 14 6.268 14 14v6c0 7.732-6.268 14-14 14s-14-6.268-14-14v-6c0-7.732 6.268-14 14-14Z" fill="#fff" style="mix-blend-mode:overlay" opacity=".364"/></g><g transform="translate(20 24)"><g fill="#1B0640"><path d="M3.632 4.004a1 1 0 0 0 .372 1.364C4.734 5.785 5.486 6 6.25 6s1.517-.215 2.246-.632a1 1 0 0 0-.992-1.736C7.066 3.882 6.652 4 6.25 4s-.816-.118-1.254-.368a1 1 0 0 0-1.364.372ZM15.632 4.004a1 1 0 0 0 .372 1.364c.73.417 1.482.632 2.246.632s1.517-.215 2.246-.632a1 1 0 0 0-.992-1.736c-.438.25-.852.368-1.254.368s-.817-.118-1.254-.368a1 1 0 0 0-1.364.372Z"/></g></g><g transform="translate(2 2)"><path d="M35 11.92c5.263 2.012 9 7.11 9 13.08v1s-1.33-3.104-3.165-4.926c-1.834-1.823-3.335-.694-4.526-2.522C35.117 16.724 35 11.92 35 11.92Z" fill="rgba(242, 125, 101, 1)" opacity=".298"/><g fill="#362C47"><path d="M30.653 23.089c-1.596 1.262-4.393 1.877-7.245 2.504C18.776 26.61 14 27.66 14 31.568V25.5C14 16.387 21.163 9 30 9c4.84 0 5.683 2.647 5.457 6.23-.188 2.99-.617 4.546-4.804 7.859ZM25 47c.072 5.257-4.181 9.551-9.439 9.531L7.5 56.5s4-8.227 5-11.113c.022-.063.043-.13.065-.197a5.623 5.623 0 0 1-2.929.81H8.5s4.091-3.742 5.348-9.687c.101-1.234.152-2.07.152-2.07a4.478 4.478 0 0 0 2.58.756A14.035 14.035 0 0 0 25 44.081V47Z"/></g></g><g transform="translate(11 44)"><path d="M32 20H10v-8a11 11 0 0 1 6-9.8V4a5 5 0 0 0 10 0V2.2a11 11 0 0 1 6 9.8v8Z" fill="rgba(69, 109, 255, 1)"/><mask id="bodySmall-a" style="mask-type:alpha" maskUnits="userSpaceOnUse" x="10" y="2" width="22" height="18"><path d="M32 20H10v-8a11 11 0 0 1 6-9.8V4a5 5 0 0 0 10 0V2.2a11 11 0 0 1 6 9.8v8Z" fill="#fff"/></mask><g mask="url(#bodySmall-a)"><path opacity=".136" d="M20.617 8.25 22 8l1.207.5L10 15l10.617-6.75Z" fill="#000"/><path d="M21 1h11v47H10V15l13.345-6.578L21 1Z" fill="#fff" style="mix-blend-mode:overlay" opacity=".261"/></g></g><g transform="translate(23 36)"><path fill-rule="evenodd" clip-rule="evenodd" d="M9 2a6.611 6.611 0 0 1-2.27-.412A2.035 2.035 0 0 0 4 3.5a3.5 3.5 0 0 0 2.004 3.165 3 3 0 0 0 5.992 0A3.5 3.5 0 0 0 14 3.5a2.035 2.035 0 0 0-2.73-1.912A6.61 6.61 0 0 1 9 2ZM7.585 7h2.83a1.5 1.5 0 0 1-2.83 0Z" fill="#456DFF"/><path fill-rule="evenodd" clip-rule="evenodd" d="M12 6.5c0 .055-.002.11-.005.165A3.5 3.5 0 0 0 14 3.5a2.035 2.035 0 0 0-2.73-1.912A6.61 6.61 0 0 1 9 2a6.611 6.611 0 0 1-2.27-.412A2.035 2.035 0 0 0 4 3.5a3.5 3.5 0 0 0 2.004 3.165A3 3 0 1 1 12 6.5ZM7.585 7h2.83a1.5 1.5 0 1 0-2.83 0Z" fill="#fff" fill-opacity=".26" style="mix-blend-mode:lighten"/><circle cx="9" cy="4.5" r="1.5" fill="#fff"/></g><g><g transform="translate(24 28)"><path opacity=".119" fill-rule="evenodd" clip-rule="evenodd" d="M11.721 5.294c.21.736.273 1.39.195 1.955.349.543.643 1.041.883 1.493.447.843.86 1.817 1.238 2.92a.5.5 0 1 0 .946-.324 21.232 21.232 0 0 0-1.3-3.065c-.473-.89-1.137-1.934-1.996-3.135a.499.499 0 0 0-.099-.104c.06.075.105.162.133.26Zm-7.442 0a.748.748 0 0 1 .115-.237.502.502 0 0 0-.071.08C3.464 6.34 2.799 7.384 2.328 8.274a21.224 21.224 0 0 0-1.301 3.065.5.5 0 0 0 .946.324 20.24 20.24 0 0 1 1.238-2.92c.238-.448.53-.942.875-1.48-.08-.568-.019-1.227.193-1.968Z" fill="#000"/><path d="M5.206 4.779a.75.75 0 0 0-.927.515c-.212.741-.274 1.4-.193 1.968C4.314 8.866 5.68 9.75 8 9.75c2.328 0 3.693-.888 3.916-2.501.078-.565.015-1.22-.195-1.955a.749.749 0 0 0-.927-.515.75.75 0 0 0-.515.927C10.802 7.536 10.19 8.25 8 8.25s-2.802-.713-2.279-2.544a.75.75 0 0 0-.515-.927Z" fill="#000" style="mix-blend-mode:overlay" opacity=".36"/></g></g><g><g transform="translate(14 26)"><path d="M10 14a5 5 0 0 1 5-5h6a5 5 0 0 1 5 5H10Z" fill="rgba(242, 125, 101, 1)"/></g></g></g></svg>