<svg xmlns:dc="http://purl.org/dc/elements/1.1/" xmlns:cc="http://creativecommons.org/ns#" xmlns:rdf="http://www.w3.org/1999/02/22-rdf-syntax-ns#" xmlns:svg="http://www.w3.org/2000/svg" xmlns="http://www.w3.org/2000/svg" viewBox="0 0 64 64" fill="none"><metadata><rdf:RDF><cc:Work><dc:format>image/svg+xml</dc:format><dc:type rdf:resource="http://purl.org/dc/dcmitype/StillImage"/><dc:title>Personas by Draftbit</dc:title><dc:creator><cc:Agent><dc:title>Draftbit - draftbit.com</dc:title></cc:Agent></dc:creator><dc:source>https://personas.draftbit.com/</dc:source><cc:license rdf:resource="https://creativecommons.org/licenses/by/4.0/"/></cc:Work><cc:License rdf:about="https://creativecommons.org/licenses/by/4.0/"><cc:permits rdf:resource="https://creativecommons.org/ns#Reproduction"/><cc:permits rdf:resource="https://creativecommons.org/ns#Distribution"/><cc:permits rdf:resource="https://creativecommons.org/ns#DerivativeWorks"/><cc:requires rdf:resource="https://creativecommons.org/ns#Notice"/><cc:requires rdf:resource="https://creativecommons.org/ns#Attribution"/></cc:License></rdf:RDF></metadata><mask id="avatarsRadiusMask"><rect width="64" height="64" rx="0" ry="0" x="0" y="0" fill="#fff"/></mask><g mask="url(#avatarsRadiusMask)"><path d="M37 46.08V52a5 5 0 0 1-10 0v-5.92A14.035 14.035 0 0 1 18.58 37h-.08a4.5 4.5 0 0 1-.5-8.973V27c0-7.732 6.268-14 14-14s14 6.268 14 14v1.027A4.5 4.5 0 0 1 45.42 37 14.035 14.035 0 0 1 37 46.081Z" fill="rgba(146, 89, 75, 1)"/><mask id="personas-a" style="mask-type:alpha" maskUnits="userSpaceOnUse" x="14" y="13" width="36" height="44"><path d="M37 46.08V52a5 5 0 0 1-10 0v-5.92A14.035 14.035 0 0 1 18.58 37h-.08a4.5 4.5 0 0 1-.5-8.973V27c0-7.732 6.268-14 14-14s14 6.268 14 14v1.027A4.5 4.5 0 0 1 45.42 37 14.035 14.035 0 0 1 37 46.081Z" fill="#fff"/></mask><g mask="url(#personas-a)"><path d="M32 13c7.732 0 14 6.268 14 14v6c0 7.732-6.268 14-14 14s-14-6.268-14-14v-6c0-7.732 6.268-14 14-14Z" fill="#fff" style="mix-blend-mode:overlay" opacity=".364"/></g><g transform="translate(20 24)"><g fill="#1B0640"><path d="M3.632 4.004a1 1 0 0 0 .372 1.364C4.734 5.785 5.486 6 6.25 6s1.517-.215 2.246-.632a1 1 0 0 0-.992-1.736C7.066 3.882 6.652 4 6.25 4s-.816-.118-1.254-.368a1 1 0 0 0-1.364.372ZM15.632 4.004a1 1 0 0 0 .372 1.364c.73.417 1.482.632 2.246.632s1.517-.215 2.246-.632a1 1 0 0 0-.992-1.736c-.438.25-.852.368-1.254.368s-.817-.118-1.254-.368a1 1 0 0 0-1.364.372Z"/></g></g><g transform="translate(2 2)"><path fill-rule="evenodd" clip-rule="evenodd" d="M44 26c-2.177-2.419-3.652-5.54-4.425-9.363-2.252 3.614-5.277 6.235-9.075 7.863-4.667 2-9.5 2.333-14.5 1v.527a4.474 4.474 0 0 0-2 .73V25.5C14 16.387 21.163 9 30 9s16 7.387 16 16.5v1.258a4.474 4.474 0 0 0-2-.73V26Zm-9 21.313v-3.232a14.035 14.035 0 0 0 8.42-9.082l.08.001c.925 0 1.785-.28 2.5-.758V45c-3.113 1.211-6.78 1.982-11 2.313ZM14 45c3.113 1.211 6.78 1.982 11 2.313v-3.232a14.035 14.035 0 0 1-8.42-9.082L16.5 35c-.925 0-1.785-.28-2.5-.758V45Z" fill="rgba(242, 125, 101, 1)"/><mask id="hairBobBangs-a" style="mask-type:alpha" maskUnits="userSpaceOnUse" x="14" y="9" width="32" height="39"><path fill-rule="evenodd" clip-rule="evenodd" d="M44 26c-2.177-2.419-3.652-5.54-4.425-9.363-2.252 3.614-5.277 6.235-9.075 7.863-4.667 2-9.5 2.333-14.5 1v.527a4.474 4.474 0 0 0-2 .73V25.5C14 16.387 21.163 9 30 9s16 7.387 16 16.5v1.258a4.474 4.474 0 0 0-2-.73V26Zm-9 21.313v-3.232a14.035 14.035 0 0 0 8.42-9.082l.08.001c.925 0 1.785-.28 2.5-.758V45c-3.113 1.211-6.78 1.982-11 2.313ZM14 45c3.113 1.211 6.78 1.982 11 2.313v-3.232a14.035 14.035 0 0 1-8.42-9.082L16.5 35c-.925 0-1.785-.28-2.5-.758V45Z" fill="#362C47"/></mask><g mask="url(#hairBobBangs-a)"><path fill="#fff" d="M13 9h34v18H13z" style="mix-blend-mode:overlay" opacity=".259"/></g></g><g transform="translate(11 44)"><path d="M16 5v3a5 5 0 0 0 10 0V5l6.647 2.045A9 9 0 0 1 39 15.647V20H3v-4.353a9 9 0 0 1 6.353-8.602L16 5Z" fill="rgba(109, 187, 88, 1)"/></g><g transform="translate(23 36)"><ellipse cx="9" cy="5" rx="2" ry="2.5" fill="#1B0640"/></g><g><g transform="translate(24 28)"><path d="M4.25 5a.75.75 0 0 1 1.5 0c0 .836.914 1.75 2.25 1.75 1.336 0 2.25-.914 2.25-1.75a.75.75 0 0 1 1.5 0c0 1.664-1.586 3.25-3.75 3.25-2.164 0-3.75-1.586-3.75-3.25Z" fill="#000" style="mix-blend-mode:overlay" opacity=".36"/></g></g><g><g transform="translate(14 26)"><path d="m12.473 9.458 2.423-.827A2.504 2.504 0 0 1 18 10.001a2.504 2.504 0 0 1 3.104-1.37l2.423.827c3.466-1.33 6.425-3.817 8.47-6.756C31.999 2.8 32 2.9 32 3v6c0 7.732-6.268 14-14 14S4 16.732 4 9V3c0-.1.001-.2.003-.298 2.045 2.94 5.004 5.425 8.47 6.756Z" fill="rgba(242, 125, 101, 1)"/><mask id="facialHairBeardMustache-a" style="mask-type:alpha" maskUnits="userSpaceOnUse" x="4" y="2" width="28" height="21"><path d="m12.473 9.458 2.423-.827A2.504 2.504 0 0 1 18 10.001a2.504 2.504 0 0 1 3.104-1.37l2.423.827c3.466-1.33 6.425-3.817 8.47-6.756C31.999 2.8 32 2.9 32 3v6c0 7.732-6.268 14-14 14S4 16.732 4 9V3c0-.1.001-.2.003-.298 2.045 2.94 5.004 5.425 8.47 6.756Z" fill="#fff"/></mask><g mask="url(#facialHairBeardMustache-a)"><path d="M32 9V3c0-.1-.001-.2-.003-.298-2.045 2.94-5.004 5.425-8.47 6.756l2.812.96a1 1 0 0 1-.075 1.915l-5.081 1.3A2.715 2.715 0 0 1 18 12.046a2.718 2.718 0 0 1-3.183 1.587l-5.081-1.3a1 1 0 0 1-.075-1.916l2.812-.96c-3.466-1.33-6.425-3.816-8.47-6.755C4.001 2.8 4 2.9 4 3v6c0 7.732 6.268 14 14 14s14-6.268 14-14Z" fill="#fff" style="mix-blend-mode:overlay" opacity=".26"/><path d="M22 13.424v.076a3 3 0 0 1-3 3h-2a3 3 0 0 1-3-3.076l.817.209A2.715 2.715 0 0 0 18 12.046a2.718 2.718 0 0 0 3.183 1.587l.816-.209Z" fill="#FFFEFD"/></g></g></g></g></svg>