<svg xmlns:dc="http://purl.org/dc/elements/1.1/" xmlns:cc="http://creativecommons.org/ns#" xmlns:rdf="http://www.w3.org/1999/02/22-rdf-syntax-ns#" xmlns:svg="http://www.w3.org/2000/svg" xmlns="http://www.w3.org/2000/svg" viewBox="0 0 64 64" fill="none"><metadata><rdf:RDF><cc:Work><dc:format>image/svg+xml</dc:format><dc:type rdf:resource="http://purl.org/dc/dcmitype/StillImage"/><dc:title>Personas by Draftbit</dc:title><dc:creator><cc:Agent><dc:title>Draftbit - draftbit.com</dc:title></cc:Agent></dc:creator><dc:source>https://personas.draftbit.com/</dc:source><cc:license rdf:resource="https://creativecommons.org/licenses/by/4.0/"/></cc:Work><cc:License rdf:about="https://creativecommons.org/licenses/by/4.0/"><cc:permits rdf:resource="https://creativecommons.org/ns#Reproduction"/><cc:permits rdf:resource="https://creativecommons.org/ns#Distribution"/><cc:permits rdf:resource="https://creativecommons.org/ns#DerivativeWorks"/><cc:requires rdf:resource="https://creativecommons.org/ns#Notice"/><cc:requires rdf:resource="https://creativecommons.org/ns#Attribution"/></cc:License></rdf:RDF></metadata><mask id="avatarsRadiusMask"><rect width="64" height="64" rx="0" ry="0" x="0" y="0" fill="#fff"/></mask><g mask="url(#avatarsRadiusMask)"><path d="M37 46.08V52a5 5 0 0 1-10 0v-5.92A14.035 14.035 0 0 1 18.58 37h-.08a4.5 4.5 0 0 1-.5-8.973V27c0-7.732 6.268-14 14-14s14 6.268 14 14v1.027A4.5 4.5 0 0 1 45.42 37 14.035 14.035 0 0 1 37 46.081Z" fill="rgba(215, 135, 116, 1)"/><mask id="personas-a" style="mask-type:alpha" maskUnits="userSpaceOnUse" x="14" y="13" width="36" height="44"><path d="M37 46.08V52a5 5 0 0 1-10 0v-5.92A14.035 14.035 0 0 1 18.58 37h-.08a4.5 4.5 0 0 1-.5-8.973V27c0-7.732 6.268-14 14-14s14 6.268 14 14v1.027A4.5 4.5 0 0 1 45.42 37 14.035 14.035 0 0 1 37 46.081Z" fill="#fff"/></mask><g mask="url(#personas-a)"><path d="M32 13c7.732 0 14 6.268 14 14v6c0 7.732-6.268 14-14 14s-14-6.268-14-14v-6c0-7.732 6.268-14 14-14Z" fill="#fff" style="mix-blend-mode:overlay" opacity=".364"/></g><g transform="translate(20 24)"><g fill="#1B0640"><path d="M3.763 6.212a.75.75 0 0 0 .949-.475c.233-.699.617-.987 1.288-.987s1.056.288 1.289.987a.75.75 0 1 0 1.423-.474C8.278 3.962 7.329 3.25 6 3.25c-1.329 0-2.278.712-2.711 2.013a.75.75 0 0 0 .474.949ZM15.763 6.212a.75.75 0 0 0 .949-.475c.233-.699.617-.987 1.288-.987s1.055.288 1.288.987a.75.75 0 1 0 1.424-.474C20.277 3.962 19.329 3.25 18 3.25c-1.329 0-2.278.712-2.711 2.013a.75.75 0 0 0 .474.949Z"/></g></g><g transform="translate(2 2)"><mask id="hairFade-b" style="mask-type:alpha" maskUnits="userSpaceOnUse" x="16" y="12" width="28" height="15"><path fill-rule="evenodd" clip-rule="evenodd" d="M16 27v-2c0-5.387 3.042-10.063 7.502-12.404l.007.148c.079 1.68.154 3.293-.4 4.525-.709 1.573-1.786 2.448-2.727 3.212-.217.177-.427.347-.623.519-.7.611-2.436 2.486-3.759 6Zm28 0v-2c0-5.387-3.042-10.063-7.502-12.404l-.007.148c-.079 1.68-.154 3.293.4 4.525.709 1.573 1.785 2.448 2.727 3.212.217.177.427.347.623.519.7.611 2.437 2.486 3.759 6Z" fill="url(#hairFade-a)"/></mask><g mask="url(#hairFade-b)"><path fill-rule="evenodd" clip-rule="evenodd" d="m16 27-.205-14.404h7.707L23.564 27H16Zm20.719 0H44l-.066-14.404h-7.436L36.718 27Z" fill="rgba(242, 125, 101, 1)"/></g><path d="M22.297 17.946a7.025 7.025 0 0 1 6.312-6.988L38 10a6.838 6.838 0 0 1-6.487 9h-8.162a1.054 1.054 0 0 1-1.054-1.054Z" fill="rgba(242, 125, 101, 1)"/><defs><linearGradient id="hairFade-a" x1="16" y1="12.596" x2="16" y2="27" gradientUnits="userSpaceOnUse"><stop/><stop offset="1" stop-opacity=".01"/></linearGradient></defs></g><g transform="translate(11 44)"><path d="M16 7v.47a5 5 0 1 0 10 0V7c7.063 1.523 12.93 6.735 16 13H0C3.07 13.735 8.937 8.523 16 7Z" fill="rgba(84, 215, 199, 1)"/></g><g transform="translate(23 36)"><path d="M5 5h8s-1 2.5-4 2.5S5 5 5 5Z" fill="#DC5C7A"/><path d="M5.388 4.225C6.106 2.788 8.108 2.663 9 4c.891-1.337 2.894-1.212 3.613.225L13 5H5l.388-.775Z" fill="#F57B98"/></g><g><g transform="translate(24 28)"><path d="M5.289 6.237a.75.75 0 1 1 1.423-.474c.233.699.617.987 1.288.987s1.056-.288 1.289-.987a.75.75 0 1 1 1.422.474C10.278 7.538 9.33 8.25 8 8.25s-2.278-.712-2.711-2.013Z" fill="#000" style="mix-blend-mode:overlay" opacity=".36"/></g></g><g><g transform="translate(14 26)"><path d="M18.017 12.05a2.718 2.718 0 0 1-3.183 1.587l-5.082-1.3a1 1 0 0 1-.075-1.916l5.235-1.786a2.504 2.504 0 0 1 3.104 1.37 2.504 2.504 0 0 1 3.105-1.37l5.235 1.786a1 1 0 0 1-.075 1.915l-5.082 1.3a2.718 2.718 0 0 1-3.183-1.587Z" fill="rgba(242, 125, 101, 1)"/></g></g></g></svg>