<svg xmlns:dc="http://purl.org/dc/elements/1.1/" xmlns:cc="http://creativecommons.org/ns#" xmlns:rdf="http://www.w3.org/1999/02/22-rdf-syntax-ns#" xmlns:svg="http://www.w3.org/2000/svg" xmlns="http://www.w3.org/2000/svg" viewBox="0 0 64 64" fill="none"><metadata><rdf:RDF><cc:Work><dc:format>image/svg+xml</dc:format><dc:type rdf:resource="http://purl.org/dc/dcmitype/StillImage"/><dc:title>Personas by Draftbit</dc:title><dc:creator><cc:Agent><dc:title>Draftbit - draftbit.com</dc:title></cc:Agent></dc:creator><dc:source>https://personas.draftbit.com/</dc:source><cc:license rdf:resource="https://creativecommons.org/licenses/by/4.0/"/></cc:Work><cc:License rdf:about="https://creativecommons.org/licenses/by/4.0/"><cc:permits rdf:resource="https://creativecommons.org/ns#Reproduction"/><cc:permits rdf:resource="https://creativecommons.org/ns#Distribution"/><cc:permits rdf:resource="https://creativecommons.org/ns#DerivativeWorks"/><cc:requires rdf:resource="https://creativecommons.org/ns#Notice"/><cc:requires rdf:resource="https://creativecommons.org/ns#Attribution"/></cc:License></rdf:RDF></metadata><mask id="avatarsRadiusMask"><rect width="64" height="64" rx="0" ry="0" x="0" y="0" fill="#fff"/></mask><g mask="url(#avatarsRadiusMask)"><path d="M37 46.08V52a5 5 0 0 1-10 0v-5.92A14.035 14.035 0 0 1 18.58 37h-.08a4.5 4.5 0 0 1-.5-8.973V27c0-7.732 6.268-14 14-14s14 6.268 14 14v1.027A4.5 4.5 0 0 1 45.42 37 14.035 14.035 0 0 1 37 46.081Z" fill="rgba(231, 163, 145, 1)"/><mask id="personas-a" style="mask-type:alpha" maskUnits="userSpaceOnUse" x="14" y="13" width="36" height="44"><path d="M37 46.08V52a5 5 0 0 1-10 0v-5.92A14.035 14.035 0 0 1 18.58 37h-.08a4.5 4.5 0 0 1-.5-8.973V27c0-7.732 6.268-14 14-14s14 6.268 14 14v1.027A4.5 4.5 0 0 1 45.42 37 14.035 14.035 0 0 1 37 46.081Z" fill="#fff"/></mask><g mask="url(#personas-a)"><path d="M32 13c7.732 0 14 6.268 14 14v6c0 7.732-6.268 14-14 14s-14-6.268-14-14v-6c0-7.732 6.268-14 14-14Z" fill="#fff" style="mix-blend-mode:overlay" opacity=".364"/></g><g transform="translate(20 24)"><g fill="#1B0640"><path d="M6 6a1.5 1.5 0 1 0 0-3 1.5 1.5 0 0 0 0 3ZM18 6a1.5 1.5 0 1 0 0-3 1.5 1.5 0 0 0 0 3Z"/><g opacity=".801"><path d="M9 2H3v6h6V2ZM21 2h-6v6h6V2Z"/></g><path fill-rule="evenodd" clip-rule="evenodd" d="M13 1.053c.655 0 1.214-.2 1.845-.427C15.659.334 16.59 0 18 0c1.667 0 3.333.35 5 1.053l1 .526v1.579l-1 .526v3.158C23 8.586 21.657 10 20 10h-4c-1.657 0-3-1.414-3-3.158V3.158h-2v3.684C11 8.586 9.657 10 8 10H4c-1.657 0-3-1.414-3-3.158V3.684l-1-.526V1.579l1-.526C2.667.35 4.333 0 6 0c1.409 0 2.341.334 3.155.626.63.226 1.19.427 1.845.427h2Zm-4.757 1.47C7.399 2.228 6.818 2.106 6 2.106c-.995 0-1.993.15-3 .45v4.287c0 .581.448 1.053 1 1.053h4c.552 0 1-.472 1-1.053V2.791c-.209-.07-.447-.155-.757-.267ZM15 2.792c.209-.07.447-.155.758-.267.843-.297 1.424-.419 2.242-.419.995 0 1.993.15 3 .45v4.287c0 .581-.448 1.053-1 1.053h-4c-.552 0-1-.472-1-1.053V2.791Z"/></g></g><g transform="translate(2 2)"><path d="M39.001 11.836C39.057 9.156 41.291 7 44.04 7c2.783 0 5.04 2.211 5.04 4.94 0 .079-.003.158-.007.237.018 3.201.708 7.08 1.928 9.823-2.256-.606-4.334-1.62-6.22-2.903A16.67 16.67 0 0 1 46 25.382v1.376a4.474 4.474 0 0 0-2-.73V26c-1.807-2.008-3.13-4.5-3.97-7.474-1.87 2.283-4.547 3.607-8.03 3.974-5.832.614-10.817-.327-14.953-2.822A13.958 13.958 0 0 0 16 25v1.027a4.474 4.474 0 0 0-2 .73v-1.375c0-2.227.434-4.35 1.22-6.285C13.334 20.38 11.256 21.394 9 22c1.22-2.743 1.91-6.622 1.928-9.823a5.045 5.045 0 0 1-.006-.238C10.922 9.211 13.178 7 15.96 7c2.748 0 4.982 2.156 5.038 4.836A15.667 15.667 0 0 1 30 9c3.338 0 6.437 1.046 9.001 2.836Z" fill="rgba(222, 225, 245, 1)"/><path d="M39.013 11.582C43.213 14.545 46 19.767 46 25.714v1.044a4.474 4.474 0 0 0-2-.73V26c-1.807-2.008-3.13-4.5-3.97-7.474-1.87 2.283-4.547 3.607-8.03 3.974-5.832.614-10.817-.327-14.953-2.822A13.958 13.958 0 0 0 16 25v1.027a4.474 4.474 0 0 0-2 .73v-1.043c0-5.947 2.788-11.17 6.987-14.132.006.084.01.169.012.254A15.667 15.667 0 0 1 30 9c3.338 0 6.437 1.046 9.001 2.836.002-.085.006-.17.012-.254Z" fill="#fff" style="mix-blend-mode:overlay" opacity=".259"/><path fill-rule="evenodd" clip-rule="evenodd" d="M21 9a5 5 0 0 0-4.385 7.404c1.806-2.818 4.44-5.031 7.546-6.279A4.98 4.98 0 0 0 21 9Zm23 5a5 5 0 0 0-8.16-3.875c3.106 1.248 5.739 3.46 7.545 6.279A4.978 4.978 0 0 0 44 14Z" fill="#F55D81"/></g><g transform="translate(11 44)"><path d="M32 20H10v-8a11 11 0 0 1 6-9.8V4a5 5 0 0 0 10 0V2.2a11 11 0 0 1 6 9.8v8Z" fill="rgba(117, 85, 202, 1)"/><mask id="bodySmall-a" style="mask-type:alpha" maskUnits="userSpaceOnUse" x="10" y="2" width="22" height="18"><path d="M32 20H10v-8a11 11 0 0 1 6-9.8V4a5 5 0 0 0 10 0V2.2a11 11 0 0 1 6 9.8v8Z" fill="#fff"/></mask><g mask="url(#bodySmall-a)"><path opacity=".136" d="M20.617 8.25 22 8l1.207.5L10 15l10.617-6.75Z" fill="#000"/><path d="M21 1h11v47H10V15l13.345-6.578L21 1Z" fill="#fff" style="mix-blend-mode:overlay" opacity=".261"/></g></g><g transform="translate(23 36)"><path d="M7.318 5.728a.75.75 0 0 1 .364-1.456c2.433.609 4.165.32 5.288-.802a.75.75 0 1 1 1.06 1.06c-1.544 1.545-3.812 1.923-6.712 1.198Z" fill="#1B0640"/></g><g><g transform="translate(24 28)"><path d="M4.25 5a.75.75 0 0 1 1.5 0c0 .836.914 1.75 2.25 1.75 1.336 0 2.25-.914 2.25-1.75a.75.75 0 0 1 1.5 0c0 1.664-1.586 3.25-3.75 3.25-2.164 0-3.75-1.586-3.75-3.25Z" fill="#000" style="mix-blend-mode:overlay" opacity=".36"/></g></g><g><g transform="translate(14 26)"><path opacity=".2" d="M32 3v4c0 7.732-6.268 14-14 14S4 14.732 4 7V3c0-.1.001-.2.003-.298C6.048 5.642 8.535 9.669 12 11c2-1.002 4-1.504 6-1.504s4 .502 6 1.504c3.465-1.33 5.952-5.359 7.997-8.298C31.999 2.8 32 2.9 32 3Z" fill="rgba(222, 225, 245, 1)"/></g></g></g></svg>