<svg xmlns:dc="http://purl.org/dc/elements/1.1/" xmlns:cc="http://creativecommons.org/ns#" xmlns:rdf="http://www.w3.org/1999/02/22-rdf-syntax-ns#" xmlns:svg="http://www.w3.org/2000/svg" xmlns="http://www.w3.org/2000/svg" viewBox="0 0 64 64" fill="none"><metadata><rdf:RDF><cc:Work><dc:format>image/svg+xml</dc:format><dc:type rdf:resource="http://purl.org/dc/dcmitype/StillImage"/><dc:title>Personas by Draftbit</dc:title><dc:creator><cc:Agent><dc:title>Draftbit - draftbit.com</dc:title></cc:Agent></dc:creator><dc:source>https://personas.draftbit.com/</dc:source><cc:license rdf:resource="https://creativecommons.org/licenses/by/4.0/"/></cc:Work><cc:License rdf:about="https://creativecommons.org/licenses/by/4.0/"><cc:permits rdf:resource="https://creativecommons.org/ns#Reproduction"/><cc:permits rdf:resource="https://creativecommons.org/ns#Distribution"/><cc:permits rdf:resource="https://creativecommons.org/ns#DerivativeWorks"/><cc:requires rdf:resource="https://creativecommons.org/ns#Notice"/><cc:requires rdf:resource="https://creativecommons.org/ns#Attribution"/></cc:License></rdf:RDF></metadata><mask id="avatarsRadiusMask"><rect width="64" height="64" rx="0" ry="0" x="0" y="0" fill="#fff"/></mask><g mask="url(#avatarsRadiusMask)"><path d="M37 46.08V52a5 5 0 0 1-10 0v-5.92A14.035 14.035 0 0 1 18.58 37h-.08a4.5 4.5 0 0 1-.5-8.973V27c0-7.732 6.268-14 14-14s14 6.268 14 14v1.027A4.5 4.5 0 0 1 45.42 37 14.035 14.035 0 0 1 37 46.081Z" fill="rgba(238, 180, 164, 1)"/><mask id="personas-a" style="mask-type:alpha" maskUnits="userSpaceOnUse" x="14" y="13" width="36" height="44"><path d="M37 46.08V52a5 5 0 0 1-10 0v-5.92A14.035 14.035 0 0 1 18.58 37h-.08a4.5 4.5 0 0 1-.5-8.973V27c0-7.732 6.268-14 14-14s14 6.268 14 14v1.027A4.5 4.5 0 0 1 45.42 37 14.035 14.035 0 0 1 37 46.081Z" fill="#fff"/></mask><g mask="url(#personas-a)"><path d="M32 13c7.732 0 14 6.268 14 14v6c0 7.732-6.268 14-14 14s-14-6.268-14-14v-6c0-7.732 6.268-14 14-14Z" fill="#fff" style="mix-blend-mode:overlay" opacity=".364"/></g><g transform="translate(20 24)"><path fill-rule="evenodd" clip-rule="evenodd" d="M4 4.5a1.5 1.5 0 1 0 3 0 1.5 1.5 0 0 0-3 0Zm13 0a1.5 1.5 0 1 0 3 0 1.5 1.5 0 0 0-3 0Z" fill="#1B0640"/></g><g transform="translate(2 2)"><path fill-rule="evenodd" clip-rule="evenodd" d="M44 26c-1.807-2.008-3.13-4.5-3.97-7.474-1.87 2.283-4.547 3.607-8.03 3.974-5.832.614-10.817-.327-14.953-2.822A13.958 13.958 0 0 0 16 25v1.027a4.474 4.474 0 0 0-2 .73V25.5C14 16.387 21.163 9 30 9s16 7.387 16 16.5v1.258a4.474 4.474 0 0 0-2-.73V26Zm2 8.242v22.283H35V44.08a14.035 14.035 0 0 0 8.42-9.082l.08.001c.925 0 1.785-.28 2.5-.758ZM14 56.568h11.13s-.079-4.667-.13-7.023v-5.464a14.035 14.035 0 0 1-8.42-9.082L16.5 35c-.925 0-1.785-.28-2.5-.758v22.326Z" fill="rgba(54, 44, 71, 1)"/><mask id="hairExtraLong-a" style="mask-type:alpha" maskUnits="userSpaceOnUse" x="14" y="9" width="32" height="48"><path fill-rule="evenodd" clip-rule="evenodd" d="M44 26c-1.807-2.008-3.13-4.5-3.97-7.474-1.87 2.283-4.547 3.607-8.03 3.974-5.832.614-10.817-.327-14.953-2.822A13.958 13.958 0 0 0 16 25v1.027a4.474 4.474 0 0 0-2 .73V25.5C14 16.387 21.163 9 30 9s16 7.387 16 16.5v1.258a4.474 4.474 0 0 0-2-.73V26Zm2 8.242v22.283H35V44.08a14.035 14.035 0 0 0 8.42-9.082l.08.001c.925 0 1.785-.28 2.5-.758ZM14 56.568h11.13s-.079-4.667-.13-7.023v-5.464a14.035 14.035 0 0 1-8.42-9.082L16.5 35c-.925 0-1.785-.28-2.5-.758v22.326Z" fill="#362C47"/></mask><g mask="url(#hairExtraLong-a)"><path fill="#fff" d="M14 9h32v18H14z" style="mix-blend-mode:overlay" opacity=".258"/></g></g><g transform="translate(11 44)"><path d="M16 7v.47a5 5 0 1 0 10 0V7c7.063 1.523 12.93 6.735 16 13H0C3.07 13.735 8.937 8.523 16 7Z" fill="rgba(226, 69, 83, 1)"/></g><g transform="translate(23 36)"><path d="M5.004 5.868a1 1 0 1 1 .992-1.736C7.016 4.715 8.014 5 9 5c.986 0 1.983-.285 3.004-.868a1 1 0 1 1 .992 1.736C11.684 6.618 10.348 7 9 7c-1.348 0-2.684-.382-3.996-1.132Z" fill="#1B0640"/></g><g><g transform="translate(24 28)"><path opacity=".119" fill-rule="evenodd" clip-rule="evenodd" d="M11.721 5.294c.21.736.273 1.39.195 1.955.349.543.643 1.041.883 1.493.447.843.86 1.817 1.238 2.92a.5.5 0 1 0 .946-.324 21.232 21.232 0 0 0-1.3-3.065c-.473-.89-1.137-1.934-1.996-3.135a.499.499 0 0 0-.099-.104c.06.075.105.162.133.26Zm-7.442 0a.748.748 0 0 1 .115-.237.502.502 0 0 0-.071.08C3.464 6.34 2.799 7.384 2.328 8.274a21.224 21.224 0 0 0-1.301 3.065.5.5 0 0 0 .946.324 20.24 20.24 0 0 1 1.238-2.92c.238-.448.53-.942.875-1.48-.08-.568-.019-1.227.193-1.968Z" fill="#000"/><path d="M5.206 4.779a.75.75 0 0 0-.927.515c-.212.741-.274 1.4-.193 1.968C4.314 8.866 5.68 9.75 8 9.75c2.328 0 3.693-.888 3.916-2.501.078-.565.015-1.22-.195-1.955a.749.749 0 0 0-.927-.515.75.75 0 0 0-.515.927C10.802 7.536 10.19 8.25 8 8.25s-2.802-.713-2.279-2.544a.75.75 0 0 0-.515-.927Z" fill="#000" style="mix-blend-mode:overlay" opacity=".36"/></g></g><g><g transform="translate(14 26)"><path d="M16 17.5h4l-.684 2.051a1.387 1.387 0 0 1-2.632 0L16 17.5Z" fill="rgba(54, 44, 71, 1)"/></g></g></g></svg>