<svg xmlns:dc="http://purl.org/dc/elements/1.1/" xmlns:cc="http://creativecommons.org/ns#" xmlns:rdf="http://www.w3.org/1999/02/22-rdf-syntax-ns#" xmlns:svg="http://www.w3.org/2000/svg" xmlns="http://www.w3.org/2000/svg" viewBox="0 0 64 64" fill="none"><metadata><rdf:RDF><cc:Work><dc:format>image/svg+xml</dc:format><dc:type rdf:resource="http://purl.org/dc/dcmitype/StillImage"/><dc:title>Personas by Draftbit</dc:title><dc:creator><cc:Agent><dc:title>Draftbit - draftbit.com</dc:title></cc:Agent></dc:creator><dc:source>https://personas.draftbit.com/</dc:source><cc:license rdf:resource="https://creativecommons.org/licenses/by/4.0/"/></cc:Work><cc:License rdf:about="https://creativecommons.org/licenses/by/4.0/"><cc:permits rdf:resource="https://creativecommons.org/ns#Reproduction"/><cc:permits rdf:resource="https://creativecommons.org/ns#Distribution"/><cc:permits rdf:resource="https://creativecommons.org/ns#DerivativeWorks"/><cc:requires rdf:resource="https://creativecommons.org/ns#Notice"/><cc:requires rdf:resource="https://creativecommons.org/ns#Attribution"/></cc:License></rdf:RDF></metadata><mask id="avatarsRadiusMask"><rect width="64" height="64" rx="0" ry="0" x="0" y="0" fill="#fff"/></mask><g mask="url(#avatarsRadiusMask)"><path d="M37 46.08V52a5 5 0 0 1-10 0v-5.92A14.035 14.035 0 0 1 18.58 37h-.08a4.5 4.5 0 0 1-.5-8.973V27c0-7.732 6.268-14 14-14s14 6.268 14 14v1.027A4.5 4.5 0 0 1 45.42 37 14.035 14.035 0 0 1 37 46.081Z" fill="rgba(215, 135, 116, 1)"/><mask id="personas-a" style="mask-type:alpha" maskUnits="userSpaceOnUse" x="14" y="13" width="36" height="44"><path d="M37 46.08V52a5 5 0 0 1-10 0v-5.92A14.035 14.035 0 0 1 18.58 37h-.08a4.5 4.5 0 0 1-.5-8.973V27c0-7.732 6.268-14 14-14s14 6.268 14 14v1.027A4.5 4.5 0 0 1 45.42 37 14.035 14.035 0 0 1 37 46.081Z" fill="#fff"/></mask><g mask="url(#personas-a)"><path d="M32 13c7.732 0 14 6.268 14 14v6c0 7.732-6.268 14-14 14s-14-6.268-14-14v-6c0-7.732 6.268-14 14-14Z" fill="#fff" style="mix-blend-mode:overlay" opacity=".364"/></g><g transform="translate(20 24)"><g fill="#1B0640"><path d="M6 6a1.5 1.5 0 1 0 0-3 1.5 1.5 0 0 0 0 3ZM18 6a1.5 1.5 0 1 0 0-3 1.5 1.5 0 0 0 0 3Z"/><g opacity=".801"><path d="M9 2H3v6h6V2ZM21 2h-6v6h6V2Z"/></g><path fill-rule="evenodd" clip-rule="evenodd" d="M13 1.053c.655 0 1.214-.2 1.845-.427C15.659.334 16.59 0 18 0c1.667 0 3.333.35 5 1.053l1 .526v1.579l-1 .526v3.158C23 8.586 21.657 10 20 10h-4c-1.657 0-3-1.414-3-3.158V3.158h-2v3.684C11 8.586 9.657 10 8 10H4c-1.657 0-3-1.414-3-3.158V3.684l-1-.526V1.579l1-.526C2.667.35 4.333 0 6 0c1.409 0 2.341.334 3.155.626.63.226 1.19.427 1.845.427h2Zm-4.757 1.47C7.399 2.228 6.818 2.106 6 2.106c-.995 0-1.993.15-3 .45v4.287c0 .581.448 1.053 1 1.053h4c.552 0 1-.472 1-1.053V2.791c-.209-.07-.447-.155-.757-.267ZM15 2.792c.209-.07.447-.155.758-.267.843-.297 1.424-.419 2.242-.419.995 0 1.993.15 3 .45v4.287c0 .581-.448 1.053-1 1.053h-4c-.552 0-1-.472-1-1.053V2.791Z"/></g></g><g transform="translate(2 2)"><circle cx="30" cy="12" r="4" fill="#5A45FF"/><path fill-rule="evenodd" clip-rule="evenodd" d="M33.724 12.837 33.67 20.5c3.724-.75 5.834-1.25 6.33-1.5 1.333 4.333 2.667 7.333 4 9v-3c0-5.208-2.843-9.751-7.062-12.163-.007-.013-1.078-.013-3.214 0ZM20 19c.496.25 2.607.75 6.33 1.5l.001-7.663h-3.269C18.843 15.25 16 19.792 16 25v3c1.333-1.667 2.667-4.667 4-9Z" fill="rgba(54, 44, 71, 1)" opacity=".303"/><path fill-rule="evenodd" clip-rule="evenodd" d="M30 6c-2.094 0-3.812 2.011-3.986 4.572a11.55 11.55 0 0 0-2.152 1.575 3 3 0 0 0-.964 1.933l-.208 2.199a3.872 3.872 0 0 0 3.016 4.145c1.73.384 3.162.576 4.294.576 1.12 0 2.509-.184 4.168-.552a4 4 0 0 0 3.13-4.085l-.099-2.171a3 3 0 0 0-1.04-2.14 12.097 12.097 0 0 0-2.176-1.512C33.798 7.994 32.085 6 30 6Zm0 3.5c-1.262 0-2.484.301-3.669.903a4.001 4.001 0 0 1 7.324-.03C32.462 9.79 31.244 9.5 30 9.5Z" fill="rgba(54, 44, 71, 1)"/><path d="M26.015 10.56C26.193 8.005 27.91 6 30 6c2.066 0 3.766 1.957 3.978 4.469a10.993 10.993 0 0 0-.354-.165 4 4 0 0 0-7.286.085 9.185 9.185 0 0 0-.323.171Z" fill="#000" style="mix-blend-mode:overlay" opacity=".218"/></g><g transform="translate(11 44)"><path d="M32 20H10v-8a11 11 0 0 1 6-9.8V4a5 5 0 0 0 10 0V2.2a11 11 0 0 1 6 9.8v8Z" fill="rgba(69, 109, 255, 1)"/><mask id="bodySmall-a" style="mask-type:alpha" maskUnits="userSpaceOnUse" x="10" y="2" width="22" height="18"><path d="M32 20H10v-8a11 11 0 0 1 6-9.8V4a5 5 0 0 0 10 0V2.2a11 11 0 0 1 6 9.8v8Z" fill="#fff"/></mask><g mask="url(#bodySmall-a)"><path opacity=".136" d="M20.617 8.25 22 8l1.207.5L10 15l10.617-6.75Z" fill="#000"/><path d="M21 1h11v47H10V15l13.345-6.578L21 1Z" fill="#fff" style="mix-blend-mode:overlay" opacity=".261"/></g></g><g transform="translate(23 36)"><path d="M5.004 5.868a1 1 0 1 1 .992-1.736C7.016 4.715 8.014 5 9 5c.986 0 1.983-.285 3.004-.868a1 1 0 1 1 .992 1.736C11.684 6.618 10.348 7 9 7c-1.348 0-2.684-.382-3.996-1.132Z" fill="#1B0640"/></g><g><g transform="translate(24 28)"><path opacity=".119" fill-rule="evenodd" clip-rule="evenodd" d="M11.721 5.294c.21.736.273 1.39.195 1.955.349.543.643 1.041.883 1.493.447.843.86 1.817 1.238 2.92a.5.5 0 1 0 .946-.324 21.232 21.232 0 0 0-1.3-3.065c-.473-.89-1.137-1.934-1.996-3.135a.499.499 0 0 0-.099-.104c.06.075.105.162.133.26Zm-7.442 0a.748.748 0 0 1 .115-.237.502.502 0 0 0-.071.08C3.464 6.34 2.799 7.384 2.328 8.274a21.224 21.224 0 0 0-1.301 3.065.5.5 0 0 0 .946.324 20.24 20.24 0 0 1 1.238-2.92c.238-.448.53-.942.875-1.48-.08-.568-.019-1.227.193-1.968Z" fill="#000"/><path d="M5.206 4.779a.75.75 0 0 0-.927.515c-.212.741-.274 1.4-.193 1.968C4.314 8.866 5.68 9.75 8 9.75c2.328 0 3.693-.888 3.916-2.501.078-.565.015-1.22-.195-1.955a.749.749 0 0 0-.927-.515.75.75 0 0 0-.515.927C10.802 7.536 10.19 8.25 8 8.25s-2.802-.713-2.279-2.544a.75.75 0 0 0-.515-.927Z" fill="#000" style="mix-blend-mode:overlay" opacity=".36"/></g></g><g><g transform="translate(14 26)"><path d="M16 17.5h4l-.684 2.051a1.387 1.387 0 0 1-2.632 0L16 17.5Z" fill="rgba(54, 44, 71, 1)"/></g></g></g></svg>