<svg xmlns:dc="http://purl.org/dc/elements/1.1/" xmlns:cc="http://creativecommons.org/ns#" xmlns:rdf="http://www.w3.org/1999/02/22-rdf-syntax-ns#" xmlns:svg="http://www.w3.org/2000/svg" xmlns="http://www.w3.org/2000/svg" viewBox="0 0 64 64" fill="none"><metadata><rdf:RDF><cc:Work><dc:format>image/svg+xml</dc:format><dc:type rdf:resource="http://purl.org/dc/dcmitype/StillImage"/><dc:title>Personas by Draftbit</dc:title><dc:creator><cc:Agent><dc:title>Draftbit - draftbit.com</dc:title></cc:Agent></dc:creator><dc:source>https://personas.draftbit.com/</dc:source><cc:license rdf:resource="https://creativecommons.org/licenses/by/4.0/"/></cc:Work><cc:License rdf:about="https://creativecommons.org/licenses/by/4.0/"><cc:permits rdf:resource="https://creativecommons.org/ns#Reproduction"/><cc:permits rdf:resource="https://creativecommons.org/ns#Distribution"/><cc:permits rdf:resource="https://creativecommons.org/ns#DerivativeWorks"/><cc:requires rdf:resource="https://creativecommons.org/ns#Notice"/><cc:requires rdf:resource="https://creativecommons.org/ns#Attribution"/></cc:License></rdf:RDF></metadata><mask id="avatarsRadiusMask"><rect width="64" height="64" rx="0" ry="0" x="0" y="0" fill="#fff"/></mask><g mask="url(#avatarsRadiusMask)"><path d="M37 46.08V52a5 5 0 0 1-10 0v-5.92A14.035 14.035 0 0 1 18.58 37h-.08a4.5 4.5 0 0 1-.5-8.973V27c0-7.732 6.268-14 14-14s14 6.268 14 14v1.027A4.5 4.5 0 0 1 45.42 37 14.035 14.035 0 0 1 37 46.081Z" fill="rgba(98, 61, 54, 1)"/><mask id="personas-a" style="mask-type:alpha" maskUnits="userSpaceOnUse" x="14" y="13" width="36" height="44"><path d="M37 46.08V52a5 5 0 0 1-10 0v-5.92A14.035 14.035 0 0 1 18.58 37h-.08a4.5 4.5 0 0 1-.5-8.973V27c0-7.732 6.268-14 14-14s14 6.268 14 14v1.027A4.5 4.5 0 0 1 45.42 37 14.035 14.035 0 0 1 37 46.081Z" fill="#fff"/></mask><g mask="url(#personas-a)"><path d="M32 13c7.732 0 14 6.268 14 14v6c0 7.732-6.268 14-14 14s-14-6.268-14-14v-6c0-7.732 6.268-14 14-14Z" fill="#fff" style="mix-blend-mode:overlay" opacity=".364"/></g><g transform="translate(20 24)"><path fill-rule="evenodd" clip-rule="evenodd" d="M4 4.5a1.5 1.5 0 1 0 3 0 1.5 1.5 0 0 0-3 0Zm13 0a1.5 1.5 0 1 0 3 0 1.5 1.5 0 0 0-3 0Z" fill="#1B0640"/></g><g transform="translate(2 2)"><path fill-rule="evenodd" clip-rule="evenodd" d="M44 26c-1.807-2.008-3.13-4.5-3.97-7.474-1.87 2.283-4.547 3.607-8.03 3.974-5.832.614-10.817-.327-14.953-2.822A13.958 13.958 0 0 0 16 25v1.027a4.474 4.474 0 0 0-2 .73V25.5C14 16.387 21.163 9 30 9s16 7.387 16 16.5v1.258a4.474 4.474 0 0 0-2-.73V26Zm2 8.242v6.604c0 7.312-4.612 13.513-11 15.679V44.08a14.035 14.035 0 0 0 8.42-9.082l.08.001c.925 0 1.785-.28 2.5-.758Zm-32 6.604c0 7.362 4.675 13.598 11.13 15.722-.035-2.326-.079-4.667-.13-7.023v-5.464a14.035 14.035 0 0 1-8.42-9.082L16.5 35c-.925 0-1.785-.28-2.5-.758v6.604Z" fill="rgba(222, 225, 245, 1)"/><mask id="hairLong-a" style="mask-type:alpha" maskUnits="userSpaceOnUse" x="14" y="9" width="32" height="48"><path fill-rule="evenodd" clip-rule="evenodd" d="M44 26c-1.807-2.008-3.13-4.5-3.97-7.474-1.87 2.283-4.547 3.607-8.03 3.974-5.832.614-10.817-.327-14.953-2.822A13.958 13.958 0 0 0 16 25v1.027a4.474 4.474 0 0 0-2 .73V25.5C14 16.387 21.163 9 30 9s16 7.387 16 16.5v1.258a4.474 4.474 0 0 0-2-.73V26Zm2 8.242v6.604c0 7.312-4.612 13.513-11 15.679V44.08a14.035 14.035 0 0 0 8.42-9.082l.08.001c.925 0 1.785-.28 2.5-.758Zm-32 6.604c0 7.362 4.675 13.598 11.13 15.722-.035-2.326-.079-4.667-.13-7.023v-5.464a14.035 14.035 0 0 1-8.42-9.082L16.5 35c-.925 0-1.785-.28-2.5-.758v6.604Z" fill="#362C47"/></mask><g mask="url(#hairLong-a)"><path fill="#fff" d="M14 9h32v18H14z" style="mix-blend-mode:overlay" opacity=".258"/></g></g><g transform="translate(11 44)"><path d="M32 20H10v-8a11 11 0 0 1 6-9.8V4a5 5 0 0 0 10 0V2.2a11 11 0 0 1 6 9.8v8Z" fill="rgba(243, 182, 58, 1)"/><mask id="bodySmall-a" style="mask-type:alpha" maskUnits="userSpaceOnUse" x="10" y="2" width="22" height="18"><path d="M32 20H10v-8a11 11 0 0 1 6-9.8V4a5 5 0 0 0 10 0V2.2a11 11 0 0 1 6 9.8v8Z" fill="#fff"/></mask><g mask="url(#bodySmall-a)"><path opacity=".136" d="M20.617 8.25 22 8l1.207.5L10 15l10.617-6.75Z" fill="#000"/><path d="M21 1h11v47H10V15l13.345-6.578L21 1Z" fill="#fff" style="mix-blend-mode:overlay" opacity=".261"/></g></g><g transform="translate(23 36)"><path d="M7.318 5.728a.75.75 0 0 1 .364-1.456c2.433.609 4.165.32 5.288-.802a.75.75 0 1 1 1.06 1.06c-1.544 1.545-3.812 1.923-6.712 1.198Z" fill="#1B0640"/></g><g><g transform="translate(24 28)"><path d="M4.25 5a.75.75 0 0 1 1.5 0c0 .836.914 1.75 2.25 1.75 1.336 0 2.25-.914 2.25-1.75a.75.75 0 0 1 1.5 0c0 1.664-1.586 3.25-3.75 3.25-2.164 0-3.75-1.586-3.75-3.25Z" fill="#000" style="mix-blend-mode:overlay" opacity=".36"/></g></g><g><g transform="translate(14 26)"><path d="M18.017 12.05a2.718 2.718 0 0 1-3.183 1.587l-5.082-1.3a1 1 0 0 1-.075-1.916l5.235-1.786a2.504 2.504 0 0 1 3.104 1.37 2.504 2.504 0 0 1 3.105-1.37l5.235 1.786a1 1 0 0 1-.075 1.915l-5.082 1.3a2.718 2.718 0 0 1-3.183-1.587Z" fill="rgba(222, 225, 245, 1)"/></g></g></g></svg>