<svg xmlns:dc="http://purl.org/dc/elements/1.1/" xmlns:cc="http://creativecommons.org/ns#" xmlns:rdf="http://www.w3.org/1999/02/22-rdf-syntax-ns#" xmlns:svg="http://www.w3.org/2000/svg" xmlns="http://www.w3.org/2000/svg" viewBox="0 0 64 64" fill="none"><metadata><rdf:RDF><cc:Work><dc:format>image/svg+xml</dc:format><dc:type rdf:resource="http://purl.org/dc/dcmitype/StillImage"/><dc:title>Personas by Draftbit</dc:title><dc:creator><cc:Agent><dc:title>Draftbit - draftbit.com</dc:title></cc:Agent></dc:creator><dc:source>https://personas.draftbit.com/</dc:source><cc:license rdf:resource="https://creativecommons.org/licenses/by/4.0/"/></cc:Work><cc:License rdf:about="https://creativecommons.org/licenses/by/4.0/"><cc:permits rdf:resource="https://creativecommons.org/ns#Reproduction"/><cc:permits rdf:resource="https://creativecommons.org/ns#Distribution"/><cc:permits rdf:resource="https://creativecommons.org/ns#DerivativeWorks"/><cc:requires rdf:resource="https://creativecommons.org/ns#Notice"/><cc:requires rdf:resource="https://creativecommons.org/ns#Attribution"/></cc:License></rdf:RDF></metadata><mask id="avatarsRadiusMask"><rect width="64" height="64" rx="0" ry="0" x="0" y="0" fill="#fff"/></mask><g mask="url(#avatarsRadiusMask)"><path d="M37 46.08V52a5 5 0 0 1-10 0v-5.92A14.035 14.035 0 0 1 18.58 37h-.08a4.5 4.5 0 0 1-.5-8.973V27c0-7.732 6.268-14 14-14s14 6.268 14 14v1.027A4.5 4.5 0 0 1 45.42 37 14.035 14.035 0 0 1 37 46.081Z" fill="rgba(238, 180, 164, 1)"/><mask id="personas-a" style="mask-type:alpha" maskUnits="userSpaceOnUse" x="14" y="13" width="36" height="44"><path d="M37 46.08V52a5 5 0 0 1-10 0v-5.92A14.035 14.035 0 0 1 18.58 37h-.08a4.5 4.5 0 0 1-.5-8.973V27c0-7.732 6.268-14 14-14s14 6.268 14 14v1.027A4.5 4.5 0 0 1 45.42 37 14.035 14.035 0 0 1 37 46.081Z" fill="#fff"/></mask><g mask="url(#personas-a)"><path d="M32 13c7.732 0 14 6.268 14 14v6c0 7.732-6.268 14-14 14s-14-6.268-14-14v-6c0-7.732 6.268-14 14-14Z" fill="#fff" style="mix-blend-mode:overlay" opacity=".364"/></g><g transform="translate(20 24)"><g fill="#1B0640"><path d="M6 6a1.5 1.5 0 1 0 0-3 1.5 1.5 0 0 0 0 3ZM18 6a1.5 1.5 0 1 0 0-3 1.5 1.5 0 0 0 0 3Z"/></g><g opacity=".303" fill="#fff"><path d="M9 2H3v6h6V2ZM21 2h-6v6h6V2Z"/></g><path fill-rule="evenodd" clip-rule="evenodd" d="M11 1.053h2c.655 0 1.214-.2 1.845-.427C15.659.334 16.59 0 18 0c1.667 0 3.333.35 5 1.053l1 .526v1.579l-1 .526v3.158C23 8.586 21.657 10 20 10h-4c-1.657 0-3-1.414-3-3.158V3.158h-2v3.684C11 8.586 9.657 10 8 10H4c-1.657 0-3-1.414-3-3.158V3.684l-1-.526V1.579l1-.526C2.667.35 4.333 0 6 0c1.409 0 2.341.334 3.155.626.63.226 1.19.427 1.845.427Zm-2.757 1.47C7.399 2.228 6.818 2.106 6 2.106c-.995 0-1.993.15-3 .45v4.287c0 .581.448 1.053 1 1.053h4c.552 0 1-.472 1-1.053V2.791c-.209-.07-.447-.155-.757-.267ZM15 2.792c.209-.07.447-.155.758-.267.843-.297 1.424-.419 2.242-.419.995 0 1.993.15 3 .45v4.287c0 .581-.448 1.053-1 1.053h-4c-.552 0-1-.472-1-1.053V2.791Z" fill="#1B0640"/></g><g transform="translate(2 2)"><path d="m44 26-.021-.023a2 2 0 0 1-2.104-2.855 2 2 0 0 1-2.729-2.095 2 2 0 0 1-3.303.553l-.012.005v.042a2 2 0 0 1-3.753.965 2 2 0 0 1-3.921.333 2 2 0 0 1-3.865-.598l-.131-.022a1.999 1.999 0 0 1-3.676-.982 20.23 20.23 0 0 1-.83-.325 2 2 0 0 1-2.725 2.123 2 2 0 0 1-.93 2.68v.226A4.5 4.5 0 0 0 16.58 35 14.035 14.035 0 0 0 25 44.081v3.062a3.484 3.484 0 0 1-.651-.68 20.64 20.64 0 0 1-1.431-.46 3.46 3.46 0 0 1-2.719-.138 3.46 3.46 0 0 1-1.816-2.166 20.899 20.899 0 0 1-.987-.707 3.462 3.462 0 0 1-2.742-.912 3.464 3.464 0 0 1-1.087-2.877 20.74 20.74 0 0 1-.495-.661 3.465 3.465 0 0 1-2.604-1.712 3.467 3.467 0 0 1-.062-3.358 20.8 20.8 0 0 1-.136-.39 3.47 3.47 0 0 1-1.077-5.965v-.009a3.47 3.47 0 0 1 .471-6.196 3.47 3.47 0 0 1 2.272-5.788 3.47 3.47 0 0 1 3.876-4.862A3.47 3.47 0 0 1 20.95 6.76a3.47 3.47 0 0 1 5.941-1.833 3.47 3.47 0 0 1 6.218 0A3.47 3.47 0 0 1 39.05 6.76a3.47 3.47 0 0 1 5.138 3.502 3.47 3.47 0 0 1 3.876 4.862 3.47 3.47 0 0 1 2.272 5.788 3.47 3.47 0 0 1 .471 6.196v.01a3.47 3.47 0 0 1-1.077 5.965c-.044.13-.09.26-.136.389a3.467 3.467 0 0 1-.062 3.358 3.465 3.465 0 0 1-2.604 1.712c-.16.224-.326.444-.495.661a3.464 3.464 0 0 1-1.087 2.877 3.462 3.462 0 0 1-2.742.912c-.322.245-.651.48-.987.707a3.46 3.46 0 0 1-1.816 2.166 3.46 3.46 0 0 1-2.719.138c-.469.17-.946.324-1.43.46a3.484 3.484 0 0 1-.652.68v-3.062a14.035 14.035 0 0 0 8.42-9.082l.08.001a4.5 4.5 0 0 0 .5-8.973V26Z" fill="rgba(242, 156, 101, 1)"/><mask id="hairCurly-a" style="mask-type:alpha" maskUnits="userSpaceOnUse" x="7" y="3" width="46" height="45"><path d="m44 26-.021-.023a2 2 0 0 1-2.104-2.855 2 2 0 0 1-2.729-2.095 2 2 0 0 1-3.303.553l-.012.005v.042a2 2 0 0 1-3.753.965 2 2 0 0 1-3.921.333 2 2 0 0 1-3.865-.598l-.131-.022a1.999 1.999 0 0 1-3.676-.982 20.23 20.23 0 0 1-.83-.325 2 2 0 0 1-2.725 2.123 2 2 0 0 1-.93 2.68v.226A4.5 4.5 0 0 0 16.58 35 14.035 14.035 0 0 0 25 44.081v3.062a3.484 3.484 0 0 1-.651-.68 20.64 20.64 0 0 1-1.431-.46 3.46 3.46 0 0 1-2.719-.138 3.46 3.46 0 0 1-1.816-2.166 20.899 20.899 0 0 1-.987-.707 3.462 3.462 0 0 1-2.742-.912 3.464 3.464 0 0 1-1.087-2.877 20.74 20.74 0 0 1-.495-.661 3.465 3.465 0 0 1-2.604-1.712 3.467 3.467 0 0 1-.062-3.358 20.8 20.8 0 0 1-.136-.39 3.47 3.47 0 0 1-1.077-5.965v-.009a3.47 3.47 0 0 1 .471-6.196 3.47 3.47 0 0 1 2.272-5.788 3.47 3.47 0 0 1 3.876-4.862A3.47 3.47 0 0 1 20.95 6.76a3.47 3.47 0 0 1 5.941-1.833 3.47 3.47 0 0 1 6.218 0A3.47 3.47 0 0 1 39.05 6.76a3.47 3.47 0 0 1 5.138 3.502 3.47 3.47 0 0 1 3.876 4.862 3.47 3.47 0 0 1 2.272 5.788 3.47 3.47 0 0 1 .471 6.196v.01a3.47 3.47 0 0 1-1.077 5.965c-.044.13-.09.26-.136.389a3.467 3.467 0 0 1-.062 3.358 3.465 3.465 0 0 1-2.604 1.712c-.16.224-.326.444-.495.661a3.464 3.464 0 0 1-1.087 2.877 3.462 3.462 0 0 1-2.742.912c-.322.245-.651.48-.987.707a3.46 3.46 0 0 1-1.816 2.166 3.46 3.46 0 0 1-2.719.138c-.469.17-.946.324-1.43.46a3.484 3.484 0 0 1-.652.68v-3.062a14.035 14.035 0 0 0 8.42-9.082l.08.001a4.5 4.5 0 0 0 .5-8.973V26Z" fill="#fff"/></mask><g mask="url(#hairCurly-a)"><path fill="#fff" d="M7 3h46v44H7z" style="mix-blend-mode:overlay" opacity=".259"/></g></g><g transform="translate(11 44)"><path d="M16 5v3a5 5 0 0 0 10 0V5l6.647 2.045A9 9 0 0 1 39 15.647V20H3v-4.353a9 9 0 0 1 6.353-8.602L16 5Z" fill="rgba(69, 109, 255, 1)"/><mask id="bodyCheckered-a" style="mask-type:alpha" maskUnits="userSpaceOnUse" x="3" y="5" width="36" height="15"><path d="M16 5v3a5 5 0 0 0 10 0V5l6.647 2.045A9 9 0 0 1 39 15.647V20H3v-4.353a9 9 0 0 1 6.353-8.602L16 5Z" fill="#fff"/></mask><g mask="url(#bodyCheckered-a)"><path fill-rule="evenodd" clip-rule="evenodd" d="M7 20h4V6.538l-1.647.507A8.99 8.99 0 0 0 7 8.163V20ZM32.647 7.045 31 6.538V20h4V8.163a8.99 8.99 0 0 0-2.353-1.118ZM23 20h4v-8.392a7.017 7.017 0 0 1-4 3.102V20Zm-4 0h-4v-8.392a7.017 7.017 0 0 0 4 3.102V20Z" fill="#000" style="mix-blend-mode:overlay" opacity=".404"/></g><g style="mix-blend-mode:lighten" opacity=".18" fill="#fff"><path d="M3.397 13a9.014 9.014 0 0 1 2.535-4h8.139a6.982 6.982 0 0 0 2.03 4H3.397ZM39 17v3H3v-3h36ZM36.068 9a9.014 9.014 0 0 1 2.535 4H25.899a6.982 6.982 0 0 0 2.03-4h8.14Z"/></g><mask id="bodyCheckered-b" style="mask-type:alpha" maskUnits="userSpaceOnUse" x="3" y="9" width="36" height="11"><g style="mix-blend-mode:lighten" fill="#fff"><path d="M3.397 13a9.014 9.014 0 0 1 2.535-4h8.139a6.982 6.982 0 0 0 2.03 4H3.397ZM39 17v3H3v-3h36ZM36.068 9a9.014 9.014 0 0 1 2.535 4H25.899a6.982 6.982 0 0 0 2.03-4h8.14Z"/></g></mask></g><g transform="translate(23 36)"><path d="M5.004 5.868a1 1 0 1 1 .992-1.736C7.016 4.715 8.014 5 9 5c.986 0 1.983-.285 3.004-.868a1 1 0 1 1 .992 1.736C11.684 6.618 10.348 7 9 7c-1.348 0-2.684-.382-3.996-1.132Z" fill="#1B0640"/></g><g><g transform="translate(24 28)"><path d="M5.289 6.237a.75.75 0 1 1 1.423-.474c.233.699.617.987 1.288.987s1.056-.288 1.289-.987a.75.75 0 1 1 1.422.474C10.278 7.538 9.33 8.25 8 8.25s-2.278-.712-2.711-2.013Z" fill="#000" style="mix-blend-mode:overlay" opacity=".36"/></g></g><g><g transform="translate(14 26)"><path fill-rule="evenodd" clip-rule="evenodd" d="M13.613 10.673C12.015 11.096 11 12.59 11 14.242v4.663c0 .997.494 1.934 1.377 2.398 1.39.73 3.634 1.697 5.78 1.697 2.14 0 4.26-.963 5.56-1.694.832-.467 1.283-1.369 1.283-2.322v-4.742c0-1.653-1.015-3.146-2.613-3.569C21.073 10.326 19.455 10 18 10c-1.455 0-3.073.326-4.387.673Zm.293 1.41c-.802.222-1.316.967-1.316 1.798v2.67c0 1.065.561 2.057 1.54 2.477 1.084.465 2.585.972 3.974.972 1.385 0 2.847-.504 3.899-.968.956-.422 1.497-1.4 1.497-2.445v-2.69c0-.84-.524-1.59-1.333-1.808-1.073-.29-2.646-.628-4.167-.628-1.512 0-3.048.334-4.094.623Z" fill="rgba(242, 156, 101, 1)"/></g></g></g></svg>