<svg xmlns:dc="http://purl.org/dc/elements/1.1/" xmlns:cc="http://creativecommons.org/ns#" xmlns:rdf="http://www.w3.org/1999/02/22-rdf-syntax-ns#" xmlns:svg="http://www.w3.org/2000/svg" xmlns="http://www.w3.org/2000/svg" viewBox="0 0 64 64" fill="none"><metadata><rdf:RDF><cc:Work><dc:format>image/svg+xml</dc:format><dc:type rdf:resource="http://purl.org/dc/dcmitype/StillImage"/><dc:title>Personas by Draftbit</dc:title><dc:creator><cc:Agent><dc:title>Draftbit - draftbit.com</dc:title></cc:Agent></dc:creator><dc:source>https://personas.draftbit.com/</dc:source><cc:license rdf:resource="https://creativecommons.org/licenses/by/4.0/"/></cc:Work><cc:License rdf:about="https://creativecommons.org/licenses/by/4.0/"><cc:permits rdf:resource="https://creativecommons.org/ns#Reproduction"/><cc:permits rdf:resource="https://creativecommons.org/ns#Distribution"/><cc:permits rdf:resource="https://creativecommons.org/ns#DerivativeWorks"/><cc:requires rdf:resource="https://creativecommons.org/ns#Notice"/><cc:requires rdf:resource="https://creativecommons.org/ns#Attribution"/></cc:License></rdf:RDF></metadata><mask id="avatarsRadiusMask"><rect width="64" height="64" rx="0" ry="0" x="0" y="0" fill="#fff"/></mask><g mask="url(#avatarsRadiusMask)"><path d="M37 46.08V52a5 5 0 0 1-10 0v-5.92A14.035 14.035 0 0 1 18.58 37h-.08a4.5 4.5 0 0 1-.5-8.973V27c0-7.732 6.268-14 14-14s14 6.268 14 14v1.027A4.5 4.5 0 0 1 45.42 37 14.035 14.035 0 0 1 37 46.081Z" fill="rgba(201, 230, 220, 1)"/><mask id="personas-a" style="mask-type:alpha" maskUnits="userSpaceOnUse" x="14" y="13" width="36" height="44"><path d="M37 46.08V52a5 5 0 0 1-10 0v-5.92A14.035 14.035 0 0 1 18.58 37h-.08a4.5 4.5 0 0 1-.5-8.973V27c0-7.732 6.268-14 14-14s14 6.268 14 14v1.027A4.5 4.5 0 0 1 45.42 37 14.035 14.035 0 0 1 37 46.081Z" fill="#fff"/></mask><g mask="url(#personas-a)"><path d="M32 13c7.732 0 14 6.268 14 14v6c0 7.732-6.268 14-14 14s-14-6.268-14-14v-6c0-7.732 6.268-14 14-14Z" fill="#fff" style="mix-blend-mode:overlay" opacity=".364"/></g><g transform="translate(20 24)"><g fill="#1B0640"><path d="M3.632 4.004a1 1 0 0 0 .372 1.364C4.734 5.785 5.486 6 6.25 6s1.517-.215 2.246-.632a1 1 0 0 0-.992-1.736C7.066 3.882 6.652 4 6.25 4s-.816-.118-1.254-.368a1 1 0 0 0-1.364.372ZM15.632 4.004a1 1 0 0 0 .372 1.364c.73.417 1.482.632 2.246.632s1.517-.215 2.246-.632a1 1 0 0 0-.992-1.736c-.438.25-.852.368-1.254.368s-.817-.118-1.254-.368a1 1 0 0 0-1.364.372Z"/></g></g><g transform="translate(2 2)"><path fill-rule="evenodd" clip-rule="evenodd" d="M44 26c-1.412-1.57-2.53-3.434-3.35-5.595-3.192 1.086-6.742 1.629-10.65 1.629-4.848 0-9.145-.836-12.89-2.506A13.955 13.955 0 0 0 16 25v1.027a4.474 4.474 0 0 0-2 .73v-1.375C14 16.334 21.163 9 30 9s16 7.334 16 16.382v1.376a4.474 4.474 0 0 0-2-.73V26Zm-9 20.06v-1.98A14.035 14.035 0 0 0 43.42 35h.08c.925 0 1.785-.28 2.5-.758v6.376c0 .477-.02.949-.059 1.415-3.647 2.044-7.294 3.386-10.941 4.027Zm-20.941-4.027c3.647 2.044 7.294 3.386 10.941 4.027v-1.98A14.035 14.035 0 0 1 16.58 35h-.08c-.925 0-1.785-.28-2.5-.758v6.376c0 .477.02.949.059 1.415Z" fill="rgba(222, 225, 245, 1)"/><mask id="hairBobCut-a" style="mask-type:alpha" maskUnits="userSpaceOnUse" x="14" y="9" width="32" height="38"><path fill-rule="evenodd" clip-rule="evenodd" d="M44 26c-1.412-1.57-2.53-3.434-3.35-5.595-3.192 1.086-6.742 1.629-10.65 1.629-4.848 0-9.145-.836-12.89-2.506A13.955 13.955 0 0 0 16 25v1.027a4.474 4.474 0 0 0-2 .73v-1.375C14 16.334 21.163 9 30 9s16 7.334 16 16.382v1.376a4.474 4.474 0 0 0-2-.73V26Zm-9 20.06v-1.98A14.035 14.035 0 0 0 43.42 35h.08c.925 0 1.785-.28 2.5-.758v6.376c0 .477-.02.949-.059 1.415-3.647 2.044-7.294 3.386-10.941 4.027Zm-20.941-4.027c3.647 2.044 7.294 3.386 10.941 4.027v-1.98A14.035 14.035 0 0 1 16.58 35h-.08c-.925 0-1.785-.28-2.5-.758v6.376c0 .477.02.949.059 1.415Z" fill="#362C47"/></mask><g mask="url(#hairBobCut-a)"><path fill="#fff" d="M13 9h34v18H13z" style="mix-blend-mode:overlay" opacity=".259"/></g></g><g transform="translate(11 44)"><path d="M16 5v3a5 5 0 0 0 10 0V5l6.647 2.045A9 9 0 0 1 39 15.647V20H3v-4.353a9 9 0 0 1 6.353-8.602L16 5Z" fill="rgba(226, 69, 83, 1)"/></g><g transform="translate(23 36)"><path d="M5.004 4.132a1 1 0 1 0 .992 1.736C7.016 5.285 8.014 5 9 5c.986 0 1.983.285 3.004.868a1 1 0 1 0 .992-1.736C11.684 3.382 10.348 3 9 3c-1.348 0-2.684.382-3.996 1.132Z" fill="#1B0640"/></g><g><g transform="translate(24 28)"><path d="M5.289 6.237a.75.75 0 1 1 1.423-.474c.233.699.617.987 1.288.987s1.056-.288 1.289-.987a.75.75 0 1 1 1.422.474C10.278 7.538 9.33 8.25 8 8.25s-2.278-.712-2.711-2.013Z" fill="#000" style="mix-blend-mode:overlay" opacity=".36"/></g></g><g><g transform="translate(14 26)"><path d="M10 14a5 5 0 0 1 5-5h6a5 5 0 0 1 5 5H10Z" fill="rgba(222, 225, 245, 1)"/></g></g></g></svg>