<svg xmlns:dc="http://purl.org/dc/elements/1.1/" xmlns:cc="http://creativecommons.org/ns#" xmlns:rdf="http://www.w3.org/1999/02/22-rdf-syntax-ns#" xmlns:svg="http://www.w3.org/2000/svg" xmlns="http://www.w3.org/2000/svg" viewBox="0 0 64 64" fill="none"><metadata><rdf:RDF><cc:Work><dc:format>image/svg+xml</dc:format><dc:type rdf:resource="http://purl.org/dc/dcmitype/StillImage"/><dc:title>Personas by Draftbit</dc:title><dc:creator><cc:Agent><dc:title>Draftbit - draftbit.com</dc:title></cc:Agent></dc:creator><dc:source>https://personas.draftbit.com/</dc:source><cc:license rdf:resource="https://creativecommons.org/licenses/by/4.0/"/></cc:Work><cc:License rdf:about="https://creativecommons.org/licenses/by/4.0/"><cc:permits rdf:resource="https://creativecommons.org/ns#Reproduction"/><cc:permits rdf:resource="https://creativecommons.org/ns#Distribution"/><cc:permits rdf:resource="https://creativecommons.org/ns#DerivativeWorks"/><cc:requires rdf:resource="https://creativecommons.org/ns#Notice"/><cc:requires rdf:resource="https://creativecommons.org/ns#Attribution"/></cc:License></rdf:RDF></metadata><mask id="avatarsRadiusMask"><rect width="64" height="64" rx="0" ry="0" x="0" y="0" fill="#fff"/></mask><g mask="url(#avatarsRadiusMask)"><path d="M37 46.08V52a5 5 0 0 1-10 0v-5.92A14.035 14.035 0 0 1 18.58 37h-.08a4.5 4.5 0 0 1-.5-8.973V27c0-7.732 6.268-14 14-14s14 6.268 14 14v1.027A4.5 4.5 0 0 1 45.42 37 14.035 14.035 0 0 1 37 46.081Z" fill="rgba(215, 135, 116, 1)"/><mask id="personas-a" style="mask-type:alpha" maskUnits="userSpaceOnUse" x="14" y="13" width="36" height="44"><path d="M37 46.08V52a5 5 0 0 1-10 0v-5.92A14.035 14.035 0 0 1 18.58 37h-.08a4.5 4.5 0 0 1-.5-8.973V27c0-7.732 6.268-14 14-14s14 6.268 14 14v1.027A4.5 4.5 0 0 1 45.42 37 14.035 14.035 0 0 1 37 46.081Z" fill="#fff"/></mask><g mask="url(#personas-a)"><path d="M32 13c7.732 0 14 6.268 14 14v6c0 7.732-6.268 14-14 14s-14-6.268-14-14v-6c0-7.732 6.268-14 14-14Z" fill="#fff" style="mix-blend-mode:overlay" opacity=".364"/></g><g transform="translate(20 24)"><g fill="#1B0640"><path d="M4 4.5a1.5 1.5 0 1 0 3 0 1.5 1.5 0 0 0-3 0ZM21.244 3.907a.75.75 0 0 0-.837-.651l-4 .5a.75.75 0 0 0 .186 1.488l4-.5a.75.75 0 0 0 .651-.837Z"/></g></g><g transform="translate(2 2)"><path d="m44 26-.021-.023a2 2 0 0 1-2.104-2.855 2 2 0 0 1-2.729-2.095 2 2 0 0 1-3.303.553l-.012.005v.042a2 2 0 0 1-3.753.965 2 2 0 0 1-3.921.333 2 2 0 0 1-3.865-.598l-.131-.022a1.999 1.999 0 0 1-3.676-.982 20.23 20.23 0 0 1-.83-.325 2 2 0 0 1-2.725 2.123 2 2 0 0 1-.93 2.68v.226A4.5 4.5 0 0 0 16.58 35 14.035 14.035 0 0 0 25 44.081v3.062a3.484 3.484 0 0 1-.651-.68 20.64 20.64 0 0 1-1.431-.46 3.46 3.46 0 0 1-2.719-.138 3.46 3.46 0 0 1-1.816-2.166 20.899 20.899 0 0 1-.987-.707 3.462 3.462 0 0 1-2.742-.912 3.464 3.464 0 0 1-1.087-2.877 20.74 20.74 0 0 1-.495-.661 3.465 3.465 0 0 1-2.604-1.712 3.467 3.467 0 0 1-.062-3.358 20.8 20.8 0 0 1-.136-.39 3.47 3.47 0 0 1-1.077-5.965v-.009a3.47 3.47 0 0 1 .471-6.196 3.47 3.47 0 0 1 2.272-5.788 3.47 3.47 0 0 1 3.876-4.862A3.47 3.47 0 0 1 20.95 6.76a3.47 3.47 0 0 1 5.941-1.833 3.47 3.47 0 0 1 6.218 0A3.47 3.47 0 0 1 39.05 6.76a3.47 3.47 0 0 1 5.138 3.502 3.47 3.47 0 0 1 3.876 4.862 3.47 3.47 0 0 1 2.272 5.788 3.47 3.47 0 0 1 .471 6.196v.01a3.47 3.47 0 0 1-1.077 5.965c-.044.13-.09.26-.136.389a3.467 3.467 0 0 1-.062 3.358 3.465 3.465 0 0 1-2.604 1.712c-.16.224-.326.444-.495.661a3.464 3.464 0 0 1-1.087 2.877 3.462 3.462 0 0 1-2.742.912c-.322.245-.651.48-.987.707a3.46 3.46 0 0 1-1.816 2.166 3.46 3.46 0 0 1-2.719.138c-.469.17-.946.324-1.43.46a3.484 3.484 0 0 1-.652.68v-3.062a14.035 14.035 0 0 0 8.42-9.082l.08.001a4.5 4.5 0 0 0 .5-8.973V26Z" fill="rgba(242, 156, 101, 1)"/><mask id="hairCurly-a" style="mask-type:alpha" maskUnits="userSpaceOnUse" x="7" y="3" width="46" height="45"><path d="m44 26-.021-.023a2 2 0 0 1-2.104-2.855 2 2 0 0 1-2.729-2.095 2 2 0 0 1-3.303.553l-.012.005v.042a2 2 0 0 1-3.753.965 2 2 0 0 1-3.921.333 2 2 0 0 1-3.865-.598l-.131-.022a1.999 1.999 0 0 1-3.676-.982 20.23 20.23 0 0 1-.83-.325 2 2 0 0 1-2.725 2.123 2 2 0 0 1-.93 2.68v.226A4.5 4.5 0 0 0 16.58 35 14.035 14.035 0 0 0 25 44.081v3.062a3.484 3.484 0 0 1-.651-.68 20.64 20.64 0 0 1-1.431-.46 3.46 3.46 0 0 1-2.719-.138 3.46 3.46 0 0 1-1.816-2.166 20.899 20.899 0 0 1-.987-.707 3.462 3.462 0 0 1-2.742-.912 3.464 3.464 0 0 1-1.087-2.877 20.74 20.74 0 0 1-.495-.661 3.465 3.465 0 0 1-2.604-1.712 3.467 3.467 0 0 1-.062-3.358 20.8 20.8 0 0 1-.136-.39 3.47 3.47 0 0 1-1.077-5.965v-.009a3.47 3.47 0 0 1 .471-6.196 3.47 3.47 0 0 1 2.272-5.788 3.47 3.47 0 0 1 3.876-4.862A3.47 3.47 0 0 1 20.95 6.76a3.47 3.47 0 0 1 5.941-1.833 3.47 3.47 0 0 1 6.218 0A3.47 3.47 0 0 1 39.05 6.76a3.47 3.47 0 0 1 5.138 3.502 3.47 3.47 0 0 1 3.876 4.862 3.47 3.47 0 0 1 2.272 5.788 3.47 3.47 0 0 1 .471 6.196v.01a3.47 3.47 0 0 1-1.077 5.965c-.044.13-.09.26-.136.389a3.467 3.467 0 0 1-.062 3.358 3.465 3.465 0 0 1-2.604 1.712c-.16.224-.326.444-.495.661a3.464 3.464 0 0 1-1.087 2.877 3.462 3.462 0 0 1-2.742.912c-.322.245-.651.48-.987.707a3.46 3.46 0 0 1-1.816 2.166 3.46 3.46 0 0 1-2.719.138c-.469.17-.946.324-1.43.46a3.484 3.484 0 0 1-.652.68v-3.062a14.035 14.035 0 0 0 8.42-9.082l.08.001a4.5 4.5 0 0 0 .5-8.973V26Z" fill="#fff"/></mask><g mask="url(#hairCurly-a)"><path fill="#fff" d="M7 3h46v44H7z" style="mix-blend-mode:overlay" opacity=".259"/></g></g><g transform="translate(11 44)"><path d="M16 7v.47a5 5 0 1 0 10 0V7c7.063 1.523 12.93 6.735 16 13H0C3.07 13.735 8.937 8.523 16 7Z" fill="rgba(117, 85, 202, 1)"/></g><g transform="translate(23 36)"><path d="M5.004 5.868a1 1 0 1 1 .992-1.736C7.016 4.715 8.014 5 9 5c.986 0 1.983-.285 3.004-.868a1 1 0 1 1 .992 1.736C11.684 6.618 10.348 7 9 7c-1.348 0-2.684-.382-3.996-1.132Z" fill="#1B0640"/></g><g><g transform="translate(24 28)"><path d="M5.289 6.237a.75.75 0 1 1 1.423-.474c.233.699.617.987 1.288.987s1.056-.288 1.289-.987a.75.75 0 1 1 1.422.474C10.278 7.538 9.33 8.25 8 8.25s-2.278-.712-2.711-2.013Z" fill="#000" style="mix-blend-mode:overlay" opacity=".36"/></g></g><g><g transform="translate(14 26)"><path d="m12.473 9.458 2.423-.827A2.504 2.504 0 0 1 18 10.001a2.504 2.504 0 0 1 3.104-1.37l2.423.827c3.466-1.33 6.425-3.817 8.47-6.756C31.999 2.8 32 2.9 32 3v6c0 7.732-6.268 14-14 14S4 16.732 4 9V3c0-.1.001-.2.003-.298 2.045 2.94 5.004 5.425 8.47 6.756Z" fill="rgba(242, 156, 101, 1)"/><mask id="facialHairBeardMustache-a" style="mask-type:alpha" maskUnits="userSpaceOnUse" x="4" y="2" width="28" height="21"><path d="m12.473 9.458 2.423-.827A2.504 2.504 0 0 1 18 10.001a2.504 2.504 0 0 1 3.104-1.37l2.423.827c3.466-1.33 6.425-3.817 8.47-6.756C31.999 2.8 32 2.9 32 3v6c0 7.732-6.268 14-14 14S4 16.732 4 9V3c0-.1.001-.2.003-.298 2.045 2.94 5.004 5.425 8.47 6.756Z" fill="#fff"/></mask><g mask="url(#facialHairBeardMustache-a)"><path d="M32 9V3c0-.1-.001-.2-.003-.298-2.045 2.94-5.004 5.425-8.47 6.756l2.812.96a1 1 0 0 1-.075 1.915l-5.081 1.3A2.715 2.715 0 0 1 18 12.046a2.718 2.718 0 0 1-3.183 1.587l-5.081-1.3a1 1 0 0 1-.075-1.916l2.812-.96c-3.466-1.33-6.425-3.816-8.47-6.755C4.001 2.8 4 2.9 4 3v6c0 7.732 6.268 14 14 14s14-6.268 14-14Z" fill="#fff" style="mix-blend-mode:overlay" opacity=".26"/><path d="M22 13.424v.076a3 3 0 0 1-3 3h-2a3 3 0 0 1-3-3.076l.817.209A2.715 2.715 0 0 0 18 12.046a2.718 2.718 0 0 0 3.183 1.587l.816-.209Z" fill="#FFFEFD"/></g></g></g></g></svg>