<svg xmlns:dc="http://purl.org/dc/elements/1.1/" xmlns:cc="http://creativecommons.org/ns#" xmlns:rdf="http://www.w3.org/1999/02/22-rdf-syntax-ns#" xmlns:svg="http://www.w3.org/2000/svg" xmlns="http://www.w3.org/2000/svg" viewBox="0 0 64 64" fill="none"><metadata><rdf:RDF><cc:Work><dc:format>image/svg+xml</dc:format><dc:type rdf:resource="http://purl.org/dc/dcmitype/StillImage"/><dc:title>Personas by Draftbit</dc:title><dc:creator><cc:Agent><dc:title>Draftbit - draftbit.com</dc:title></cc:Agent></dc:creator><dc:source>https://personas.draftbit.com/</dc:source><cc:license rdf:resource="https://creativecommons.org/licenses/by/4.0/"/></cc:Work><cc:License rdf:about="https://creativecommons.org/licenses/by/4.0/"><cc:permits rdf:resource="https://creativecommons.org/ns#Reproduction"/><cc:permits rdf:resource="https://creativecommons.org/ns#Distribution"/><cc:permits rdf:resource="https://creativecommons.org/ns#DerivativeWorks"/><cc:requires rdf:resource="https://creativecommons.org/ns#Notice"/><cc:requires rdf:resource="https://creativecommons.org/ns#Attribution"/></cc:License></rdf:RDF></metadata><mask id="avatarsRadiusMask"><rect width="64" height="64" rx="0" ry="0" x="0" y="0" fill="#fff"/></mask><g mask="url(#avatarsRadiusMask)"><path d="M37 46.08V52a5 5 0 0 1-10 0v-5.92A14.035 14.035 0 0 1 18.58 37h-.08a4.5 4.5 0 0 1-.5-8.973V27c0-7.732 6.268-14 14-14s14 6.268 14 14v1.027A4.5 4.5 0 0 1 45.42 37 14.035 14.035 0 0 1 37 46.081Z" fill="rgba(215, 135, 116, 1)"/><mask id="personas-a" style="mask-type:alpha" maskUnits="userSpaceOnUse" x="14" y="13" width="36" height="44"><path d="M37 46.08V52a5 5 0 0 1-10 0v-5.92A14.035 14.035 0 0 1 18.58 37h-.08a4.5 4.5 0 0 1-.5-8.973V27c0-7.732 6.268-14 14-14s14 6.268 14 14v1.027A4.5 4.5 0 0 1 45.42 37 14.035 14.035 0 0 1 37 46.081Z" fill="#fff"/></mask><g mask="url(#personas-a)"><path d="M32 13c7.732 0 14 6.268 14 14v6c0 7.732-6.268 14-14 14s-14-6.268-14-14v-6c0-7.732 6.268-14 14-14Z" fill="#fff" style="mix-blend-mode:overlay" opacity=".364"/></g><g transform="translate(20 24)"><g fill="#1B0640"><path d="M4 4.5a1.5 1.5 0 1 0 3 0 1.5 1.5 0 0 0-3 0ZM21.244 3.907a.75.75 0 0 0-.837-.651l-4 .5a.75.75 0 0 0 .186 1.488l4-.5a.75.75 0 0 0 .651-.837Z"/></g></g><g transform="translate(2 2)"><path d="M30 2.5a2 2 0 0 0-1.792 1.11 2 2 0 0 0-3.425 1.057 2 2 0 0 0-2.961 2.02 2 2 0 0 0-2.235 2.801 2 2 0 0 0-1.309 3.337 2 2 0 0 0-.272 3.571v.005a2 2 0 0 0-.55 2.376C19.745 14.167 24.503 11 30 11c5.497 0 10.254 3.168 12.544 7.777a2.007 2.007 0 0 0-.55-2.376v-.005a2 2 0 0 0-.272-3.572 2 2 0 0 0-1.31-3.336 2 2 0 0 0-2.234-2.802 2 2 0 0 0-2.961-2.019 2 2 0 0 0-3.425-1.056A2 2 0 0 0 30 2.5Z" fill="rgba(225, 99, 129, 1)"/><path d="M43.934 23.632C41.828 18.564 36.83 15 31 15h-2c-5.83 0-10.828 3.564-12.934 8.632C16.753 16.542 22.73 11 30 11s13.247 5.542 13.934 12.632Z" fill="#F55D81"/></g><g transform="translate(11 44)"><path d="M32 20H10v-8a11 11 0 0 1 6-9.8V4a5 5 0 0 0 10 0V2.2a11 11 0 0 1 6 9.8v8Z" fill="rgba(243, 182, 58, 1)"/><mask id="bodySmall-a" style="mask-type:alpha" maskUnits="userSpaceOnUse" x="10" y="2" width="22" height="18"><path d="M32 20H10v-8a11 11 0 0 1 6-9.8V4a5 5 0 0 0 10 0V2.2a11 11 0 0 1 6 9.8v8Z" fill="#fff"/></mask><g mask="url(#bodySmall-a)"><path opacity=".136" d="M20.617 8.25 22 8l1.207.5L10 15l10.617-6.75Z" fill="#000"/><path d="M21 1h11v47H10V15l13.345-6.578L21 1Z" fill="#fff" style="mix-blend-mode:overlay" opacity=".261"/></g></g><g transform="translate(23 36)"><path fill-rule="evenodd" clip-rule="evenodd" d="M9 2a6.611 6.611 0 0 1-2.27-.412A2.035 2.035 0 0 0 4 3.5a3.5 3.5 0 0 0 2.004 3.165 3 3 0 0 0 5.992 0A3.5 3.5 0 0 0 14 3.5a2.035 2.035 0 0 0-2.73-1.912A6.61 6.61 0 0 1 9 2ZM7.585 7h2.83a1.5 1.5 0 0 1-2.83 0Z" fill="#456DFF"/><path fill-rule="evenodd" clip-rule="evenodd" d="M12 6.5c0 .055-.002.11-.005.165A3.5 3.5 0 0 0 14 3.5a2.035 2.035 0 0 0-2.73-1.912A6.61 6.61 0 0 1 9 2a6.611 6.611 0 0 1-2.27-.412A2.035 2.035 0 0 0 4 3.5a3.5 3.5 0 0 0 2.004 3.165A3 3 0 1 1 12 6.5ZM7.585 7h2.83a1.5 1.5 0 1 0-2.83 0Z" fill="#fff" fill-opacity=".26" style="mix-blend-mode:lighten"/><circle cx="9" cy="4.5" r="1.5" fill="#fff"/></g><g><g transform="translate(24 28)"><path d="M4.25 5a.75.75 0 0 1 1.5 0c0 .836.914 1.75 2.25 1.75 1.336 0 2.25-.914 2.25-1.75a.75.75 0 0 1 1.5 0c0 1.664-1.586 3.25-3.75 3.25-2.164 0-3.75-1.586-3.75-3.25Z" fill="#000" style="mix-blend-mode:overlay" opacity=".36"/></g></g><g><g transform="translate(14 26)"><path opacity=".2" d="M32 3v4c0 7.732-6.268 14-14 14S4 14.732 4 7V3c0-.1.001-.2.003-.298C6.048 5.642 8.535 9.669 12 11c2-1.002 4-1.504 6-1.504s4 .502 6 1.504c3.465-1.33 5.952-5.359 7.997-8.298C31.999 2.8 32 2.9 32 3Z" fill="rgba(225, 99, 129, 1)"/></g></g></g></svg>