<svg xmlns:dc="http://purl.org/dc/elements/1.1/" xmlns:cc="http://creativecommons.org/ns#" xmlns:rdf="http://www.w3.org/1999/02/22-rdf-syntax-ns#" xmlns:svg="http://www.w3.org/2000/svg" xmlns="http://www.w3.org/2000/svg" viewBox="0 0 64 64" fill="none"><metadata><rdf:RDF><cc:Work><dc:format>image/svg+xml</dc:format><dc:type rdf:resource="http://purl.org/dc/dcmitype/StillImage"/><dc:title>Personas by Draftbit</dc:title><dc:creator><cc:Agent><dc:title>Draftbit - draftbit.com</dc:title></cc:Agent></dc:creator><dc:source>https://personas.draftbit.com/</dc:source><cc:license rdf:resource="https://creativecommons.org/licenses/by/4.0/"/></cc:Work><cc:License rdf:about="https://creativecommons.org/licenses/by/4.0/"><cc:permits rdf:resource="https://creativecommons.org/ns#Reproduction"/><cc:permits rdf:resource="https://creativecommons.org/ns#Distribution"/><cc:permits rdf:resource="https://creativecommons.org/ns#DerivativeWorks"/><cc:requires rdf:resource="https://creativecommons.org/ns#Notice"/><cc:requires rdf:resource="https://creativecommons.org/ns#Attribution"/></cc:License></rdf:RDF></metadata><mask id="avatarsRadiusMask"><rect width="64" height="64" rx="0" ry="0" x="0" y="0" fill="#fff"/></mask><g mask="url(#avatarsRadiusMask)"><path d="M37 46.08V52a5 5 0 0 1-10 0v-5.92A14.035 14.035 0 0 1 18.58 37h-.08a4.5 4.5 0 0 1-.5-8.973V27c0-7.732 6.268-14 14-14s14 6.268 14 14v1.027A4.5 4.5 0 0 1 45.42 37 14.035 14.035 0 0 1 37 46.081Z" fill="rgba(177, 106, 91, 1)"/><mask id="personas-a" style="mask-type:alpha" maskUnits="userSpaceOnUse" x="14" y="13" width="36" height="44"><path d="M37 46.08V52a5 5 0 0 1-10 0v-5.92A14.035 14.035 0 0 1 18.58 37h-.08a4.5 4.5 0 0 1-.5-8.973V27c0-7.732 6.268-14 14-14s14 6.268 14 14v1.027A4.5 4.5 0 0 1 45.42 37 14.035 14.035 0 0 1 37 46.081Z" fill="#fff"/></mask><g mask="url(#personas-a)"><path d="M32 13c7.732 0 14 6.268 14 14v6c0 7.732-6.268 14-14 14s-14-6.268-14-14v-6c0-7.732 6.268-14 14-14Z" fill="#fff" style="mix-blend-mode:overlay" opacity=".364"/></g><g transform="translate(20 24)"><g fill="#1B0640"><path d="M3.763 6.212a.75.75 0 0 0 .949-.475c.233-.699.617-.987 1.288-.987s1.056.288 1.289.987a.75.75 0 1 0 1.423-.474C8.278 3.962 7.329 3.25 6 3.25c-1.329 0-2.278.712-2.711 2.013a.75.75 0 0 0 .474.949ZM15.763 6.212a.75.75 0 0 0 .949-.475c.233-.699.617-.987 1.288-.987s1.055.288 1.288.987a.75.75 0 1 0 1.424-.474C20.277 3.962 19.329 3.25 18 3.25c-1.329 0-2.278.712-2.711 2.013a.75.75 0 0 0 .474.949Z"/></g></g><g transform="translate(2 2)"><path fill-rule="evenodd" clip-rule="evenodd" d="M44 26c-1.807-2.008-3.13-4.5-3.97-7.474-1.87 2.283-4.547 3.607-8.03 3.974-5.832.614-10.817-.327-14.953-2.822A13.958 13.958 0 0 0 16 25v1.027a4.474 4.474 0 0 0-2 .73V25.5C14 16.387 21.163 9 30 9s16 7.387 16 16.5v1.258a4.474 4.474 0 0 0-2-.73V26Zm2 8.242v6.604c0 7.312-4.612 13.513-11 15.679V44.08a14.035 14.035 0 0 0 8.42-9.082l.08.001c.925 0 1.785-.28 2.5-.758Zm-32 6.604c0 7.362 4.675 13.598 11.13 15.722-.035-2.326-.079-4.667-.13-7.023v-5.464a14.035 14.035 0 0 1-8.42-9.082L16.5 35c-.925 0-1.785-.28-2.5-.758v6.604Z" fill="rgba(225, 99, 129, 1)"/><mask id="hairLong-a" style="mask-type:alpha" maskUnits="userSpaceOnUse" x="14" y="9" width="32" height="48"><path fill-rule="evenodd" clip-rule="evenodd" d="M44 26c-1.807-2.008-3.13-4.5-3.97-7.474-1.87 2.283-4.547 3.607-8.03 3.974-5.832.614-10.817-.327-14.953-2.822A13.958 13.958 0 0 0 16 25v1.027a4.474 4.474 0 0 0-2 .73V25.5C14 16.387 21.163 9 30 9s16 7.387 16 16.5v1.258a4.474 4.474 0 0 0-2-.73V26Zm2 8.242v6.604c0 7.312-4.612 13.513-11 15.679V44.08a14.035 14.035 0 0 0 8.42-9.082l.08.001c.925 0 1.785-.28 2.5-.758Zm-32 6.604c0 7.362 4.675 13.598 11.13 15.722-.035-2.326-.079-4.667-.13-7.023v-5.464a14.035 14.035 0 0 1-8.42-9.082L16.5 35c-.925 0-1.785-.28-2.5-.758v6.604Z" fill="#362C47"/></mask><g mask="url(#hairLong-a)"><path fill="#fff" d="M14 9h32v18H14z" style="mix-blend-mode:overlay" opacity=".258"/></g></g><g transform="translate(11 44)"><path d="M16 7v.47a5 5 0 1 0 10 0V7c7.063 1.523 12.93 6.735 16 13H0C3.07 13.735 8.937 8.523 16 7Z" fill="rgba(117, 85, 202, 1)"/></g><g transform="translate(23 36)"><path d="M6 3h6v1a3 3 0 0 1-6 0V3Z" fill="#fff"/></g><g><g transform="translate(24 28)"><path d="M5.289 6.237a.75.75 0 1 1 1.423-.474c.233.699.617.987 1.288.987s1.056-.288 1.289-.987a.75.75 0 1 1 1.422.474C10.278 7.538 9.33 8.25 8 8.25s-2.278-.712-2.711-2.013Z" fill="#000" style="mix-blend-mode:overlay" opacity=".36"/></g></g><g><g transform="translate(14 26)"><path d="M18.017 12.05a2.718 2.718 0 0 1-3.183 1.587l-5.082-1.3a1 1 0 0 1-.075-1.916l5.235-1.786a2.504 2.504 0 0 1 3.104 1.37 2.504 2.504 0 0 1 3.105-1.37l5.235 1.786a1 1 0 0 1-.075 1.915l-5.082 1.3a2.718 2.718 0 0 1-3.183-1.587Z" fill="rgba(225, 99, 129, 1)"/></g></g></g></svg>