<svg xmlns:dc="http://purl.org/dc/elements/1.1/" xmlns:cc="http://creativecommons.org/ns#" xmlns:rdf="http://www.w3.org/1999/02/22-rdf-syntax-ns#" xmlns:svg="http://www.w3.org/2000/svg" xmlns="http://www.w3.org/2000/svg" viewBox="0 0 64 64" fill="none"><metadata><rdf:RDF><cc:Work><dc:format>image/svg+xml</dc:format><dc:type rdf:resource="http://purl.org/dc/dcmitype/StillImage"/><dc:title>Personas by Draftbit</dc:title><dc:creator><cc:Agent><dc:title>Draftbit - draftbit.com</dc:title></cc:Agent></dc:creator><dc:source>https://personas.draftbit.com/</dc:source><cc:license rdf:resource="https://creativecommons.org/licenses/by/4.0/"/></cc:Work><cc:License rdf:about="https://creativecommons.org/licenses/by/4.0/"><cc:permits rdf:resource="https://creativecommons.org/ns#Reproduction"/><cc:permits rdf:resource="https://creativecommons.org/ns#Distribution"/><cc:permits rdf:resource="https://creativecommons.org/ns#DerivativeWorks"/><cc:requires rdf:resource="https://creativecommons.org/ns#Notice"/><cc:requires rdf:resource="https://creativecommons.org/ns#Attribution"/></cc:License></rdf:RDF></metadata><mask id="avatarsRadiusMask"><rect width="64" height="64" rx="0" ry="0" x="0" y="0" fill="#fff"/></mask><g mask="url(#avatarsRadiusMask)"><path d="M37 46.08V52a5 5 0 0 1-10 0v-5.92A14.035 14.035 0 0 1 18.58 37h-.08a4.5 4.5 0 0 1-.5-8.973V27c0-7.732 6.268-14 14-14s14 6.268 14 14v1.027A4.5 4.5 0 0 1 45.42 37 14.035 14.035 0 0 1 37 46.081Z" fill="rgba(215, 135, 116, 1)"/><mask id="personas-a" style="mask-type:alpha" maskUnits="userSpaceOnUse" x="14" y="13" width="36" height="44"><path d="M37 46.08V52a5 5 0 0 1-10 0v-5.92A14.035 14.035 0 0 1 18.58 37h-.08a4.5 4.5 0 0 1-.5-8.973V27c0-7.732 6.268-14 14-14s14 6.268 14 14v1.027A4.5 4.5 0 0 1 45.42 37 14.035 14.035 0 0 1 37 46.081Z" fill="#fff"/></mask><g mask="url(#personas-a)"><path d="M32 13c7.732 0 14 6.268 14 14v6c0 7.732-6.268 14-14 14s-14-6.268-14-14v-6c0-7.732 6.268-14 14-14Z" fill="#fff" style="mix-blend-mode:overlay" opacity=".364"/></g><g transform="translate(20 24)"><g fill="#1B0640"><path d="M4 4.5a1.5 1.5 0 1 0 3 0 1.5 1.5 0 0 0-3 0ZM21.244 3.907a.75.75 0 0 0-.837-.651l-4 .5a.75.75 0 0 0 .186 1.488l4-.5a.75.75 0 0 0 .651-.837Z"/></g></g><g transform="translate(2 2)"><path d="M20.2 15.002c-.131-.647-.2-1.317-.2-2.002 0-5.523 4.477-10 10-10s10 4.477 10 10c0 .685-.069 1.355-.2 2.002A13.955 13.955 0 0 0 30 11a13.955 13.955 0 0 0-9.8 4.002Z" fill="rgba(54, 44, 71, 1)"/><path d="M43.934 23.632C41.828 18.564 36.83 15 31 15h-2c-5.83 0-10.828 3.564-12.934 8.632C16.753 16.542 22.73 11 30 11s13.247 5.542 13.934 12.632Z" fill="#F55D81"/></g><g transform="translate(11 44)"><path d="M16 7v.47a5 5 0 1 0 10 0V7c7.063 1.523 12.93 6.735 16 13H0C3.07 13.735 8.937 8.523 16 7Z" fill="rgba(226, 69, 83, 1)"/></g><g transform="translate(23 36)"><path d="M5.004 5.868a1 1 0 1 1 .992-1.736C7.016 4.715 8.014 5 9 5c.986 0 1.983-.285 3.004-.868a1 1 0 1 1 .992 1.736C11.684 6.618 10.348 7 9 7c-1.348 0-2.684-.382-3.996-1.132Z" fill="#1B0640"/></g><g><g transform="translate(24 28)"><path d="M4.25 5a.75.75 0 0 1 1.5 0c0 .836.914 1.75 2.25 1.75 1.336 0 2.25-.914 2.25-1.75a.75.75 0 0 1 1.5 0c0 1.664-1.586 3.25-3.75 3.25-2.164 0-3.75-1.586-3.75-3.25Z" fill="#000" style="mix-blend-mode:overlay" opacity=".36"/></g></g><g><g transform="translate(14 26)"><path d="m12.473 9.458 2.423-.827A2.504 2.504 0 0 1 18 10.001a2.504 2.504 0 0 1 3.104-1.37l2.423.827c3.466-1.33 6.425-3.817 8.47-6.756C31.999 2.8 32 2.9 32 3v6c0 7.732-6.268 14-14 14S4 16.732 4 9V3c0-.1.001-.2.003-.298 2.045 2.94 5.004 5.425 8.47 6.756Z" fill="rgba(54, 44, 71, 1)"/><mask id="facialHairBeardMustache-a" style="mask-type:alpha" maskUnits="userSpaceOnUse" x="4" y="2" width="28" height="21"><path d="m12.473 9.458 2.423-.827A2.504 2.504 0 0 1 18 10.001a2.504 2.504 0 0 1 3.104-1.37l2.423.827c3.466-1.33 6.425-3.817 8.47-6.756C31.999 2.8 32 2.9 32 3v6c0 7.732-6.268 14-14 14S4 16.732 4 9V3c0-.1.001-.2.003-.298 2.045 2.94 5.004 5.425 8.47 6.756Z" fill="#fff"/></mask><g mask="url(#facialHairBeardMustache-a)"><path d="M32 9V3c0-.1-.001-.2-.003-.298-2.045 2.94-5.004 5.425-8.47 6.756l2.812.96a1 1 0 0 1-.075 1.915l-5.081 1.3A2.715 2.715 0 0 1 18 12.046a2.718 2.718 0 0 1-3.183 1.587l-5.081-1.3a1 1 0 0 1-.075-1.916l2.812-.96c-3.466-1.33-6.425-3.816-8.47-6.755C4.001 2.8 4 2.9 4 3v6c0 7.732 6.268 14 14 14s14-6.268 14-14Z" fill="#fff" style="mix-blend-mode:overlay" opacity=".26"/><path d="M22 13.424v.076a3 3 0 0 1-3 3h-2a3 3 0 0 1-3-3.076l.817.209A2.715 2.715 0 0 0 18 12.046a2.718 2.718 0 0 0 3.183 1.587l.816-.209Z" fill="#FFFEFD"/></g></g></g></g></svg>