<svg xmlns:dc="http://purl.org/dc/elements/1.1/" xmlns:cc="http://creativecommons.org/ns#" xmlns:rdf="http://www.w3.org/1999/02/22-rdf-syntax-ns#" xmlns:svg="http://www.w3.org/2000/svg" xmlns="http://www.w3.org/2000/svg" viewBox="0 0 64 64" fill="none"><metadata><rdf:RDF><cc:Work><dc:format>image/svg+xml</dc:format><dc:type rdf:resource="http://purl.org/dc/dcmitype/StillImage"/><dc:title>Personas by Draftbit</dc:title><dc:creator><cc:Agent><dc:title>Draftbit - draftbit.com</dc:title></cc:Agent></dc:creator><dc:source>https://personas.draftbit.com/</dc:source><cc:license rdf:resource="https://creativecommons.org/licenses/by/4.0/"/></cc:Work><cc:License rdf:about="https://creativecommons.org/licenses/by/4.0/"><cc:permits rdf:resource="https://creativecommons.org/ns#Reproduction"/><cc:permits rdf:resource="https://creativecommons.org/ns#Distribution"/><cc:permits rdf:resource="https://creativecommons.org/ns#DerivativeWorks"/><cc:requires rdf:resource="https://creativecommons.org/ns#Notice"/><cc:requires rdf:resource="https://creativecommons.org/ns#Attribution"/></cc:License></rdf:RDF></metadata><mask id="avatarsRadiusMask"><rect width="64" height="64" rx="0" ry="0" x="0" y="0" fill="#fff"/></mask><g mask="url(#avatarsRadiusMask)"><path d="M37 46.08V52a5 5 0 0 1-10 0v-5.92A14.035 14.035 0 0 1 18.58 37h-.08a4.5 4.5 0 0 1-.5-8.973V27c0-7.732 6.268-14 14-14s14 6.268 14 14v1.027A4.5 4.5 0 0 1 45.42 37 14.035 14.035 0 0 1 37 46.081Z" fill="rgba(201, 230, 220, 1)"/><mask id="personas-a" style="mask-type:alpha" maskUnits="userSpaceOnUse" x="14" y="13" width="36" height="44"><path d="M37 46.08V52a5 5 0 0 1-10 0v-5.92A14.035 14.035 0 0 1 18.58 37h-.08a4.5 4.5 0 0 1-.5-8.973V27c0-7.732 6.268-14 14-14s14 6.268 14 14v1.027A4.5 4.5 0 0 1 45.42 37 14.035 14.035 0 0 1 37 46.081Z" fill="#fff"/></mask><g mask="url(#personas-a)"><path d="M32 13c7.732 0 14 6.268 14 14v6c0 7.732-6.268 14-14 14s-14-6.268-14-14v-6c0-7.732 6.268-14 14-14Z" fill="#fff" style="mix-blend-mode:overlay" opacity=".364"/></g><g transform="translate(20 24)"><g fill="#1B0640"><path d="M3.632 4.004a1 1 0 0 0 .372 1.364C4.734 5.785 5.486 6 6.25 6s1.517-.215 2.246-.632a1 1 0 0 0-.992-1.736C7.066 3.882 6.652 4 6.25 4s-.816-.118-1.254-.368a1 1 0 0 0-1.364.372ZM15.632 4.004a1 1 0 0 0 .372 1.364c.73.417 1.482.632 2.246.632s1.517-.215 2.246-.632a1 1 0 0 0-.992-1.736c-.438.25-.852.368-1.254.368s-.817-.118-1.254-.368a1 1 0 0 0-1.364.372Z"/></g></g><g transform="translate(2 2)"><g style="mix-blend-mode:overlay" opacity=".198" fill="#fff"><path d="M26.75 15a.75.75 0 1 0 0-1.5.75.75 0 0 0 0 1.5ZM19.38 21.774a.75.75 0 0 0 1.006-.336c.573-1.15 1.24-2.17 2.002-3.063a10.357 10.357 0 0 1 2.623-2.205.75.75 0 0 0-.765-1.29 11.86 11.86 0 0 0-3 2.522 16.553 16.553 0 0 0-2.202 3.366.75.75 0 0 0 .336 1.006Z"/></g></g><g transform="translate(11 44)"><path d="M32 20H10v-8a11 11 0 0 1 6-9.8V4a5 5 0 0 0 10 0V2.2a11 11 0 0 1 6 9.8v8Z" fill="rgba(226, 69, 83, 1)"/><mask id="bodySmall-a" style="mask-type:alpha" maskUnits="userSpaceOnUse" x="10" y="2" width="22" height="18"><path d="M32 20H10v-8a11 11 0 0 1 6-9.8V4a5 5 0 0 0 10 0V2.2a11 11 0 0 1 6 9.8v8Z" fill="#fff"/></mask><g mask="url(#bodySmall-a)"><path opacity=".136" d="M20.617 8.25 22 8l1.207.5L10 15l10.617-6.75Z" fill="#000"/><path d="M21 1h11v47H10V15l13.345-6.578L21 1Z" fill="#fff" style="mix-blend-mode:overlay" opacity=".261"/></g></g><g transform="translate(23 36)"><path d="M5.004 4.132a1 1 0 1 0 .992 1.736C7.016 5.285 8.014 5 9 5c.986 0 1.983.285 3.004.868a1 1 0 1 0 .992-1.736C11.684 3.382 10.348 3 9 3c-1.348 0-2.684.382-3.996 1.132Z" fill="#1B0640"/></g><g><g transform="translate(24 28)"><path opacity=".119" fill-rule="evenodd" clip-rule="evenodd" d="M11.721 5.294c.21.736.273 1.39.195 1.955.349.543.643 1.041.883 1.493.447.843.86 1.817 1.238 2.92a.5.5 0 1 0 .946-.324 21.232 21.232 0 0 0-1.3-3.065c-.473-.89-1.137-1.934-1.996-3.135a.499.499 0 0 0-.099-.104c.06.075.105.162.133.26Zm-7.442 0a.748.748 0 0 1 .115-.237.502.502 0 0 0-.071.08C3.464 6.34 2.799 7.384 2.328 8.274a21.224 21.224 0 0 0-1.301 3.065.5.5 0 0 0 .946.324 20.24 20.24 0 0 1 1.238-2.92c.238-.448.53-.942.875-1.48-.08-.568-.019-1.227.193-1.968Z" fill="#000"/><path d="M5.206 4.779a.75.75 0 0 0-.927.515c-.212.741-.274 1.4-.193 1.968C4.314 8.866 5.68 9.75 8 9.75c2.328 0 3.693-.888 3.916-2.501.078-.565.015-1.22-.195-1.955a.749.749 0 0 0-.927-.515.75.75 0 0 0-.515.927C10.802 7.536 10.19 8.25 8 8.25s-2.802-.713-2.279-2.544a.75.75 0 0 0-.515-.927Z" fill="#000" style="mix-blend-mode:overlay" opacity=".36"/></g></g><g><g transform="translate(14 26)"><path d="M16 17.5h4l-.684 2.051a1.387 1.387 0 0 1-2.632 0L16 17.5Z" fill="rgba(54, 44, 71, 1)"/></g></g></g></svg>