<svg xmlns:dc="http://purl.org/dc/elements/1.1/" xmlns:cc="http://creativecommons.org/ns#" xmlns:rdf="http://www.w3.org/1999/02/22-rdf-syntax-ns#" xmlns:svg="http://www.w3.org/2000/svg" xmlns="http://www.w3.org/2000/svg" viewBox="0 0 64 64" fill="none"><metadata><rdf:RDF><cc:Work><dc:format>image/svg+xml</dc:format><dc:type rdf:resource="http://purl.org/dc/dcmitype/StillImage"/><dc:title>Personas by Draftbit</dc:title><dc:creator><cc:Agent><dc:title>Draftbit - draftbit.com</dc:title></cc:Agent></dc:creator><dc:source>https://personas.draftbit.com/</dc:source><cc:license rdf:resource="https://creativecommons.org/licenses/by/4.0/"/></cc:Work><cc:License rdf:about="https://creativecommons.org/licenses/by/4.0/"><cc:permits rdf:resource="https://creativecommons.org/ns#Reproduction"/><cc:permits rdf:resource="https://creativecommons.org/ns#Distribution"/><cc:permits rdf:resource="https://creativecommons.org/ns#DerivativeWorks"/><cc:requires rdf:resource="https://creativecommons.org/ns#Notice"/><cc:requires rdf:resource="https://creativecommons.org/ns#Attribution"/></cc:License></rdf:RDF></metadata><mask id="avatarsRadiusMask"><rect width="64" height="64" rx="0" ry="0" x="0" y="0" fill="#fff"/></mask><g mask="url(#avatarsRadiusMask)"><path d="M37 46.08V52a5 5 0 0 1-10 0v-5.92A14.035 14.035 0 0 1 18.58 37h-.08a4.5 4.5 0 0 1-.5-8.973V27c0-7.732 6.268-14 14-14s14 6.268 14 14v1.027A4.5 4.5 0 0 1 45.42 37 14.035 14.035 0 0 1 37 46.081Z" fill="rgba(238, 180, 164, 1)"/><mask id="personas-a" style="mask-type:alpha" maskUnits="userSpaceOnUse" x="14" y="13" width="36" height="44"><path d="M37 46.08V52a5 5 0 0 1-10 0v-5.92A14.035 14.035 0 0 1 18.58 37h-.08a4.5 4.5 0 0 1-.5-8.973V27c0-7.732 6.268-14 14-14s14 6.268 14 14v1.027A4.5 4.5 0 0 1 45.42 37 14.035 14.035 0 0 1 37 46.081Z" fill="#fff"/></mask><g mask="url(#personas-a)"><path d="M32 13c7.732 0 14 6.268 14 14v6c0 7.732-6.268 14-14 14s-14-6.268-14-14v-6c0-7.732 6.268-14 14-14Z" fill="#fff" style="mix-blend-mode:overlay" opacity=".364"/></g><g transform="translate(20 24)"><path fill-rule="evenodd" clip-rule="evenodd" d="M4 4.5a1.5 1.5 0 1 0 3 0 1.5 1.5 0 0 0-3 0Zm13 0a1.5 1.5 0 1 0 3 0 1.5 1.5 0 0 0-3 0Z" fill="#1B0640"/></g><g transform="translate(2 2)"><path d="M31.792 7a2 2 0 0 1 3.816 0h.558a2 2 0 0 1 3.83.668c.075.03.15.063.224.095a2 2 0 0 1 3.13 2.298l.152.178a2 2 0 0 1 1.775 3.41 8.9 8.9 0 0 1 .114.474 2 2 0 0 1 .018 3.748l-.047.324a2 2 0 0 1-.022 3.62 1.994 1.994 0 0 1 .159.852 1.8 1.8 0 0 1-1.22 2.924L44 27.5c-.44-.659-.842-1.48-1.209-2.465a1.796 1.796 0 0 1-.437-.796 1.997 1.997 0 0 1-.563-2.679l-.022-.098a2 2 0 0 1-.956-2.937 1.994 1.994 0 0 1-2.44-.323 2 2 0 0 1-3.724.057 39.11 39.11 0 0 1-.312.032 2 2 0 0 1-3.573.203l-.23.003a2 2 0 0 1-3.521-.099l-.41-.031a2 2 0 0 1-3.676-.165c-.363.369-.868.598-1.427.598-.663 0-1.25-.322-1.614-.818l-.022.155a2 2 0 0 1-.701 3.35 2 2 0 0 1-1.397 3.095A24.9 24.9 0 0 1 16 27.5l-.188-1.923a1.8 1.8 0 0 1-.338-3.465l-.012-.126a2 2 0 0 1-.38-3.889l-.013-.144a2 2 0 0 1 .067-3.92c.013-.06.027-.118.042-.178a2 2 0 0 1 1.46-3.627 2 2 0 0 1 3.066-2.326 2 2 0 0 1 3.835-.894l.05-.002A2 2 0 0 1 27.41 7h.183a2 2 0 0 1 3.816 0h.384Z" fill="rgba(108, 69, 69, 1)"/><mask id="hairCurlyHighTop-a" style="mask-type:alpha" maskUnits="userSpaceOnUse" x="13" y="5" width="34" height="23"><path d="M31.792 7a2 2 0 0 1 3.816 0h.558a2 2 0 0 1 3.83.668c.075.03.15.063.224.095a2 2 0 0 1 3.13 2.298l.152.178a2 2 0 0 1 1.775 3.41 8.9 8.9 0 0 1 .114.474 2 2 0 0 1 .018 3.748l-.047.324a2 2 0 0 1-.022 3.62 1.994 1.994 0 0 1 .159.852 1.8 1.8 0 0 1-1.22 2.924L44 27.5c-.44-.659-.842-1.48-1.209-2.465a1.796 1.796 0 0 1-.437-.796 1.997 1.997 0 0 1-.563-2.679l-.022-.098a2 2 0 0 1-.956-2.937 1.994 1.994 0 0 1-2.44-.323 2 2 0 0 1-3.724.057 39.11 39.11 0 0 1-.312.032 2 2 0 0 1-3.573.203l-.23.003a2 2 0 0 1-3.521-.099l-.41-.031a2 2 0 0 1-3.676-.165c-.363.369-.868.598-1.427.598-.663 0-1.25-.322-1.614-.818l-.022.155a2 2 0 0 1-.701 3.35 2 2 0 0 1-1.397 3.095A24.9 24.9 0 0 1 16 27.5l-.188-1.923a1.8 1.8 0 0 1-.338-3.465l-.012-.126a2 2 0 0 1-.38-3.889l-.013-.144a2 2 0 0 1 .067-3.92c.013-.06.027-.118.042-.178a2 2 0 0 1 1.46-3.627 2 2 0 0 1 3.066-2.326 2 2 0 0 1 3.835-.894l.05-.002A2 2 0 0 1 27.41 7h.183a2 2 0 0 1 3.816 0h.384Z" fill="#fff"/></mask><g mask="url(#hairCurlyHighTop-a)"><path fill="#fff" d="M13 5h34v23H13z" style="mix-blend-mode:overlay" opacity=".259"/></g></g><g transform="translate(11 44)"><path d="M32 20H10v-8a11 11 0 0 1 6-9.8V4a5 5 0 0 0 10 0V2.2a11 11 0 0 1 6 9.8v8Z" fill="rgba(226, 69, 83, 1)"/><mask id="bodySmall-a" style="mask-type:alpha" maskUnits="userSpaceOnUse" x="10" y="2" width="22" height="18"><path d="M32 20H10v-8a11 11 0 0 1 6-9.8V4a5 5 0 0 0 10 0V2.2a11 11 0 0 1 6 9.8v8Z" fill="#fff"/></mask><g mask="url(#bodySmall-a)"><path opacity=".136" d="M20.617 8.25 22 8l1.207.5L10 15l10.617-6.75Z" fill="#000"/><path d="M21 1h11v47H10V15l13.345-6.578L21 1Z" fill="#fff" style="mix-blend-mode:overlay" opacity=".261"/></g></g><g transform="translate(23 36)"><path fill-rule="evenodd" clip-rule="evenodd" d="M9 2a6.611 6.611 0 0 1-2.27-.412A2.035 2.035 0 0 0 4 3.5a3.5 3.5 0 0 0 2.004 3.165 3 3 0 0 0 5.992 0A3.5 3.5 0 0 0 14 3.5a2.035 2.035 0 0 0-2.73-1.912A6.61 6.61 0 0 1 9 2ZM7.585 7h2.83a1.5 1.5 0 0 1-2.83 0Z" fill="#456DFF"/><path fill-rule="evenodd" clip-rule="evenodd" d="M12 6.5c0 .055-.002.11-.005.165A3.5 3.5 0 0 0 14 3.5a2.035 2.035 0 0 0-2.73-1.912A6.61 6.61 0 0 1 9 2a6.611 6.611 0 0 1-2.27-.412A2.035 2.035 0 0 0 4 3.5a3.5 3.5 0 0 0 2.004 3.165A3 3 0 1 1 12 6.5ZM7.585 7h2.83a1.5 1.5 0 1 0-2.83 0Z" fill="#fff" fill-opacity=".26" style="mix-blend-mode:lighten"/><circle cx="9" cy="4.5" r="1.5" fill="#fff"/></g><g><g transform="translate(24 28)"><path d="M4.25 5a.75.75 0 0 1 1.5 0c0 .836.914 1.75 2.25 1.75 1.336 0 2.25-.914 2.25-1.75a.75.75 0 0 1 1.5 0c0 1.664-1.586 3.25-3.75 3.25-2.164 0-3.75-1.586-3.75-3.25Z" fill="#000" style="mix-blend-mode:overlay" opacity=".36"/></g></g><g><g transform="translate(14 26)"><path opacity=".2" d="M32 3v4c0 7.732-6.268 14-14 14S4 14.732 4 7V3c0-.1.001-.2.003-.298C6.048 5.642 8.535 9.669 12 11c2-1.002 4-1.504 6-1.504s4 .502 6 1.504c3.465-1.33 5.952-5.359 7.997-8.298C31.999 2.8 32 2.9 32 3Z" fill="rgba(108, 69, 69, 1)"/></g></g></g></svg>