<svg xmlns:dc="http://purl.org/dc/elements/1.1/" xmlns:cc="http://creativecommons.org/ns#" xmlns:rdf="http://www.w3.org/1999/02/22-rdf-syntax-ns#" xmlns:svg="http://www.w3.org/2000/svg" xmlns="http://www.w3.org/2000/svg" viewBox="0 0 64 64" fill="none"><metadata><rdf:RDF><cc:Work><dc:format>image/svg+xml</dc:format><dc:type rdf:resource="http://purl.org/dc/dcmitype/StillImage"/><dc:title>Personas by Draftbit</dc:title><dc:creator><cc:Agent><dc:title>Draftbit - draftbit.com</dc:title></cc:Agent></dc:creator><dc:source>https://personas.draftbit.com/</dc:source><cc:license rdf:resource="https://creativecommons.org/licenses/by/4.0/"/></cc:Work><cc:License rdf:about="https://creativecommons.org/licenses/by/4.0/"><cc:permits rdf:resource="https://creativecommons.org/ns#Reproduction"/><cc:permits rdf:resource="https://creativecommons.org/ns#Distribution"/><cc:permits rdf:resource="https://creativecommons.org/ns#DerivativeWorks"/><cc:requires rdf:resource="https://creativecommons.org/ns#Notice"/><cc:requires rdf:resource="https://creativecommons.org/ns#Attribution"/></cc:License></rdf:RDF></metadata><mask id="avatarsRadiusMask"><rect width="64" height="64" rx="0" ry="0" x="0" y="0" fill="#fff"/></mask><g mask="url(#avatarsRadiusMask)"><path d="M37 46.08V52a5 5 0 0 1-10 0v-5.92A14.035 14.035 0 0 1 18.58 37h-.08a4.5 4.5 0 0 1-.5-8.973V27c0-7.732 6.268-14 14-14s14 6.268 14 14v1.027A4.5 4.5 0 0 1 45.42 37 14.035 14.035 0 0 1 37 46.081Z" fill="rgba(146, 89, 75, 1)"/><mask id="personas-a" style="mask-type:alpha" maskUnits="userSpaceOnUse" x="14" y="13" width="36" height="44"><path d="M37 46.08V52a5 5 0 0 1-10 0v-5.92A14.035 14.035 0 0 1 18.58 37h-.08a4.5 4.5 0 0 1-.5-8.973V27c0-7.732 6.268-14 14-14s14 6.268 14 14v1.027A4.5 4.5 0 0 1 45.42 37 14.035 14.035 0 0 1 37 46.081Z" fill="#fff"/></mask><g mask="url(#personas-a)"><path d="M32 13c7.732 0 14 6.268 14 14v6c0 7.732-6.268 14-14 14s-14-6.268-14-14v-6c0-7.732 6.268-14 14-14Z" fill="#fff" style="mix-blend-mode:overlay" opacity=".364"/></g><g transform="translate(20 24)"><path fill-rule="evenodd" clip-rule="evenodd" d="M4 4.5a1.5 1.5 0 1 0 3 0 1.5 1.5 0 0 0-3 0Zm13 0a1.5 1.5 0 1 0 3 0 1.5 1.5 0 0 0-3 0Z" fill="#1B0640"/></g><g transform="translate(2 2)"><path opacity=".203" d="M30 17.002c3.881 0 7.548-.376 11 4.218l-1.9 6.492c-.611 1.228-1.636 1.559-2.463.796-2.09-1.929-4.302-2.893-6.637-2.893s-4.547.964-6.637 2.893c-.827.763-1.851.432-2.462-.796L19 21.22c3.452-4.594 7.119-4.218 11-4.218Z" fill="#000"/><path d="M27.292 11.207a3 3 0 0 1 5.416 0c6.1.957 10.809 5.235 11.292 12.71a27.697 27.697 0 0 0-3.96-1.302l-.94.602a2 2 0 0 1-2.463.462C34.547 22.559 32.335 22 30 22s-4.547.56-6.637 1.679a2 2 0 0 1-2.462-.462l-.94-.602A27.697 27.697 0 0 0 16 23.918c.483-7.476 5.192-11.754 11.292-12.711Z" fill="#F29C65"/><path d="M19.96 22.615A27.697 27.697 0 0 0 16 23.918C16.553 15.367 22.632 11 30 11s13.447 4.368 14 12.918a27.697 27.697 0 0 0-3.96-1.303L41 22c-3.452-2.667-7.119-4-11-4-3.881 0-7.548 1.333-11 4l.96.615Z" fill="#000" style="mix-blend-mode:overlay" opacity=".279"/><path d="m39.448 22.994-.349.223a2 2 0 0 1-2.462.462C34.547 22.559 32.335 22 30 22s-4.547.56-6.637 1.679a2 2 0 0 1-2.462-.462l-.349-.223c.866.068 2.183-.479 2.811-.815 2.09-1.12 4.302-1.679 6.637-1.679s4.547.56 6.637 1.679c.628.336 1.945.883 2.811.815Z" fill="#fff" style="mix-blend-mode:lighten" opacity=".203"/></g><g transform="translate(11 44)"><path d="M16 7v.47a5 5 0 1 0 10 0V7c7.063 1.523 12.93 6.735 16 13H0C3.07 13.735 8.937 8.523 16 7Z" fill="rgba(84, 215, 199, 1)"/></g><g transform="translate(23 36)"><path d="M5.004 4.132a1 1 0 1 0 .992 1.736C7.016 5.285 8.014 5 9 5c.986 0 1.983.285 3.004.868a1 1 0 1 0 .992-1.736C11.684 3.382 10.348 3 9 3c-1.348 0-2.684.382-3.996 1.132Z" fill="#1B0640"/></g><g><g transform="translate(24 28)"><path d="M5.289 6.237a.75.75 0 1 1 1.423-.474c.233.699.617.987 1.288.987s1.056-.288 1.289-.987a.75.75 0 1 1 1.422.474C10.278 7.538 9.33 8.25 8 8.25s-2.278-.712-2.711-2.013Z" fill="#000" style="mix-blend-mode:overlay" opacity=".36"/></g></g><g><g transform="translate(14 26)"><path opacity=".2" d="M32 3v4c0 7.732-6.268 14-14 14S4 14.732 4 7V3c0-.1.001-.2.003-.298C6.048 5.642 8.535 9.669 12 11c2-1.002 4-1.504 6-1.504s4 .502 6 1.504c3.465-1.33 5.952-5.359 7.997-8.298C31.999 2.8 32 2.9 32 3Z" fill="rgba(222, 225, 245, 1)"/></g></g></g></svg>