<svg xmlns:dc="http://purl.org/dc/elements/1.1/" xmlns:cc="http://creativecommons.org/ns#" xmlns:rdf="http://www.w3.org/1999/02/22-rdf-syntax-ns#" xmlns:svg="http://www.w3.org/2000/svg" xmlns="http://www.w3.org/2000/svg" viewBox="0 0 64 64" fill="none"><metadata><rdf:RDF><cc:Work><dc:format>image/svg+xml</dc:format><dc:type rdf:resource="http://purl.org/dc/dcmitype/StillImage"/><dc:title>Personas by Draftbit</dc:title><dc:creator><cc:Agent><dc:title>Draftbit - draftbit.com</dc:title></cc:Agent></dc:creator><dc:source>https://personas.draftbit.com/</dc:source><cc:license rdf:resource="https://creativecommons.org/licenses/by/4.0/"/></cc:Work><cc:License rdf:about="https://creativecommons.org/licenses/by/4.0/"><cc:permits rdf:resource="https://creativecommons.org/ns#Reproduction"/><cc:permits rdf:resource="https://creativecommons.org/ns#Distribution"/><cc:permits rdf:resource="https://creativecommons.org/ns#DerivativeWorks"/><cc:requires rdf:resource="https://creativecommons.org/ns#Notice"/><cc:requires rdf:resource="https://creativecommons.org/ns#Attribution"/></cc:License></rdf:RDF></metadata><mask id="avatarsRadiusMask"><rect width="64" height="64" rx="0" ry="0" x="0" y="0" fill="#fff"/></mask><g mask="url(#avatarsRadiusMask)"><path d="M37 46.08V52a5 5 0 0 1-10 0v-5.92A14.035 14.035 0 0 1 18.58 37h-.08a4.5 4.5 0 0 1-.5-8.973V27c0-7.732 6.268-14 14-14s14 6.268 14 14v1.027A4.5 4.5 0 0 1 45.42 37 14.035 14.035 0 0 1 37 46.081Z" fill="rgba(229, 160, 126, 1)"/><mask id="personas-a" style="mask-type:alpha" maskUnits="userSpaceOnUse" x="14" y="13" width="36" height="44"><path d="M37 46.08V52a5 5 0 0 1-10 0v-5.92A14.035 14.035 0 0 1 18.58 37h-.08a4.5 4.5 0 0 1-.5-8.973V27c0-7.732 6.268-14 14-14s14 6.268 14 14v1.027A4.5 4.5 0 0 1 45.42 37 14.035 14.035 0 0 1 37 46.081Z" fill="#fff"/></mask><g mask="url(#personas-a)"><path d="M32 13c7.732 0 14 6.268 14 14v6c0 7.732-6.268 14-14 14s-14-6.268-14-14v-6c0-7.732 6.268-14 14-14Z" fill="#fff" style="mix-blend-mode:overlay" opacity=".364"/></g><g transform="translate(20 24)"><g fill="#1B0640"><path d="M6 6a1.5 1.5 0 1 0 0-3 1.5 1.5 0 0 0 0 3ZM18 6a1.5 1.5 0 1 0 0-3 1.5 1.5 0 0 0 0 3Z"/><g opacity=".801"><path d="M9 2H3v6h6V2ZM21 2h-6v6h6V2Z"/></g><path fill-rule="evenodd" clip-rule="evenodd" d="M13 1.053c.655 0 1.214-.2 1.845-.427C15.659.334 16.59 0 18 0c1.667 0 3.333.35 5 1.053l1 .526v1.579l-1 .526v3.158C23 8.586 21.657 10 20 10h-4c-1.657 0-3-1.414-3-3.158V3.158h-2v3.684C11 8.586 9.657 10 8 10H4c-1.657 0-3-1.414-3-3.158V3.684l-1-.526V1.579l1-.526C2.667.35 4.333 0 6 0c1.409 0 2.341.334 3.155.626.63.226 1.19.427 1.845.427h2Zm-4.757 1.47C7.399 2.228 6.818 2.106 6 2.106c-.995 0-1.993.15-3 .45v4.287c0 .581.448 1.053 1 1.053h4c.552 0 1-.472 1-1.053V2.791c-.209-.07-.447-.155-.757-.267ZM15 2.792c.209-.07.447-.155.758-.267.843-.297 1.424-.419 2.242-.419.995 0 1.993.15 3 .45v4.287c0 .581-.448 1.053-1 1.053h-4c-.552 0-1-.472-1-1.053V2.791Z"/></g></g><g transform="translate(2 2)"><path d="m44 26-.021-.023a2 2 0 0 1-2.104-2.855 2 2 0 0 1-2.729-2.095 2 2 0 0 1-3.303.553l-.012.005v.042a2 2 0 0 1-3.753.965 2 2 0 0 1-3.921.333 2 2 0 0 1-3.865-.598l-.131-.022a1.999 1.999 0 0 1-3.676-.982 20.23 20.23 0 0 1-.83-.325 2 2 0 0 1-2.725 2.123 2 2 0 0 1-.93 2.68v.226A4.5 4.5 0 0 0 16.58 35 14.035 14.035 0 0 0 25 44.081v3.062a3.484 3.484 0 0 1-.651-.68 20.64 20.64 0 0 1-1.431-.46 3.46 3.46 0 0 1-2.719-.138 3.46 3.46 0 0 1-1.816-2.166 20.899 20.899 0 0 1-.987-.707 3.462 3.462 0 0 1-2.742-.912 3.464 3.464 0 0 1-1.087-2.877 20.74 20.74 0 0 1-.495-.661 3.465 3.465 0 0 1-2.604-1.712 3.467 3.467 0 0 1-.062-3.358 20.8 20.8 0 0 1-.136-.39 3.47 3.47 0 0 1-1.077-5.965v-.009a3.47 3.47 0 0 1 .471-6.196 3.47 3.47 0 0 1 2.272-5.788 3.47 3.47 0 0 1 3.876-4.862A3.47 3.47 0 0 1 20.95 6.76a3.47 3.47 0 0 1 5.941-1.833 3.47 3.47 0 0 1 6.218 0A3.47 3.47 0 0 1 39.05 6.76a3.47 3.47 0 0 1 5.138 3.502 3.47 3.47 0 0 1 3.876 4.862 3.47 3.47 0 0 1 2.272 5.788 3.47 3.47 0 0 1 .471 6.196v.01a3.47 3.47 0 0 1-1.077 5.965c-.044.13-.09.26-.136.389a3.467 3.467 0 0 1-.062 3.358 3.465 3.465 0 0 1-2.604 1.712c-.16.224-.326.444-.495.661a3.464 3.464 0 0 1-1.087 2.877 3.462 3.462 0 0 1-2.742.912c-.322.245-.651.48-.987.707a3.46 3.46 0 0 1-1.816 2.166 3.46 3.46 0 0 1-2.719.138c-.469.17-.946.324-1.43.46a3.484 3.484 0 0 1-.652.68v-3.062a14.035 14.035 0 0 0 8.42-9.082l.08.001a4.5 4.5 0 0 0 .5-8.973V26Z" fill="rgba(108, 69, 69, 1)"/><mask id="hairCurly-a" style="mask-type:alpha" maskUnits="userSpaceOnUse" x="7" y="3" width="46" height="45"><path d="m44 26-.021-.023a2 2 0 0 1-2.104-2.855 2 2 0 0 1-2.729-2.095 2 2 0 0 1-3.303.553l-.012.005v.042a2 2 0 0 1-3.753.965 2 2 0 0 1-3.921.333 2 2 0 0 1-3.865-.598l-.131-.022a1.999 1.999 0 0 1-3.676-.982 20.23 20.23 0 0 1-.83-.325 2 2 0 0 1-2.725 2.123 2 2 0 0 1-.93 2.68v.226A4.5 4.5 0 0 0 16.58 35 14.035 14.035 0 0 0 25 44.081v3.062a3.484 3.484 0 0 1-.651-.68 20.64 20.64 0 0 1-1.431-.46 3.46 3.46 0 0 1-2.719-.138 3.46 3.46 0 0 1-1.816-2.166 20.899 20.899 0 0 1-.987-.707 3.462 3.462 0 0 1-2.742-.912 3.464 3.464 0 0 1-1.087-2.877 20.74 20.74 0 0 1-.495-.661 3.465 3.465 0 0 1-2.604-1.712 3.467 3.467 0 0 1-.062-3.358 20.8 20.8 0 0 1-.136-.39 3.47 3.47 0 0 1-1.077-5.965v-.009a3.47 3.47 0 0 1 .471-6.196 3.47 3.47 0 0 1 2.272-5.788 3.47 3.47 0 0 1 3.876-4.862A3.47 3.47 0 0 1 20.95 6.76a3.47 3.47 0 0 1 5.941-1.833 3.47 3.47 0 0 1 6.218 0A3.47 3.47 0 0 1 39.05 6.76a3.47 3.47 0 0 1 5.138 3.502 3.47 3.47 0 0 1 3.876 4.862 3.47 3.47 0 0 1 2.272 5.788 3.47 3.47 0 0 1 .471 6.196v.01a3.47 3.47 0 0 1-1.077 5.965c-.044.13-.09.26-.136.389a3.467 3.467 0 0 1-.062 3.358 3.465 3.465 0 0 1-2.604 1.712c-.16.224-.326.444-.495.661a3.464 3.464 0 0 1-1.087 2.877 3.462 3.462 0 0 1-2.742.912c-.322.245-.651.48-.987.707a3.46 3.46 0 0 1-1.816 2.166 3.46 3.46 0 0 1-2.719.138c-.469.17-.946.324-1.43.46a3.484 3.484 0 0 1-.652.68v-3.062a14.035 14.035 0 0 0 8.42-9.082l.08.001a4.5 4.5 0 0 0 .5-8.973V26Z" fill="#fff"/></mask><g mask="url(#hairCurly-a)"><path fill="#fff" d="M7 3h46v44H7z" style="mix-blend-mode:overlay" opacity=".259"/></g></g><g transform="translate(11 44)"><path d="M32 20H10v-8a11 11 0 0 1 6-9.8V4a5 5 0 0 0 10 0V2.2a11 11 0 0 1 6 9.8v8Z" fill="rgba(117, 85, 202, 1)"/><mask id="bodySmall-a" style="mask-type:alpha" maskUnits="userSpaceOnUse" x="10" y="2" width="22" height="18"><path d="M32 20H10v-8a11 11 0 0 1 6-9.8V4a5 5 0 0 0 10 0V2.2a11 11 0 0 1 6 9.8v8Z" fill="#fff"/></mask><g mask="url(#bodySmall-a)"><path opacity=".136" d="M20.617 8.25 22 8l1.207.5L10 15l10.617-6.75Z" fill="#000"/><path d="M21 1h11v47H10V15l13.345-6.578L21 1Z" fill="#fff" style="mix-blend-mode:overlay" opacity=".261"/></g></g><g transform="translate(23 36)"><path fill-rule="evenodd" clip-rule="evenodd" d="M9 2a6.611 6.611 0 0 1-2.27-.412A2.035 2.035 0 0 0 4 3.5a3.5 3.5 0 0 0 2.004 3.165 3 3 0 0 0 5.992 0A3.5 3.5 0 0 0 14 3.5a2.035 2.035 0 0 0-2.73-1.912A6.61 6.61 0 0 1 9 2ZM7.585 7h2.83a1.5 1.5 0 0 1-2.83 0Z" fill="#456DFF"/><path fill-rule="evenodd" clip-rule="evenodd" d="M12 6.5c0 .055-.002.11-.005.165A3.5 3.5 0 0 0 14 3.5a2.035 2.035 0 0 0-2.73-1.912A6.61 6.61 0 0 1 9 2a6.611 6.611 0 0 1-2.27-.412A2.035 2.035 0 0 0 4 3.5a3.5 3.5 0 0 0 2.004 3.165A3 3 0 1 1 12 6.5ZM7.585 7h2.83a1.5 1.5 0 1 0-2.83 0Z" fill="#fff" fill-opacity=".26" style="mix-blend-mode:lighten"/><circle cx="9" cy="4.5" r="1.5" fill="#fff"/></g><g><g transform="translate(24 28)"><path d="M4.25 5a.75.75 0 0 1 1.5 0c0 .836.914 1.75 2.25 1.75 1.336 0 2.25-.914 2.25-1.75a.75.75 0 0 1 1.5 0c0 1.664-1.586 3.25-3.75 3.25-2.164 0-3.75-1.586-3.75-3.25Z" fill="#000" style="mix-blend-mode:overlay" opacity=".36"/></g></g><g><g transform="translate(14 26)"><path opacity=".2" d="M32 3v4c0 7.732-6.268 14-14 14S4 14.732 4 7V3c0-.1.001-.2.003-.298C6.048 5.642 8.535 9.669 12 11c2-1.002 4-1.504 6-1.504s4 .502 6 1.504c3.465-1.33 5.952-5.359 7.997-8.298C31.999 2.8 32 2.9 32 3Z" fill="rgba(108, 69, 69, 1)"/></g></g></g></svg>