<svg xmlns:dc="http://purl.org/dc/elements/1.1/" xmlns:cc="http://creativecommons.org/ns#" xmlns:rdf="http://www.w3.org/1999/02/22-rdf-syntax-ns#" xmlns:svg="http://www.w3.org/2000/svg" xmlns="http://www.w3.org/2000/svg" viewBox="0 0 64 64" fill="none"><metadata><rdf:RDF><cc:Work><dc:format>image/svg+xml</dc:format><dc:type rdf:resource="http://purl.org/dc/dcmitype/StillImage"/><dc:title>Personas by Draftbit</dc:title><dc:creator><cc:Agent><dc:title>Draftbit - draftbit.com</dc:title></cc:Agent></dc:creator><dc:source>https://personas.draftbit.com/</dc:source><cc:license rdf:resource="https://creativecommons.org/licenses/by/4.0/"/></cc:Work><cc:License rdf:about="https://creativecommons.org/licenses/by/4.0/"><cc:permits rdf:resource="https://creativecommons.org/ns#Reproduction"/><cc:permits rdf:resource="https://creativecommons.org/ns#Distribution"/><cc:permits rdf:resource="https://creativecommons.org/ns#DerivativeWorks"/><cc:requires rdf:resource="https://creativecommons.org/ns#Notice"/><cc:requires rdf:resource="https://creativecommons.org/ns#Attribution"/></cc:License></rdf:RDF></metadata><mask id="avatarsRadiusMask"><rect width="64" height="64" rx="0" ry="0" x="0" y="0" fill="#fff"/></mask><g mask="url(#avatarsRadiusMask)"><path d="M37 46.08V52a5 5 0 0 1-10 0v-5.92A14.035 14.035 0 0 1 18.58 37h-.08a4.5 4.5 0 0 1-.5-8.973V27c0-7.732 6.268-14 14-14s14 6.268 14 14v1.027A4.5 4.5 0 0 1 45.42 37 14.035 14.035 0 0 1 37 46.081Z" fill="rgba(238, 180, 164, 1)"/><mask id="personas-a" style="mask-type:alpha" maskUnits="userSpaceOnUse" x="14" y="13" width="36" height="44"><path d="M37 46.08V52a5 5 0 0 1-10 0v-5.92A14.035 14.035 0 0 1 18.58 37h-.08a4.5 4.5 0 0 1-.5-8.973V27c0-7.732 6.268-14 14-14s14 6.268 14 14v1.027A4.5 4.5 0 0 1 45.42 37 14.035 14.035 0 0 1 37 46.081Z" fill="#fff"/></mask><g mask="url(#personas-a)"><path d="M32 13c7.732 0 14 6.268 14 14v6c0 7.732-6.268 14-14 14s-14-6.268-14-14v-6c0-7.732 6.268-14 14-14Z" fill="#fff" style="mix-blend-mode:overlay" opacity=".364"/></g><g transform="translate(20 24)"><g fill="#1B0640"><path d="M3.632 4.004a1 1 0 0 0 .372 1.364C4.734 5.785 5.486 6 6.25 6s1.517-.215 2.246-.632a1 1 0 0 0-.992-1.736C7.066 3.882 6.652 4 6.25 4s-.816-.118-1.254-.368a1 1 0 0 0-1.364.372ZM15.632 4.004a1 1 0 0 0 .372 1.364c.73.417 1.482.632 2.246.632s1.517-.215 2.246-.632a1 1 0 0 0-.992-1.736c-.438.25-.852.368-1.254.368s-.817-.118-1.254-.368a1 1 0 0 0-1.364.372Z"/></g></g><g transform="translate(2 2)"><path d="M40.26 12.63a7.926 7.926 0 0 1 4.6 8.351L44 27c-2.827-1.696-4.695-5.55-5.604-11.561a9.239 9.239 0 0 1-5.692 2.774c-1.823.191-3.391.287-4.704.287-3 0-5.667-.5-8-1.5 0 3.667-1.333 7.167-4 10.5l-.922-8.533A9 9 0 0 1 24.025 9H41a9.236 9.236 0 0 1-.74 3.63Z" fill="rgba(225, 92, 102, 1)"/><g style="mix-blend-mode:overlay" opacity=".259" fill="#fff"><path d="M40.26 12.63A9.236 9.236 0 0 0 41 9H24.025a9 9 0 0 0-8.948 9.967L16 27.5c2.667-3.333 4-6.833 4-10.5 2.333 1 5 1.5 8 1.5 1.313 0 2.88-.096 4.704-.287a9.239 9.239 0 0 0 5.692-2.774 9.281 9.281 0 0 0 1.864-2.808ZM44.878 20.843a7.91 7.91 0 0 0-2.413-6.735 9.288 9.288 0 0 1-3.451 4.506C40.045 22.83 41.707 25.624 44 27l.86-6.019c.006-.046.013-.091.018-.138Z"/></g></g><g transform="translate(11 44)"><path d="M16 5v3a5 5 0 0 0 10 0V5l6.647 2.045A9 9 0 0 1 39 15.647V20H3v-4.353a9 9 0 0 1 6.353-8.602L16 5Z" fill="rgba(243, 182, 58, 1)"/><mask id="bodyCheckered-a" style="mask-type:alpha" maskUnits="userSpaceOnUse" x="3" y="5" width="36" height="15"><path d="M16 5v3a5 5 0 0 0 10 0V5l6.647 2.045A9 9 0 0 1 39 15.647V20H3v-4.353a9 9 0 0 1 6.353-8.602L16 5Z" fill="#fff"/></mask><g mask="url(#bodyCheckered-a)"><path fill-rule="evenodd" clip-rule="evenodd" d="M7 20h4V6.538l-1.647.507A8.99 8.99 0 0 0 7 8.163V20ZM32.647 7.045 31 6.538V20h4V8.163a8.99 8.99 0 0 0-2.353-1.118ZM23 20h4v-8.392a7.017 7.017 0 0 1-4 3.102V20Zm-4 0h-4v-8.392a7.017 7.017 0 0 0 4 3.102V20Z" fill="#000" style="mix-blend-mode:overlay" opacity=".404"/></g><g style="mix-blend-mode:lighten" opacity=".18" fill="#fff"><path d="M3.397 13a9.014 9.014 0 0 1 2.535-4h8.139a6.982 6.982 0 0 0 2.03 4H3.397ZM39 17v3H3v-3h36ZM36.068 9a9.014 9.014 0 0 1 2.535 4H25.899a6.982 6.982 0 0 0 2.03-4h8.14Z"/></g><mask id="bodyCheckered-b" style="mask-type:alpha" maskUnits="userSpaceOnUse" x="3" y="9" width="36" height="11"><g style="mix-blend-mode:lighten" fill="#fff"><path d="M3.397 13a9.014 9.014 0 0 1 2.535-4h8.139a6.982 6.982 0 0 0 2.03 4H3.397ZM39 17v3H3v-3h36ZM36.068 9a9.014 9.014 0 0 1 2.535 4H25.899a6.982 6.982 0 0 0 2.03-4h8.14Z"/></g></mask></g><g transform="translate(23 36)"><path d="M5.004 4.132a1 1 0 1 0 .992 1.736C7.016 5.285 8.014 5 9 5c.986 0 1.983.285 3.004.868a1 1 0 1 0 .992-1.736C11.684 3.382 10.348 3 9 3c-1.348 0-2.684.382-3.996 1.132Z" fill="#1B0640"/></g><g><g transform="translate(24 28)"><path opacity=".119" fill-rule="evenodd" clip-rule="evenodd" d="M11.721 5.294c.21.736.273 1.39.195 1.955.349.543.643 1.041.883 1.493.447.843.86 1.817 1.238 2.92a.5.5 0 1 0 .946-.324 21.232 21.232 0 0 0-1.3-3.065c-.473-.89-1.137-1.934-1.996-3.135a.499.499 0 0 0-.099-.104c.06.075.105.162.133.26Zm-7.442 0a.748.748 0 0 1 .115-.237.502.502 0 0 0-.071.08C3.464 6.34 2.799 7.384 2.328 8.274a21.224 21.224 0 0 0-1.301 3.065.5.5 0 0 0 .946.324 20.24 20.24 0 0 1 1.238-2.92c.238-.448.53-.942.875-1.48-.08-.568-.019-1.227.193-1.968Z" fill="#000"/><path d="M5.206 4.779a.75.75 0 0 0-.927.515c-.212.741-.274 1.4-.193 1.968C4.314 8.866 5.68 9.75 8 9.75c2.328 0 3.693-.888 3.916-2.501.078-.565.015-1.22-.195-1.955a.749.749 0 0 0-.927-.515.75.75 0 0 0-.515.927C10.802 7.536 10.19 8.25 8 8.25s-2.802-.713-2.279-2.544a.75.75 0 0 0-.515-.927Z" fill="#000" style="mix-blend-mode:overlay" opacity=".36"/></g></g><g><g transform="translate(14 26)"><path d="M18.017 12.05a2.718 2.718 0 0 1-3.183 1.587l-5.082-1.3a1 1 0 0 1-.075-1.916l5.235-1.786a2.504 2.504 0 0 1 3.104 1.37 2.504 2.504 0 0 1 3.105-1.37l5.235 1.786a1 1 0 0 1-.075 1.915l-5.082 1.3a2.718 2.718 0 0 1-3.183-1.587Z" fill="rgba(225, 92, 102, 1)"/></g></g></g></svg>