<svg xmlns:dc="http://purl.org/dc/elements/1.1/" xmlns:cc="http://creativecommons.org/ns#" xmlns:rdf="http://www.w3.org/1999/02/22-rdf-syntax-ns#" xmlns:svg="http://www.w3.org/2000/svg" xmlns="http://www.w3.org/2000/svg" viewBox="0 0 64 64" fill="none"><metadata><rdf:RDF><cc:Work><dc:format>image/svg+xml</dc:format><dc:type rdf:resource="http://purl.org/dc/dcmitype/StillImage"/><dc:title>Personas by Draftbit</dc:title><dc:creator><cc:Agent><dc:title>Draftbit - draftbit.com</dc:title></cc:Agent></dc:creator><dc:source>https://personas.draftbit.com/</dc:source><cc:license rdf:resource="https://creativecommons.org/licenses/by/4.0/"/></cc:Work><cc:License rdf:about="https://creativecommons.org/licenses/by/4.0/"><cc:permits rdf:resource="https://creativecommons.org/ns#Reproduction"/><cc:permits rdf:resource="https://creativecommons.org/ns#Distribution"/><cc:permits rdf:resource="https://creativecommons.org/ns#DerivativeWorks"/><cc:requires rdf:resource="https://creativecommons.org/ns#Notice"/><cc:requires rdf:resource="https://creativecommons.org/ns#Attribution"/></cc:License></rdf:RDF></metadata><mask id="avatarsRadiusMask"><rect width="64" height="64" rx="0" ry="0" x="0" y="0" fill="#fff"/></mask><g mask="url(#avatarsRadiusMask)"><path d="M37 46.08V52a5 5 0 0 1-10 0v-5.92A14.035 14.035 0 0 1 18.58 37h-.08a4.5 4.5 0 0 1-.5-8.973V27c0-7.732 6.268-14 14-14s14 6.268 14 14v1.027A4.5 4.5 0 0 1 45.42 37 14.035 14.035 0 0 1 37 46.081Z" fill="rgba(229, 160, 126, 1)"/><mask id="personas-a" style="mask-type:alpha" maskUnits="userSpaceOnUse" x="14" y="13" width="36" height="44"><path d="M37 46.08V52a5 5 0 0 1-10 0v-5.92A14.035 14.035 0 0 1 18.58 37h-.08a4.5 4.5 0 0 1-.5-8.973V27c0-7.732 6.268-14 14-14s14 6.268 14 14v1.027A4.5 4.5 0 0 1 45.42 37 14.035 14.035 0 0 1 37 46.081Z" fill="#fff"/></mask><g mask="url(#personas-a)"><path d="M32 13c7.732 0 14 6.268 14 14v6c0 7.732-6.268 14-14 14s-14-6.268-14-14v-6c0-7.732 6.268-14 14-14Z" fill="#fff" style="mix-blend-mode:overlay" opacity=".364"/></g><g transform="translate(20 24)"><g fill="#1B0640"><path d="M3.763 6.212a.75.75 0 0 0 .949-.475c.233-.699.617-.987 1.288-.987s1.056.288 1.289.987a.75.75 0 1 0 1.423-.474C8.278 3.962 7.329 3.25 6 3.25c-1.329 0-2.278.712-2.711 2.013a.75.75 0 0 0 .474.949ZM15.763 6.212a.75.75 0 0 0 .949-.475c.233-.699.617-.987 1.288-.987s1.055.288 1.288.987a.75.75 0 1 0 1.424-.474C20.277 3.962 19.329 3.25 18 3.25c-1.329 0-2.278.712-2.711 2.013a.75.75 0 0 0 .474.949Z"/></g></g><g transform="translate(2 2)"><path d="M31.792 7a2 2 0 0 1 3.816 0h.558a2 2 0 0 1 3.83.668c.075.03.15.063.224.095a2 2 0 0 1 3.13 2.298l.152.178a2 2 0 0 1 1.775 3.41 8.9 8.9 0 0 1 .114.474 2 2 0 0 1 .018 3.748l-.047.324a2 2 0 0 1-.022 3.62 1.994 1.994 0 0 1 .159.852 1.8 1.8 0 0 1-1.22 2.924L44 27.5c-.44-.659-.842-1.48-1.209-2.465a1.796 1.796 0 0 1-.437-.796 1.997 1.997 0 0 1-.563-2.679l-.022-.098a2 2 0 0 1-.956-2.937 1.994 1.994 0 0 1-2.44-.323 2 2 0 0 1-3.724.057 39.11 39.11 0 0 1-.312.032 2 2 0 0 1-3.573.203l-.23.003a2 2 0 0 1-3.521-.099l-.41-.031a2 2 0 0 1-3.676-.165c-.363.369-.868.598-1.427.598-.663 0-1.25-.322-1.614-.818l-.022.155a2 2 0 0 1-.701 3.35 2 2 0 0 1-1.397 3.095A24.9 24.9 0 0 1 16 27.5l-.188-1.923a1.8 1.8 0 0 1-.338-3.465l-.012-.126a2 2 0 0 1-.38-3.889l-.013-.144a2 2 0 0 1 .067-3.92c.013-.06.027-.118.042-.178a2 2 0 0 1 1.46-3.627 2 2 0 0 1 3.066-2.326 2 2 0 0 1 3.835-.894l.05-.002A2 2 0 0 1 27.41 7h.183a2 2 0 0 1 3.816 0h.384Z" fill="rgba(242, 125, 101, 1)"/><mask id="hairCurlyHighTop-a" style="mask-type:alpha" maskUnits="userSpaceOnUse" x="13" y="5" width="34" height="23"><path d="M31.792 7a2 2 0 0 1 3.816 0h.558a2 2 0 0 1 3.83.668c.075.03.15.063.224.095a2 2 0 0 1 3.13 2.298l.152.178a2 2 0 0 1 1.775 3.41 8.9 8.9 0 0 1 .114.474 2 2 0 0 1 .018 3.748l-.047.324a2 2 0 0 1-.022 3.62 1.994 1.994 0 0 1 .159.852 1.8 1.8 0 0 1-1.22 2.924L44 27.5c-.44-.659-.842-1.48-1.209-2.465a1.796 1.796 0 0 1-.437-.796 1.997 1.997 0 0 1-.563-2.679l-.022-.098a2 2 0 0 1-.956-2.937 1.994 1.994 0 0 1-2.44-.323 2 2 0 0 1-3.724.057 39.11 39.11 0 0 1-.312.032 2 2 0 0 1-3.573.203l-.23.003a2 2 0 0 1-3.521-.099l-.41-.031a2 2 0 0 1-3.676-.165c-.363.369-.868.598-1.427.598-.663 0-1.25-.322-1.614-.818l-.022.155a2 2 0 0 1-.701 3.35 2 2 0 0 1-1.397 3.095A24.9 24.9 0 0 1 16 27.5l-.188-1.923a1.8 1.8 0 0 1-.338-3.465l-.012-.126a2 2 0 0 1-.38-3.889l-.013-.144a2 2 0 0 1 .067-3.92c.013-.06.027-.118.042-.178a2 2 0 0 1 1.46-3.627 2 2 0 0 1 3.066-2.326 2 2 0 0 1 3.835-.894l.05-.002A2 2 0 0 1 27.41 7h.183a2 2 0 0 1 3.816 0h.384Z" fill="#fff"/></mask><g mask="url(#hairCurlyHighTop-a)"><path fill="#fff" d="M13 5h34v23H13z" style="mix-blend-mode:overlay" opacity=".259"/></g></g><g transform="translate(11 44)"><path d="M32 20H10v-8a11 11 0 0 1 6-9.8V4a5 5 0 0 0 10 0V2.2a11 11 0 0 1 6 9.8v8Z" fill="rgba(109, 187, 88, 1)"/><mask id="bodySmall-a" style="mask-type:alpha" maskUnits="userSpaceOnUse" x="10" y="2" width="22" height="18"><path d="M32 20H10v-8a11 11 0 0 1 6-9.8V4a5 5 0 0 0 10 0V2.2a11 11 0 0 1 6 9.8v8Z" fill="#fff"/></mask><g mask="url(#bodySmall-a)"><path opacity=".136" d="M20.617 8.25 22 8l1.207.5L10 15l10.617-6.75Z" fill="#000"/><path d="M21 1h11v47H10V15l13.345-6.578L21 1Z" fill="#fff" style="mix-blend-mode:overlay" opacity=".261"/></g></g><g transform="translate(23 36)"><path d="M7.318 5.728a.75.75 0 0 1 .364-1.456c2.433.609 4.165.32 5.288-.802a.75.75 0 1 1 1.06 1.06c-1.544 1.545-3.812 1.923-6.712 1.198Z" fill="#1B0640"/></g><g><g transform="translate(24 28)"><path d="M5.289 6.237a.75.75 0 1 1 1.423-.474c.233.699.617.987 1.288.987s1.056-.288 1.289-.987a.75.75 0 1 1 1.422.474C10.278 7.538 9.33 8.25 8 8.25s-2.278-.712-2.711-2.013Z" fill="#000" style="mix-blend-mode:overlay" opacity=".36"/></g></g><g><g transform="translate(14 26)"><path d="M18.017 12.05a2.718 2.718 0 0 1-3.183 1.587l-5.082-1.3a1 1 0 0 1-.075-1.916l5.235-1.786a2.504 2.504 0 0 1 3.104 1.37 2.504 2.504 0 0 1 3.105-1.37l5.235 1.786a1 1 0 0 1-.075 1.915l-5.082 1.3a2.718 2.718 0 0 1-3.183-1.587Z" fill="rgba(242, 125, 101, 1)"/></g></g></g></svg>