<svg xmlns:dc="http://purl.org/dc/elements/1.1/" xmlns:cc="http://creativecommons.org/ns#" xmlns:rdf="http://www.w3.org/1999/02/22-rdf-syntax-ns#" xmlns:svg="http://www.w3.org/2000/svg" xmlns="http://www.w3.org/2000/svg" viewBox="0 0 64 64" fill="none"><metadata><rdf:RDF><cc:Work><dc:format>image/svg+xml</dc:format><dc:type rdf:resource="http://purl.org/dc/dcmitype/StillImage"/><dc:title>Personas by Draftbit</dc:title><dc:creator><cc:Agent><dc:title>Draftbit - draftbit.com</dc:title></cc:Agent></dc:creator><dc:source>https://personas.draftbit.com/</dc:source><cc:license rdf:resource="https://creativecommons.org/licenses/by/4.0/"/></cc:Work><cc:License rdf:about="https://creativecommons.org/licenses/by/4.0/"><cc:permits rdf:resource="https://creativecommons.org/ns#Reproduction"/><cc:permits rdf:resource="https://creativecommons.org/ns#Distribution"/><cc:permits rdf:resource="https://creativecommons.org/ns#DerivativeWorks"/><cc:requires rdf:resource="https://creativecommons.org/ns#Notice"/><cc:requires rdf:resource="https://creativecommons.org/ns#Attribution"/></cc:License></rdf:RDF></metadata><mask id="avatarsRadiusMask"><rect width="64" height="64" rx="0" ry="0" x="0" y="0" fill="#fff"/></mask><g mask="url(#avatarsRadiusMask)"><path d="M37 46.08V52a5 5 0 0 1-10 0v-5.92A14.035 14.035 0 0 1 18.58 37h-.08a4.5 4.5 0 0 1-.5-8.973V27c0-7.732 6.268-14 14-14s14 6.268 14 14v1.027A4.5 4.5 0 0 1 45.42 37 14.035 14.035 0 0 1 37 46.081Z" fill="rgba(231, 163, 145, 1)"/><mask id="personas-a" style="mask-type:alpha" maskUnits="userSpaceOnUse" x="14" y="13" width="36" height="44"><path d="M37 46.08V52a5 5 0 0 1-10 0v-5.92A14.035 14.035 0 0 1 18.58 37h-.08a4.5 4.5 0 0 1-.5-8.973V27c0-7.732 6.268-14 14-14s14 6.268 14 14v1.027A4.5 4.5 0 0 1 45.42 37 14.035 14.035 0 0 1 37 46.081Z" fill="#fff"/></mask><g mask="url(#personas-a)"><path d="M32 13c7.732 0 14 6.268 14 14v6c0 7.732-6.268 14-14 14s-14-6.268-14-14v-6c0-7.732 6.268-14 14-14Z" fill="#fff" style="mix-blend-mode:overlay" opacity=".364"/></g><g transform="translate(20 24)"><g fill="#1B0640"><path d="M3.763 6.212a.75.75 0 0 0 .949-.475c.233-.699.617-.987 1.288-.987s1.056.288 1.289.987a.75.75 0 1 0 1.423-.474C8.278 3.962 7.329 3.25 6 3.25c-1.329 0-2.278.712-2.711 2.013a.75.75 0 0 0 .474.949ZM15.763 6.212a.75.75 0 0 0 .949-.475c.233-.699.617-.987 1.288-.987s1.055.288 1.288.987a.75.75 0 1 0 1.424-.474C20.277 3.962 19.329 3.25 18 3.25c-1.329 0-2.278.712-2.711 2.013a.75.75 0 0 0 .474.949Z"/></g></g><g transform="translate(2 2)"><path d="M31.792 7a2 2 0 0 1 3.816 0h.558a2 2 0 0 1 3.83.668c.075.03.15.063.224.095a2 2 0 0 1 3.13 2.298l.152.178a2 2 0 0 1 1.775 3.41 8.9 8.9 0 0 1 .114.474 2 2 0 0 1 .018 3.748l-.047.324a2 2 0 0 1-.022 3.62 1.994 1.994 0 0 1 .159.852 1.8 1.8 0 0 1-1.22 2.924L44 27.5c-.44-.659-.842-1.48-1.209-2.465a1.796 1.796 0 0 1-.437-.796 1.997 1.997 0 0 1-.563-2.679l-.022-.098a2 2 0 0 1-.956-2.937 1.994 1.994 0 0 1-2.44-.323 2 2 0 0 1-3.724.057 39.11 39.11 0 0 1-.312.032 2 2 0 0 1-3.573.203l-.23.003a2 2 0 0 1-3.521-.099l-.41-.031a2 2 0 0 1-3.676-.165c-.363.369-.868.598-1.427.598-.663 0-1.25-.322-1.614-.818l-.022.155a2 2 0 0 1-.701 3.35 2 2 0 0 1-1.397 3.095A24.9 24.9 0 0 1 16 27.5l-.188-1.923a1.8 1.8 0 0 1-.338-3.465l-.012-.126a2 2 0 0 1-.38-3.889l-.013-.144a2 2 0 0 1 .067-3.92c.013-.06.027-.118.042-.178a2 2 0 0 1 1.46-3.627 2 2 0 0 1 3.066-2.326 2 2 0 0 1 3.835-.894l.05-.002A2 2 0 0 1 27.41 7h.183a2 2 0 0 1 3.816 0h.384Z" fill="rgba(222, 225, 245, 1)"/><mask id="hairCurlyHighTop-a" style="mask-type:alpha" maskUnits="userSpaceOnUse" x="13" y="5" width="34" height="23"><path d="M31.792 7a2 2 0 0 1 3.816 0h.558a2 2 0 0 1 3.83.668c.075.03.15.063.224.095a2 2 0 0 1 3.13 2.298l.152.178a2 2 0 0 1 1.775 3.41 8.9 8.9 0 0 1 .114.474 2 2 0 0 1 .018 3.748l-.047.324a2 2 0 0 1-.022 3.62 1.994 1.994 0 0 1 .159.852 1.8 1.8 0 0 1-1.22 2.924L44 27.5c-.44-.659-.842-1.48-1.209-2.465a1.796 1.796 0 0 1-.437-.796 1.997 1.997 0 0 1-.563-2.679l-.022-.098a2 2 0 0 1-.956-2.937 1.994 1.994 0 0 1-2.44-.323 2 2 0 0 1-3.724.057 39.11 39.11 0 0 1-.312.032 2 2 0 0 1-3.573.203l-.23.003a2 2 0 0 1-3.521-.099l-.41-.031a2 2 0 0 1-3.676-.165c-.363.369-.868.598-1.427.598-.663 0-1.25-.322-1.614-.818l-.022.155a2 2 0 0 1-.701 3.35 2 2 0 0 1-1.397 3.095A24.9 24.9 0 0 1 16 27.5l-.188-1.923a1.8 1.8 0 0 1-.338-3.465l-.012-.126a2 2 0 0 1-.38-3.889l-.013-.144a2 2 0 0 1 .067-3.92c.013-.06.027-.118.042-.178a2 2 0 0 1 1.46-3.627 2 2 0 0 1 3.066-2.326 2 2 0 0 1 3.835-.894l.05-.002A2 2 0 0 1 27.41 7h.183a2 2 0 0 1 3.816 0h.384Z" fill="#fff"/></mask><g mask="url(#hairCurlyHighTop-a)"><path fill="#fff" d="M13 5h34v23H13z" style="mix-blend-mode:overlay" opacity=".259"/></g></g><g transform="translate(11 44)"><path d="M16 7v.47a5 5 0 1 0 10 0V7c7.063 1.523 12.93 6.735 16 13H0C3.07 13.735 8.937 8.523 16 7Z" fill="rgba(109, 187, 88, 1)"/></g><g transform="translate(23 36)"><path fill-rule="evenodd" clip-rule="evenodd" d="M9 2a6.611 6.611 0 0 1-2.27-.412A2.035 2.035 0 0 0 4 3.5a3.5 3.5 0 0 0 2.004 3.165 3 3 0 0 0 5.992 0A3.5 3.5 0 0 0 14 3.5a2.035 2.035 0 0 0-2.73-1.912A6.61 6.61 0 0 1 9 2ZM7.585 7h2.83a1.5 1.5 0 0 1-2.83 0Z" fill="#456DFF"/><path fill-rule="evenodd" clip-rule="evenodd" d="M12 6.5c0 .055-.002.11-.005.165A3.5 3.5 0 0 0 14 3.5a2.035 2.035 0 0 0-2.73-1.912A6.61 6.61 0 0 1 9 2a6.611 6.611 0 0 1-2.27-.412A2.035 2.035 0 0 0 4 3.5a3.5 3.5 0 0 0 2.004 3.165A3 3 0 1 1 12 6.5ZM7.585 7h2.83a1.5 1.5 0 1 0-2.83 0Z" fill="#fff" fill-opacity=".26" style="mix-blend-mode:lighten"/><circle cx="9" cy="4.5" r="1.5" fill="#fff"/></g><g><g transform="translate(24 28)"><path opacity=".119" fill-rule="evenodd" clip-rule="evenodd" d="M11.721 5.294c.21.736.273 1.39.195 1.955.349.543.643 1.041.883 1.493.447.843.86 1.817 1.238 2.92a.5.5 0 1 0 .946-.324 21.232 21.232 0 0 0-1.3-3.065c-.473-.89-1.137-1.934-1.996-3.135a.499.499 0 0 0-.099-.104c.06.075.105.162.133.26Zm-7.442 0a.748.748 0 0 1 .115-.237.502.502 0 0 0-.071.08C3.464 6.34 2.799 7.384 2.328 8.274a21.224 21.224 0 0 0-1.301 3.065.5.5 0 0 0 .946.324 20.24 20.24 0 0 1 1.238-2.92c.238-.448.53-.942.875-1.48-.08-.568-.019-1.227.193-1.968Z" fill="#000"/><path d="M5.206 4.779a.75.75 0 0 0-.927.515c-.212.741-.274 1.4-.193 1.968C4.314 8.866 5.68 9.75 8 9.75c2.328 0 3.693-.888 3.916-2.501.078-.565.015-1.22-.195-1.955a.749.749 0 0 0-.927-.515.75.75 0 0 0-.515.927C10.802 7.536 10.19 8.25 8 8.25s-2.802-.713-2.279-2.544a.75.75 0 0 0-.515-.927Z" fill="#000" style="mix-blend-mode:overlay" opacity=".36"/></g></g><g><g transform="translate(14 26)"><path d="m12.473 9.458 2.423-.827A2.504 2.504 0 0 1 18 10.001a2.504 2.504 0 0 1 3.104-1.37l2.423.827c3.466-1.33 6.425-3.817 8.47-6.756C31.999 2.8 32 2.9 32 3v6c0 7.732-6.268 14-14 14S4 16.732 4 9V3c0-.1.001-.2.003-.298 2.045 2.94 5.004 5.425 8.47 6.756Z" fill="rgba(222, 225, 245, 1)"/><mask id="facialHairBeardMustache-a" style="mask-type:alpha" maskUnits="userSpaceOnUse" x="4" y="2" width="28" height="21"><path d="m12.473 9.458 2.423-.827A2.504 2.504 0 0 1 18 10.001a2.504 2.504 0 0 1 3.104-1.37l2.423.827c3.466-1.33 6.425-3.817 8.47-6.756C31.999 2.8 32 2.9 32 3v6c0 7.732-6.268 14-14 14S4 16.732 4 9V3c0-.1.001-.2.003-.298 2.045 2.94 5.004 5.425 8.47 6.756Z" fill="#fff"/></mask><g mask="url(#facialHairBeardMustache-a)"><path d="M32 9V3c0-.1-.001-.2-.003-.298-2.045 2.94-5.004 5.425-8.47 6.756l2.812.96a1 1 0 0 1-.075 1.915l-5.081 1.3A2.715 2.715 0 0 1 18 12.046a2.718 2.718 0 0 1-3.183 1.587l-5.081-1.3a1 1 0 0 1-.075-1.916l2.812-.96c-3.466-1.33-6.425-3.816-8.47-6.755C4.001 2.8 4 2.9 4 3v6c0 7.732 6.268 14 14 14s14-6.268 14-14Z" fill="#fff" style="mix-blend-mode:overlay" opacity=".26"/><path d="M22 13.424v.076a3 3 0 0 1-3 3h-2a3 3 0 0 1-3-3.076l.817.209A2.715 2.715 0 0 0 18 12.046a2.718 2.718 0 0 0 3.183 1.587l.816-.209Z" fill="#FFFEFD"/></g></g></g></g></svg>